<?xml version="1.0" standalone="no"?>
<!DOCTYPE svg PUBLIC "-//W3C//DTD SVG 1.1//EN" "http://www.w3.org/Graphics/SVG/1.1/DTD/svg11.dtd" >
<svg xmlns="http://www.w3.org/2000/svg" xmlns:xlink="http://www.w3.org/1999/xlink" version="1.1">
<metadata>
Created by FontForge 20170731 at Fri Jun  2 12:12:46 2023
 By Aleksey,,,
Copyright (c) 2022 by Eugene Tantsurin. All rights reserved.
</metadata>
<defs>
<font id="JUSTSans-ExBd" horiz-adv-x="1044" >
  <font-face 
    font-family="JUST Sans ExBold"
    font-weight="800"
    font-stretch="normal"
    units-per-em="2048"
    panose-1="0 0 9 0 0 0 0 0 0 0"
    ascent="1638"
    descent="-410"
    x-height="1044"
    cap-height="1434"
    bbox="-1249 -522 2675 2017"
    underline-thickness="184"
    underline-position="-388"
    unicode-range="U+0020-FB02"
  />
<missing-glyph horiz-adv-x="1228" 
d="M1065 82h-901v1270h901v-1270zM434 1198l166 -332h31l164 332h-361zM328 1112v-790l200 395zM702 717l199 -391v782zM600 567l-166 -331h361l-164 331h-31z" />
    <glyph glyph-name="fl" unicode="fl" horiz-adv-x="1574" 
d="M635 0h-399v686h-195v307h195v49q0 412 415 412q89 0 157 -13.5t142 -47.5l-76 -265q-59 29 -120 29q-119 0 -119 -121v-43h256v-307h-256v-686zM1462 0h-399v1434h399v-1434z" />
    <glyph glyph-name="f_f" unicode="ff" horiz-adv-x="1769" 
d="M635 0h-399v686h-195v307h195v47q0 208 112 311t318 103q91 0 161.5 -15t151.5 -53l-76 -260q-73 31 -139 31q-59 0 -94 -31t-35 -92v-41h420v49q0 412 415 412q89 0 157 -13.5t142 -47.5l-75 -265q-59 29 -121 29q-119 0 -119 -121v-43h256v-307h-256v-686h-399v686
h-420v-686z" />
    <glyph glyph-name="f_f_i" unicode="ffi" horiz-adv-x="2385" 
d="M2075 1147q-97 0 -163.5 61.5t-66.5 153.5t66.5 153.5t163.5 61.5t164 -61.5t67 -153.5t-67 -153.5t-164 -61.5zM635 0h-399v686h-195v307h195v47q0 208 112 311t318 103q91 0 161.5 -15t151.5 -53l-76 -260q-73 31 -139 31q-59 0 -94 -31t-35 -92v-41h420v49
q0 412 415 412q89 0 157 -13.5t142 -47.5l-75 -265q-59 29 -121 29q-119 0 -119 -121v-43h819v-993h-399v686h-420v-686h-399v686h-420v-686z" />
    <glyph glyph-name="f_i" unicode="fi" horiz-adv-x="1566" 
d="M1255 1147q-97 0 -163 61.5t-66 153.5t66 153.5t163 61.5t164.5 -61.5t67.5 -153.5t-67.5 -153.5t-164.5 -61.5zM635 0h-399v686h-195v307h195v49q0 412 415 412q89 0 157 -13.5t142 -47.5l-76 -265q-59 29 -120 29q-119 0 -119 -121v-43h819v-993h-399v686h-420v-686z
" />
    <glyph glyph-name=".notdef" horiz-adv-x="1228" 
d="M1065 82h-901v1270h901v-1270zM434 1198l166 -332h31l164 332h-361zM328 1112v-790l200 395zM702 717l199 -391v782zM600 567l-166 -331h361l-164 331h-31z" />
    <glyph glyph-name=".null" horiz-adv-x="0" 
 />
    <glyph glyph-name="nonmarkingreturn" horiz-adv-x="682" 
 />
    <glyph glyph-name="space" unicode=" " horiz-adv-x="481" 
 />
    <glyph glyph-name="exclam" unicode="!" horiz-adv-x="679" 
d="M508 522h-338l-47 912h432zM342 -20q-91 0 -153 57.5t-62 148.5q0 88 62.5 145.5t152.5 57.5t152.5 -57.5t62.5 -145.5q0 -91 -62 -148.5t-153 -57.5z" />
    <glyph glyph-name="quotedbl" unicode="&#x22;" horiz-adv-x="849" 
d="M369 932h-308l-20 522h348zM788 932h-307l-20 522h348z" />
    <glyph glyph-name="numbersign" unicode="#" horiz-adv-x="1550" 
d="M483 0h-254l88 358h-245l55 222h246l65 274h-243l53 221h246l88 359h254l-88 -359h233l88 359h254l-88 -359h244l-54 -221h-245l-66 -274h246l-55 -222h-246l-88 -358h-254l88 358h-234zM692 854l-65 -274h233l66 274h-234z" />
    <glyph glyph-name="dollar" unicode="$" horiz-adv-x="1386" 
d="M893 -225h-389v227q-167 36 -281 127.5t-151 239.5l389 77q61 -165 258 -165q87 0 135.5 32.5t48.5 89.5q0 38 -27.5 65.5t-73.5 44t-106 30.5t-126 30.5t-132.5 37t-126.5 56t-106 82.5t-73.5 121.5t-27.5 169.5q0 148 105 256t295 144v219h389v-227q313 -68 391 -347
l-397 -77q-42 145 -207 145q-69 0 -113.5 -32t-44.5 -81q0 -38 27.5 -65.5t73.5 -44.5t106 -31t126 -30t132.5 -36.5t126.5 -56.5t106 -84.5t73.5 -124.5t27.5 -172q0 -155 -110 -262.5t-318 -140.5v-217z" />
    <glyph glyph-name="percent" unicode="%" horiz-adv-x="1845" 
d="M444 707q-182 0 -292.5 106.5t-110.5 267.5q0 159 110.5 266t292.5 107q183 0 294.5 -107t111.5 -266q0 -161 -111.5 -267.5t-294.5 -106.5zM1536 1313l-1047 -1333l-180 141l1047 1333zM444 952q58 0 91.5 36.5t33.5 92.5t-33.5 92.5t-91.5 36.5q-57 0 -89.5 -36.5
t-32.5 -92.5t32.5 -92.5t89.5 -36.5zM1399 -20q-182 0 -293 107t-111 267q0 159 111 266t293 107q183 0 294 -107t111 -266q0 -161 -111 -267.5t-294 -106.5zM1399 225q58 0 91.5 36.5t33.5 92.5q0 55 -33.5 91t-91.5 36q-57 0 -90 -36.5t-33 -90.5q0 -56 33 -92.5t90 -36.5
z" />
    <glyph glyph-name="ampersand" unicode="&#x26;" horiz-adv-x="1443" 
d="M1352 287h51v-287h-156q-131 0 -231 96l-23 23q-174 -139 -409 -139t-363.5 103t-128.5 286q0 125 67.5 217.5t184.5 173.5q-149 189 -149 344q0 158 113 254t317 96q196 0 310 -96t114 -248q0 -56 -20 -107.5t-58.5 -97t-79 -81t-96.5 -76.5l176 -168l153 233l258 -166
l-188 -287l12 -10q39 -37 68 -50t78 -13zM512 1098q0 -35 18 -68.5t80 -99.5q121 86 121 172q0 40 -29.5 68t-80.5 28q-53 0 -81 -28.5t-28 -71.5zM612 276q98 0 166 52l-239 231q-78 -78 -78 -151q0 -59 42 -95.5t109 -36.5z" />
    <glyph glyph-name="quotesingle" unicode="'" horiz-adv-x="430" 
d="M369 932h-308l-20 522h348z" />
    <glyph glyph-name="parenleft" unicode="(" horiz-adv-x="747" 
d="M717 -287l-277 -153q-399 417 -399 983q0 565 399 983l277 -154q-287 -396 -287 -829q0 -434 287 -830z" />
    <glyph glyph-name="parenright" unicode=")" horiz-adv-x="747" 
d="M307 -440l-276 153q286 394 286 830q0 435 -286 829l276 154q400 -419 400 -983q0 -565 -400 -983z" />
    <glyph glyph-name="asterisk" unicode="*" horiz-adv-x="821" 
d="M410 991l-129 -223l-140 102l170 193l-250 55l54 164l233 -102l-24 254h174l-27 -254l238 102l51 -164l-252 -55l170 -193l-139 -102z" />
    <glyph glyph-name="plus" unicode="+" 
d="M676 160h-307v297h-308v317h308v297h307v-297h307v-317h-307v-297z" />
    <glyph glyph-name="comma" unicode="," horiz-adv-x="583" 
d="M532 248l-292 -535l-230 74l168 582z" />
    <glyph glyph-name="hyphen" unicode="-" horiz-adv-x="829" 
d="M778 430h-727v287h727v-287z" />
    <glyph glyph-name="period" unicode="." horiz-adv-x="552" 
d="M276 -20q-91 0 -153 57.5t-62 148.5q0 88 62.5 145.5t152.5 57.5q91 0 153.5 -57.5t62.5 -145.5q0 -91 -62.5 -148.5t-153.5 -57.5z" />
    <glyph glyph-name="slash" unicode="/" horiz-adv-x="1054" 
d="M410 -410h-410l643 1905h412z" />
    <glyph glyph-name="zero" unicode="0" horiz-adv-x="1482" 
d="M741 -20q-158 0 -284.5 53.5t-210.5 150.5t-129 233t-45 300t45 300t129 233t210.5 150.5t284.5 53.5q210 0 362.5 -92.5t230 -258t77.5 -386.5t-77.5 -386.5t-230 -258t-362.5 -92.5zM741 338q122 0 191 98.5t69 280.5t-69 280.5t-191 98.5t-191 -98.5t-69 -280.5
t69 -280.5t191 -98.5z" />
    <glyph glyph-name="one" unicode="1" horiz-adv-x="907" 
d="M768 0h-410v1001h-20l-287 -157v385l393 205h324v-1434z" />
    <glyph glyph-name="two" unicode="2" horiz-adv-x="1280" 
d="M1208 0h-1116v328l414 338q79 65 121 101.5t84.5 82.5t59.5 84.5t17 79.5q0 62 -43.5 97.5t-115.5 35.5q-74 0 -124.5 -39t-70.5 -113l-393 80q40 179 195 279t391 100q264 0 417.5 -117t153.5 -321q0 -84 -23.5 -153t-80 -138.5t-129 -132t-191.5 -150.5l-86 -63v-21
h520v-358z" />
    <glyph glyph-name="three" unicode="3" horiz-adv-x="1310" 
d="M1167 1106l-297 -254q173 -28 271 -137.5t98 -276.5q0 -213 -153.5 -335.5t-434.5 -122.5q-249 0 -410.5 100t-199.5 285l395 79q21 -72 77 -107.5t138 -35.5q80 0 129 40.5t49 109.5q0 67 -53 107t-141 40h-232v236l269 231v20h-559v349h1054v-328z" />
    <glyph glyph-name="four" unicode="4" horiz-adv-x="1331" 
d="M1126 0h-409v225h-666v359l635 850h440v-871h174v-338h-174v-225zM717 946l-283 -383h283v383z" />
    <glyph glyph-name="five" unicode="5" horiz-adv-x="1337" 
d="M678 -20q-240 0 -409 99t-208 279l410 84q22 -63 79 -94t128 -31q84 0 136 42.5t52 115.5q0 74 -51.5 117t-134.5 43q-124 0 -197 -86l-354 65l55 820h959v-349h-613l-16 -202h23q115 59 251 59q219 0 353.5 -125t134.5 -342q0 -229 -160.5 -362t-437.5 -133z" />
    <glyph glyph-name="six" unicode="6" horiz-adv-x="1331" 
d="M1073 1413l-332 -420q233 0 386 -135t153 -352q0 -235 -167.5 -380.5t-446.5 -145.5q-269 0 -442 148.5t-173 377.5q0 89 23.5 167.5t61 143t106.5 158.5l338 459h493v-21zM666 317q89 0 146.5 51t57.5 138t-57.5 138.5t-146.5 51.5q-87 0 -146 -53t-59 -137
q0 -87 57.5 -138t147.5 -51z" />
    <glyph glyph-name="seven" unicode="7" horiz-adv-x="1198" 
d="M627 0h-465l502 1034v21h-613v379h1096v-359z" />
    <glyph glyph-name="eight" unicode="8" horiz-adv-x="1331" 
d="M666 -20q-262 0 -428 119.5t-166 316.5q0 110 66 200.5t175 135.5q-91 43 -145.5 124.5t-54.5 176.5q0 184 152 292.5t401 108.5t401 -108.5t152 -292.5q0 -96 -55.5 -177t-147.5 -124q110 -43 177 -135t67 -201q0 -197 -166 -316.5t-428 -119.5zM666 883q61 0 105 33.5
t44 93.5t-44 93.5t-105 33.5t-105.5 -33.5t-44.5 -93.5t44.5 -93.5t105.5 -33.5zM666 297q75 0 129.5 39t54.5 110t-54.5 110.5t-129.5 39.5t-130 -39.5t-55 -110.5t55 -110t130 -39z" />
    <glyph glyph-name="nine" unicode="9" horiz-adv-x="1331" 
d="M666 1454q269 0 441.5 -148.5t172.5 -377.5q0 -130 -43.5 -229.5t-146.5 -239.5l-338 -459h-494v20l332 420q-233 0 -386 135.5t-153 352.5q0 235 168 380.5t447 145.5zM461 928q0 -87 58 -139t147 -52q87 0 145.5 53.5t58.5 137.5q0 87 -57 137.5t-147 50.5
q-89 0 -147 -50.5t-58 -137.5z" />
    <glyph glyph-name="colon" unicode=":" horiz-adv-x="552" 
d="M276 655q-91 0 -153 58t-62 149q0 88 62.5 145.5t152.5 57.5q91 0 153.5 -57.5t62.5 -145.5q0 -91 -62.5 -149t-153.5 -58zM276 -20q-91 0 -153 57.5t-62 148.5q0 88 62.5 145.5t152.5 57.5q91 0 153.5 -57.5t62.5 -145.5q0 -91 -62.5 -148.5t-153.5 -57.5z" />
    <glyph glyph-name="semicolon" unicode=";" horiz-adv-x="583" 
d="M293 655q-91 0 -153 58t-62 149q0 88 62.5 145.5t152.5 57.5t152.5 -57.5t62.5 -145.5q0 -91 -62 -149t-153 -58zM532 248l-292 -535l-230 74l168 582z" />
    <glyph glyph-name="less" unicode="&#x3c;" 
d="M983 461v-328l-922 301v361l922 301v-328l-621 -154z" />
    <glyph glyph-name="equal" unicode="=" 
d="M983 696h-922v277h922v-277zM983 256h-922v276h922v-276z" />
    <glyph glyph-name="greater" unicode="&#x3e;" 
d="M983 434l-922 -301v328l621 153l-621 154v328l922 -301v-361z" />
    <glyph glyph-name="question" unicode="?" horiz-adv-x="1230" 
d="M811 522h-338v21q0 75 22 137.5t55 101.5t71.5 75t71.5 61t55 56.5t22 63.5q0 57 -40.5 88t-106.5 31q-78 0 -139.5 -43.5t-82.5 -118.5l-360 72q36 183 193.5 285t388.5 102q257 0 407 -101t150 -284q0 -60 -20.5 -112.5t-53 -91t-71.5 -73t-78.5 -64t-72 -57.5t-53 -61
t-20.5 -67v-21zM643 -20q-91 0 -153 57.5t-62 148.5q0 88 62.5 145.5t152.5 57.5t152.5 -57.5t62.5 -145.5q0 -91 -62 -148.5t-153 -57.5z" />
    <glyph glyph-name="at" unicode="@" horiz-adv-x="1902" 
d="M1165 -346h-223q-183 0 -344 65t-276.5 178t-182.5 273t-67 342q0 183 67 343t183 272.5t277 177.5t343 65q193 0 359 -61t282.5 -168t182 -257t65.5 -323q0 -204 -98.5 -325t-278.5 -121q-97 0 -169.5 37t-108.5 110h-23q-50 -80 -116.5 -113.5t-155.5 -33.5
q-151 0 -243.5 108t-92.5 289q0 182 91.5 290.5t244.5 108.5q149 0 233 -116h23l14 102h197v-405q0 -73 27.5 -112.5t78.5 -39.5q131 0 131 221q0 257 -179 420.5t-464 163.5q-173 0 -315.5 -80t-226 -225.5t-83.5 -327.5q0 -181 83 -326.5t225.5 -226t316.5 -80.5h223v-225
zM946 340q64 0 99.5 44.5t35.5 127.5q0 82 -36 128t-99 46q-64 0 -99.5 -46t-35.5 -128q0 -83 35 -127.5t100 -44.5z" />
    <glyph glyph-name="A" unicode="A" horiz-adv-x="1525" 
d="M1501 0h-428l-72 256h-487l-72 -256h-417l471 1434h534zM748 1096l-148 -533h315l-147 533h-20z" />
    <glyph glyph-name="B" unicode="B" horiz-adv-x="1435" 
d="M829 0h-700v1434h668q241 0 371 -93.5t130 -285.5q0 -115 -50.5 -193.5t-139.5 -118.5v-20q121 -38 186.5 -120.5t65.5 -209.5q0 -393 -531 -393zM539 1135v-279h209q71 0 111 36.5t40 102.5t-40 103t-111 37h-209zM539 598v-299h247q74 0 119 40t45 110t-45 109.5
t-119 39.5h-247z" />
    <glyph glyph-name="C" unicode="C" horiz-adv-x="1527" 
d="M784 -20q-332 0 -522 202t-190 535t190 535t522 202q275 0 446 -124.5t224 -362.5l-405 -82q-26 114 -96.5 174.5t-168.5 60.5q-140 0 -221.5 -107t-81.5 -296t81.5 -296.5t221.5 -107.5q101 0 175.5 62.5t101.5 173.5l405 -82q-54 -239 -227.5 -363t-454.5 -124z" />
    <glyph glyph-name="D" unicode="D" horiz-adv-x="1521" 
d="M702 0h-573v1434h573q175 0 316 -52t235.5 -146t145.5 -226.5t51 -292.5t-51 -292.5t-145.5 -226.5t-235.5 -146t-316 -52zM539 1096v-758h163q159 0 248.5 100t89.5 279t-89.5 279t-248.5 100h-163z" />
    <glyph glyph-name="E" unicode="E" horiz-adv-x="1327" 
d="M1235 0h-1106v1434h1106v-328h-696v-232h614v-274h-614v-272h696v-328z" />
    <glyph glyph-name="F" unicode="F" horiz-adv-x="1296" 
d="M539 0h-410v1434h1096v-328h-686v-272h624v-297h-624v-537z" />
    <glyph glyph-name="G" unicode="G" horiz-adv-x="1558" 
d="M813 -20q-174 0 -314 53.5t-233.5 150.5t-143.5 233t-50 300q0 333 192 535t527 202q275 0 442 -110.5t223 -325.5l-407 -84q-29 99 -98 145.5t-160 46.5q-139 0 -224.5 -109.5t-85.5 -299.5q0 -194 90 -302t252 -108q134 0 226 66v184l-246 12v232h635v-578
q-229 -243 -625 -243z" />
    <glyph glyph-name="H" unicode="H" horiz-adv-x="1579" 
d="M539 0h-410v1434h410v-533h501v533h410v-1434h-410v553h-501v-553z" />
    <glyph glyph-name="I" unicode="I" horiz-adv-x="667" 
d="M539 0h-410v1434h410v-1434z" />
    <glyph glyph-name="J" unicode="J" horiz-adv-x="1351" 
d="M625 -20q-78 0 -151 12.5t-146.5 42t-132 74t-103 114.5t-63.5 158l389 78q19 -79 75 -115.5t132 -36.5q87 0 137.5 51.5t50.5 149.5v926h410v-942q0 -239 -154 -375.5t-444 -136.5z" />
    <glyph glyph-name="K" unicode="K" horiz-adv-x="1460" 
d="M539 0h-410v1434h410v-695l413 695h457l-457 -695l478 -739h-472l-419 707v-707z" />
    <glyph glyph-name="L" unicode="L" horiz-adv-x="1224" 
d="M1174 0h-1045v1434h410v-1076h635v-358z" />
    <glyph glyph-name="M" unicode="M" horiz-adv-x="1996" 
d="M508 0h-379v1434h559l309 -1018l310 1018h561v-1434h-400v932h-20l-285 -932h-350l-285 932h-20v-932z" />
    <glyph glyph-name="N" unicode="N" horiz-adv-x="1599" 
d="M528 0h-399v1434h430l502 -838h20q-10 159 -10 354v484h399v-1434h-430l-501 838h-21q10 -159 10 -355v-483z" />
    <glyph glyph-name="O" unicode="O" horiz-adv-x="1576" 
d="M788 -20q-221 0 -384 93t-247.5 259t-84.5 385t84.5 385t247.5 259t384 93t384 -92.5t248 -258.5t85 -386t-85 -386t-248 -258.5t-384 -92.5zM788 317q141 0 224.5 106.5t83.5 293.5t-83.5 293t-224.5 106t-224 -106t-83 -293t83 -293.5t224 -106.5z" />
    <glyph glyph-name="P" unicode="P" horiz-adv-x="1378" 
d="M539 0h-410v1434h623q270 0 422.5 -134t152.5 -368q0 -231 -152 -361.5t-423 -130.5h-213v-440zM539 1106v-348h178q92 0 146.5 45t54.5 129t-54.5 129t-146.5 45h-178z" />
    <glyph glyph-name="Q" unicode="Q" horiz-adv-x="1576" 
d="M1434 -117l-64 -303l-803 148l49 268q-257 51 -400.5 243t-143.5 478q0 219 84.5 385t247.5 259t384 93t384 -92.5t248 -258.5t85 -386q0 -282 -139 -472.5t-387 -244.5l-10 -55zM788 317q141 0 224.5 106.5t83.5 293.5t-83.5 293t-224.5 106t-224 -106t-83 -293
t83 -293.5t224 -106.5z" />
    <glyph glyph-name="R" unicode="R" horiz-adv-x="1419" 
d="M539 0h-410v1434h645q259 0 406 -127.5t147 -360.5q0 -140 -60.5 -242.5t-174.5 -160.5l286 -543h-454l-213 477h-172v-477zM539 1116v-338h194q85 0 135 44.5t50 123.5q0 81 -49.5 125.5t-135.5 44.5h-194z" />
    <glyph glyph-name="S" unicode="S" horiz-adv-x="1386" 
d="M719 -20q-116 0 -220 23.5t-191.5 69.5t-149 122t-86.5 174l389 77q61 -165 258 -165q87 0 135.5 32.5t48.5 89.5q0 38 -27.5 65.5t-73.5 44t-106 30.5t-126 30.5t-132.5 37t-126.5 56t-106 82.5t-73.5 121.5t-27.5 169.5q0 181 153 297.5t421 116.5q241 0 398 -92
t208 -277l-397 -77q-42 145 -207 145q-69 0 -113.5 -32t-44.5 -81q0 -38 27.5 -65.5t73.5 -44.5t106 -31t126 -30t132.5 -36.5t126.5 -56.5t106 -84.5t73.5 -124.5t27.5 -172q0 -185 -157 -300t-445 -115z" />
    <glyph glyph-name="T" unicode="T" horiz-adv-x="1331" 
d="M870 0h-409v1075h-424v359h1257v-359h-424v-1075z" />
    <glyph glyph-name="U" unicode="U" horiz-adv-x="1558" 
d="M780 -20q-140 0 -257 38t-205.5 112.5t-138.5 193t-50 270.5v840h410v-840q0 -121 63.5 -188.5t177.5 -67.5q113 0 176.5 67t63.5 189v840h410v-840q0 -152 -49.5 -270.5t-138 -193t-205.5 -112.5t-257 -38z" />
    <glyph glyph-name="V" unicode="V" horiz-adv-x="1527" 
d="M1020 0h-512l-477 1434h432l295 -1045h20l295 1045h424z" />
    <glyph glyph-name="W" unicode="W" horiz-adv-x="2150" 
d="M872 0h-501l-340 1434h407l191 -1035h20l187 1035h497l187 -1035h18l195 1035h387l-342 -1434h-504l-191 1044h-20z" />
    <glyph glyph-name="X" unicode="X" horiz-adv-x="1536" 
d="M477 0h-438l414 731l-383 703h450l244 -494h20l242 494h440l-383 -707l414 -727h-455l-270 514h-20z" />
    <glyph glyph-name="Y" unicode="Y" horiz-adv-x="1474" 
d="M942 0h-410v510l-501 924h463l237 -516h21l237 516h455l-502 -924v-510z" />
    <glyph glyph-name="Z" unicode="Z" horiz-adv-x="1402" 
d="M1321 0h-1239v328l670 757v21h-639v328h1177v-328l-669 -758v-20h700v-328z" />
    <glyph glyph-name="bracketleft" unicode="[" horiz-adv-x="757" 
d="M707 -430h-584v1946h584v-308h-195v-1331h195v-307z" />
    <glyph glyph-name="backslash" unicode="\" horiz-adv-x="1054" 
d="M1055 -410h-410l-645 1905h412z" />
    <glyph glyph-name="bracketright" unicode="]" horiz-adv-x="757" 
d="M635 1516v-1946h-584v307h195v1331h-195v308h584z" />
    <glyph glyph-name="asciicircum" unicode="^" horiz-adv-x="1024" 
d="M340 788h-299l326 646h286l330 -646h-299l-164 347h-20z" />
    <glyph glyph-name="underscore" unicode="_" horiz-adv-x="849" 
d="M870 -358h-890v256h890v-256z" />
    <glyph glyph-name="grave" unicode="`" horiz-adv-x="714" 
d="M653 1167h-301l-291 349h445z" />
    <glyph glyph-name="a" unicode="a" horiz-adv-x="1239" 
d="M1135 680v-143q0 -357 10 -537h-365l-24 164h-21q-48 -93 -126 -138.5t-197 -45.5q-150 0 -241 84t-91 221q0 313 428 340l242 14v25q0 129 -148 129q-68 0 -110.5 -31.5t-49.5 -89.5l-350 71q25 150 158.5 236t351.5 86q264 0 398.5 -101.5t134.5 -283.5zM575 260
q74 0 124 49.5t51 145.5l-144 -9q-78 -4 -111.5 -28.5t-33.5 -71.5q0 -86 114 -86z" />
    <glyph glyph-name="b" unicode="b" horiz-adv-x="1310" 
d="M848 -20q-208 0 -316 184h-20l-27 -164h-383q11 205 11 557v877h399v-553h20q108 184 316 184q190 0 295.5 -142t105.5 -401t-105.5 -400.5t-295.5 -141.5zM682 297q77 0 122.5 60.5t45.5 164.5t-45.5 165t-122.5 61q-78 0 -124 -61t-46 -165t46 -164.5t124 -60.5z" />
    <glyph glyph-name="c" unicode="c" horiz-adv-x="1204" 
d="M621 -20q-137 0 -245 41.5t-176 115t-103.5 171t-35.5 214.5t35.5 215t103.5 171.5t176 115t245 41.5q205 0 337.5 -95.5t178.5 -275.5l-381 -78q-12 65 -49.5 100.5t-90.5 35.5q-71 0 -113 -62.5t-42 -167.5t42 -167t113 -62q57 0 97 34.5t53 100.5l383 -78
q-51 -180 -186 -275t-342 -95z" />
    <glyph glyph-name="d" unicode="d" horiz-adv-x="1310" 
d="M463 -20q-190 0 -296 142t-106 400t106 400.5t296 142.5q207 0 315 -184h21v553h399v-877q0 -371 10 -557h-383l-26 164h-21q-108 -184 -315 -184zM629 297q78 0 124 60.5t46 164.5t-46 165t-124 61q-77 0 -122.5 -61t-45.5 -165t45.5 -164.5t122.5 -60.5z" />
    <glyph glyph-name="e" unicode="e" horiz-adv-x="1216" 
d="M1155 557q0 -73 -6 -123h-707q27 -190 189 -190q111 0 162 114l352 -69q-62 -155 -187.5 -232t-334.5 -77q-137 0 -245 41.5t-176.5 114.5t-104.5 171.5t-36 214.5q0 240 144.5 391.5t412.5 151.5q127 0 230 -40.5t169.5 -110.5t102 -161.5t35.5 -195.5zM618 801
q-139 0 -172 -170h340q-14 87 -58.5 128.5t-109.5 41.5z" />
    <glyph glyph-name="f" unicode="f" horiz-adv-x="950" 
d="M635 0h-399v686h-195v307h195v49q0 412 415 412q89 0 157 -13.5t142 -47.5l-76 -265q-59 29 -120 29q-119 0 -119 -121v-43h256v-307h-256v-686z" />
    <glyph glyph-name="g" unicode="g" horiz-adv-x="1310" 
d="M639 -430q-221 0 -365 78.5t-182 228.5l363 74q35 -105 180 -105q164 0 164 172v207h-21q-108 -184 -315 -184q-186 0 -294 132t-108 370q0 247 108.5 384.5t293.5 137.5q207 0 315 -184h21l26 163h383q-10 -186 -10 -557v-475q0 -205 -138.5 -323.5t-420.5 -118.5z
M629 338q77 0 123.5 56t46.5 149t-46.5 149t-123.5 56t-122.5 -55.5t-45.5 -149.5t45.5 -149.5t122.5 -55.5z" />
    <glyph glyph-name="h" unicode="h" horiz-adv-x="1341" 
d="M885 1065q167 0 260.5 -107.5t93.5 -306.5v-651h-399v543q0 89 -39 136.5t-111 47.5q-83 0 -130.5 -63t-47.5 -166v-498h-399v1434h399v-308l-10 -245h28q135 184 355 184z" />
    <glyph glyph-name="i" unicode="i" horiz-adv-x="624" 
d="M313 1147q-97 0 -163 61.5t-66 153.5t66 153.5t163 61.5t164.5 -61.5t67.5 -153.5t-67.5 -153.5t-164.5 -61.5zM512 0h-399v1044h399v-1044z" />
    <glyph glyph-name="j" unicode="j" horiz-adv-x="706" 
d="M395 1147q-97 0 -163 61.5t-66 153.5t66 153.5t163 61.5t164.5 -61.5t67.5 -153.5t-67.5 -153.5t-164.5 -61.5zM190 -430q-179 0 -303 59l84 289q45 -22 105 -22q53 0 86 30t33 92v1026h399v-1046q0 -208 -102 -318t-302 -110z" />
    <glyph glyph-name="k" unicode="k" horiz-adv-x="1282" 
d="M512 0h-399v1434h399v-881l279 491h440l-322 -499l342 -545h-458l-281 516v-516z" />
    <glyph glyph-name="l" unicode="l" horiz-adv-x="624" 
d="M512 0h-399v1434h399v-1434z" />
    <glyph glyph-name="m" unicode="m" horiz-adv-x="1966" 
d="M512 0h-399v487q0 352 -11 557h383l23 -153h20q122 174 336 174q106 0 184 -53t121 -152h21q114 205 350 205q156 0 240 -98.5t84 -280.5v-686h-400v575q0 75 -33 113.5t-94 38.5q-70 0 -109.5 -50.5t-39.5 -137.5v-539h-400v575q0 75 -32.5 113.5t-93.5 38.5
q-70 0 -110 -50.5t-40 -137.5v-539z" />
    <glyph glyph-name="n" unicode="n" horiz-adv-x="1341" 
d="M512 0h-399v487q0 352 -11 557h383l25 -163h20q138 184 353 184q169 0 262.5 -107.5t93.5 -306.5v-651h-399v543q0 89 -39 136.5t-111 47.5q-83 0 -130.5 -62t-47.5 -165v-500z" />
    <glyph glyph-name="o" unicode="o" horiz-adv-x="1245" 
d="M623 -20q-137 0 -245.5 41.5t-177 115t-104 171.5t-35.5 214t35.5 214.5t104 172t177 115t245.5 41.5t245 -41.5t176.5 -115t104 -172t35.5 -214.5t-35.5 -214t-104 -171.5t-176.5 -115t-245 -41.5zM623 297q74 0 117.5 60.5t43.5 164.5t-43.5 165t-117.5 61t-118 -61
t-44 -165t44 -164.5t118 -60.5z" />
    <glyph glyph-name="p" unicode="p" horiz-adv-x="1310" 
d="M512 -410h-399v897q0 352 -11 557h383l27 -163h20q108 184 316 184q190 0 295.5 -142t105.5 -401t-105.5 -400.5t-295.5 -141.5q-208 0 -316 184h-20v-574zM682 297q77 0 122.5 60.5t45.5 164.5t-45.5 165t-122.5 61q-78 0 -124 -61t-46 -165t46 -164.5t124 -60.5z" />
    <glyph glyph-name="q" unicode="q" horiz-adv-x="1310" 
d="M1198 -410h-399v574h-21q-108 -184 -315 -184q-190 0 -296 142t-106 400t106 400.5t296 142.5q207 0 315 -184h21l26 163h383q-10 -186 -10 -557v-897zM629 297q78 0 124 60.5t46 164.5t-46 165t-124 61q-77 0 -122.5 -61t-45.5 -165t45.5 -164.5t122.5 -60.5z" />
    <glyph glyph-name="r" unicode="r" horiz-adv-x="911" 
d="M823 1065q35 0 58 -2v-401q-33 4 -80 4q-62 0 -112 -16t-91 -51t-63.5 -98t-22.5 -149v-352h-399v487q0 352 -11 557h383l33 -225h29q37 123 108.5 184.5t167.5 61.5z" />
    <glyph glyph-name="s" unicode="s" horiz-adv-x="1132" 
d="M590 -20q-218 0 -354.5 70t-174.5 208l347 70q31 -113 172 -113q53 0 82.5 21t29.5 57q0 28 -26 47t-68.5 29.5t-97 23.5t-111.5 26t-111.5 40t-97 62.5t-68.5 96.5t-26 140q0 135 124.5 221t344.5 86q196 0 322 -65t163 -197l-346 -70q-25 96 -133 96q-43 0 -69.5 -18
t-26.5 -49t33.5 -51t87 -32t118 -25.5t129 -38t118 -60.5t87 -102t33.5 -156q0 -142 -126.5 -229.5t-354.5 -87.5z" />
    <glyph glyph-name="t" unicode="t" horiz-adv-x="983" 
d="M637 -20q-190 0 -295.5 100t-105.5 311v346h-195v307h209l49 308h336v-308h248v-307h-248v-321q0 -119 108 -119q51 0 99 25l80 -275q-131 -67 -285 -67z" />
    <glyph glyph-name="u" unicode="u" horiz-adv-x="1341" 
d="M459 -20q-169 0 -263 107t-94 306v651h400v-542q0 -89 38.5 -137t110.5 -48q83 0 130.5 62.5t47.5 165.5v499h400v-487q0 -371 10 -557h-383l-25 164h-20q-138 -184 -352 -184z" />
    <glyph glyph-name="v" unicode="v" horiz-adv-x="1216" 
d="M846 0h-475l-346 1044h405l174 -706h21l174 706h393z" />
    <glyph glyph-name="w" unicode="w" horiz-adv-x="1740" 
d="M750 0h-471l-254 1044h387l110 -675h27l98 675h457l98 -675h25l110 675h379l-254 -1044h-471l-108 696h-25z" />
    <glyph glyph-name="x" unicode="x" horiz-adv-x="1243" 
d="M455 0h-416l289 532l-269 512h418l139 -323h21l133 323h414l-266 -512l286 -532h-422l-151 332h-21z" />
    <glyph glyph-name="y" unicode="y" horiz-adv-x="1236" 
d="M709 -410h-424l127 347l-387 1107h407l182 -690h21l180 690h397z" />
    <glyph glyph-name="z" unicode="z" horiz-adv-x="1114" 
d="M1032 0h-950v295l426 424v20h-406v305h910v-294l-426 -424v-21h446v-305z" />
    <glyph glyph-name="braceleft" unicode="{" horiz-adv-x="849" 
d="M799 -430h-191q-197 0 -295 108t-98 297v250q0 80 -41 122t-113 42h-30v307h30q72 0 113 42t41 122v250q0 189 98 297.5t295 108.5h191v-308h-45q-74 0 -112 -40t-38 -134v-254q0 -91 -32.5 -146.5t-108.5 -80.5v-21q76 -24 108.5 -80t32.5 -147v-254q0 -94 38 -134
t112 -40h45v-307z" />
    <glyph glyph-name="bar" unicode="|" horiz-adv-x="778" 
d="M594 -410h-410v1844h410v-1844z" />
    <glyph glyph-name="braceright" unicode="}" horiz-adv-x="849" 
d="M242 -430h-191v307h45q74 0 112 40t38 134v254q0 91 32.5 147t108.5 80v21q-76 25 -108.5 80.5t-32.5 146.5v254q0 94 -38 134t-112 40h-45v308h191q197 0 295 -108.5t98 -297.5v-250q0 -80 40.5 -122t112.5 -42h31v-307h-31q-72 0 -112.5 -42t-40.5 -122v-250
q0 -189 -98 -297t-295 -108z" />
    <glyph glyph-name="asciitilde" unicode="~" 
d="M338 379h-277v143q0 86 22 151.5t59.5 103t81.5 55.5t93 18q51 0 102.5 -22.5t85.5 -49t70 -49t60 -22.5q33 0 52.5 20t19.5 61v62h276v-143q0 -170 -70.5 -249t-185.5 -79q-55 0 -106.5 22.5t-83 49t-66.5 49t-61 22.5q-32 0 -52 -20.5t-20 -61.5v-61z" />
    <glyph glyph-name="uni00A0" unicode="&#xa0;" horiz-adv-x="481" 
 />
    <glyph glyph-name="exclamdown" unicode="&#xa1;" horiz-adv-x="679" 
d="M342 1065q91 0 153 -58t62 -149q0 -88 -62.5 -145.5t-152.5 -57.5t-152.5 57.5t-62.5 145.5q0 91 62 149t153 58zM123 -389l47 911h338l47 -911h-432z" />
    <glyph glyph-name="cent" unicode="&#xa2;" horiz-adv-x="1202" 
d="M813 -225h-389v229q-178 51 -270.5 188.5t-92.5 329.5t92.5 329.5t270.5 188.5v230h389v-230q125 -37 207.5 -125t116.5 -221l-381 -78q-12 65 -49.5 100.5t-90.5 35.5q-71 0 -113 -62.5t-42 -167.5t42 -167t113 -62q57 0 96 34.5t52 100.5l383 -78q-78 -272 -334 -346
v-229z" />
    <glyph glyph-name="sterling" unicode="&#xa3;" horiz-adv-x="1392" 
d="M1122 395l219 -215q-89 -109 -165.5 -154.5t-182.5 -45.5q-76 0 -197 35.5t-198 35.5q-141 0 -369 -82l-168 275q131 94 182 171.5t54 174.5h-225v194h168q-24 47 -36 74.5t-24 74.5t-12 93q0 201 147 314.5t418 113.5q109 0 200 -19.5t168 -61.5t129.5 -113.5
t74.5 -169.5l-375 -76q-34 143 -182 143q-78 0 -124 -39.5t-46 -111.5q0 -37 14 -72t41.5 -81t38.5 -69h286v-194h-260q-13 -51 -57 -103t-135 -127l12 -24q103 53 184 53q58 0 144.5 -36t136.5 -36q85 0 139 78z" />
    <glyph glyph-name="currency" unicode="&#xa4;" horiz-adv-x="1208" 
d="M383 307l-123 -123l-188 189l123 123q-56 106 -56 221t56 221l-123 123l188 188l123 -123q106 56 221 56t221 -56l123 123l189 -188l-123 -123q55 -104 55 -221t-55 -221l123 -123l-189 -189l-123 123q-104 -55 -221 -55t-221 55zM604 504q87 0 148 62.5t61 150.5
t-61 150.5t-148 62.5t-148 -62.5t-61 -150.5t61 -150.5t148 -62.5z" />
    <glyph glyph-name="yen" unicode="&#xa5;" horiz-adv-x="1474" 
d="M942 0h-410v174h-337v195h337v123h-337v194h241l-405 748h463l237 -516h21l237 516h455l-406 -748h242v-194h-338v-123h338v-195h-338v-174z" />
    <glyph glyph-name="brokenbar" unicode="&#xa6;" horiz-adv-x="778" 
d="M594 655h-410v779h410v-779zM594 -410h-410v779h410v-779z" />
    <glyph glyph-name="section" unicode="&#xa7;" horiz-adv-x="1128" 
d="M582 -205q-220 0 -348.5 70t-172.5 221l359 74q35 -121 162 -121q106 0 106 74q0 33 -33.5 59t-87 45t-118 38.5t-129 46.5t-118 62t-87 92.5t-33.5 131.5q0 70 48.5 128.5t139.5 96.5v21q-91 43 -139.5 112t-48.5 180q0 150 127.5 239t345.5 89q200 0 321 -64.5
t164 -203.5l-352 -74q-24 98 -133 98q-45 0 -69.5 -16.5t-24.5 -46.5q0 -33 33.5 -58.5t87 -44t118 -37.5t129 -46t118 -62.5t87 -93.5t33.5 -133q0 -70 -48.5 -129t-139.5 -97v-20q92 -43 140 -113t48 -180q0 -156 -129 -247t-356 -91zM610 524q59 10 90 34.5t31 53.5
q0 43 -42.5 68t-127.5 49q-60 -10 -90.5 -34t-30.5 -54q0 -43 43.5 -69t126.5 -48z" />
    <glyph glyph-name="dieresis" unicode="&#xa8;" horiz-adv-x="1032" 
d="M266 1157q-88 0 -146.5 56t-58.5 139t58.5 138.5t146.5 55.5t146.5 -55.5t58.5 -138.5t-58.5 -139t-146.5 -56zM766 1157q-88 0 -146.5 56t-58.5 139t58.5 138.5t146.5 55.5t146.5 -55.5t58.5 -138.5t-58.5 -139t-146.5 -56z" />
    <glyph glyph-name="copyright" unicode="&#xa9;" horiz-adv-x="1525" 
d="M762 -20q-209 0 -375 99t-256 267t-90 371q0 150 53 285t146.5 235t229 158.5t292.5 58.5q209 0 375.5 -99.5t257 -267.5t90.5 -370q0 -204 -90.5 -372t-257 -266.5t-375.5 -98.5zM762 139q161 0 288.5 77.5t196 209t68.5 291.5q0 159 -68.5 291t-196 210t-288.5 78
t-288 -78.5t-195 -210.5t-68 -290q0 -161 68 -292t195 -208.5t288 -77.5zM774 348q-162 0 -259 101.5t-97 267.5t97 267t259 101q138 0 223 -62t111 -181l-201 -41q-12 56 -46.5 87.5t-86.5 31.5q-68 0 -108.5 -54.5t-40.5 -148.5t40.5 -148.5t108.5 -54.5q52 0 88 31t51 88
l199 -41q-26 -120 -112 -182t-226 -62z" />
    <glyph glyph-name="ordfeminine" unicode="&#xaa;" horiz-adv-x="729" 
d="M248 803q-91 0 -146 49.5t-55 132.5q0 188 254 203l148 8v27q0 80 -93 80q-41 0 -68.5 -20t-33.5 -58l-201 45q13 88 92.5 136t210.5 48q153 0 232.5 -61.5t79.5 -169.5v-84q0 -215 6 -324h-205l-16 111h-13q-47 -123 -192 -123zM332 963q46 0 81.5 35t35.5 96l-89 -7
q-98 -6 -98 -67q0 -57 70 -57z" />
    <glyph glyph-name="guillemotleft" unicode="&#xab;" horiz-adv-x="1409" 
d="M788 133h-391l-366 399l366 400h391l-374 -400zM1358 133h-391l-367 399l367 400h391l-375 -400z" />
    <glyph glyph-name="logicalnot" unicode="&#xac;" 
d="M983 348h-317v236h-605v297h922v-533z" />
    <glyph glyph-name="uni00AD" unicode="&#xad;" horiz-adv-x="829" 
d="M778 430h-727v287h727v-287z" />
    <glyph glyph-name="registered" unicode="&#xae;" horiz-adv-x="1525" 
d="M762 -20q-209 0 -375 99t-256 267t-90 371q0 150 53 285t146.5 235t229 158.5t292.5 58.5q209 0 375.5 -99.5t257 -267.5t90.5 -370q0 -204 -90.5 -372t-257 -266.5t-375.5 -98.5zM762 139q161 0 288.5 77.5t196 209t68.5 291.5q0 159 -68.5 291t-196 210t-288.5 78
t-288 -78.5t-195 -210.5t-68 -290q0 -161 68 -292t195 -208.5t288 -77.5zM686 358h-201v717h326q128 0 202 -62t74 -177q0 -140 -118 -197v-18l143 -263h-229l-115 248h-82v-248zM686 918v-166h109q40 0 66 23t26 61t-25.5 60t-66.5 22h-109z" />
    <glyph glyph-name="macron" unicode="&#xaf;" horiz-adv-x="798" 
d="M737 1219h-676v256h676v-256z" />
    <glyph glyph-name="degree" unicode="&#xb0;" horiz-adv-x="819" 
d="M410 758q-173 0 -276 99.5t-103 248.5t103 248.5t276 99.5q174 0 276 -99t102 -249t-102 -249t-276 -99zM410 963q60 0 96.5 41t36.5 102q0 64 -36 103.5t-97 39.5t-97.5 -39.5t-36.5 -103.5q0 -61 37 -102t97 -41z" />
    <glyph glyph-name="plusminus" unicode="&#xb1;" 
d="M670 430h-297v229h-312v297h312v242h297v-242h313v-297h-313v-229zM983 31h-922v307h922v-307z" />
    <glyph glyph-name="uni00B2" unicode="&#xb2;" horiz-adv-x="675" 
d="M635 922h-578v186l207 156q135 100 135 157q0 22 -16.5 35.5t-42.5 13.5q-62 0 -84 -61l-225 47q20 93 102 143t203 50q140 0 219.5 -60t79.5 -166q0 -79 -48 -137t-147 -125l-32 -22v-13h227v-204z" />
    <glyph glyph-name="uni00B3" unicode="&#xb3;" horiz-adv-x="716" 
d="M629 1450l-150 -100q88 -12 137.5 -67t49.5 -140q0 -108 -79 -170t-227 -62q-132 0 -217 52t-102 153l233 45q13 -65 86 -65q32 0 51 15t19 40q0 27 -20.5 43t-57.5 16h-125v121l133 90v13h-288v204h557v-188z" />
    <glyph glyph-name="acute" unicode="&#xb4;" horiz-adv-x="714" 
d="M362 1167h-301l148 349h444z" />
    <glyph glyph-name="uni00B5" unicode="&#xb5;" horiz-adv-x="1382" 
d="M492 -410h-390v1454h400v-542q0 -89 38.5 -137t110.5 -48q83 0 130.5 63.5t47.5 166.5v497h400v-610q0 -62 23 -89.5t71 -27.5h29v-317h-148q-109 0 -175.5 41t-94.5 139h-21q-35 -105 -102.5 -152.5t-144.5 -47.5q-116 0 -181 88h-20l27 -344v-134z" />
    <glyph glyph-name="paragraph" unicode="&#xb6;" horiz-adv-x="1730" 
d="M942 -410h-358v779h-109q-69 0 -130 16t-118 55t-97.5 98t-64.5 152t-24 211t24 211t64.5 152.5t97.5 98.5t118 55t130 16h1184v-369h-133v-1475h-389v1475h-195v-1475z" />
    <glyph glyph-name="periodcentered" unicode="&#xb7;" horiz-adv-x="552" 
d="M276 338q-91 0 -153 58t-62 149q0 88 62.5 145.5t152.5 57.5q91 0 153.5 -57.5t62.5 -145.5q0 -91 -62.5 -149t-153.5 -58z" />
    <glyph glyph-name="cedilla" unicode="&#xb8;" horiz-adv-x="729" 
d="M461 10l-29 -82q105 0 170.5 -56.5t65.5 -156.5q0 -105 -81.5 -171t-226.5 -66q-170 0 -299 94l101 158q90 -68 180 -68t90 57q0 56 -80 56q-42 0 -82 -15l-47 70l62 180h176z" />
    <glyph glyph-name="uni00B9" unicode="&#xb9;" horiz-adv-x="507" 
d="M426 922h-236v456h-10l-139 -73v233l203 100h182v-716z" />
    <glyph glyph-name="ordmasculine" unicode="&#xba;" horiz-adv-x="739" 
d="M369 803q-159 0 -245.5 91.5t-86.5 233.5t86.5 234t245.5 92q160 0 246.5 -92t86.5 -234t-86 -233.5t-247 -91.5zM369 985q48 0 77 39t29 104q0 66 -29 105t-77 39q-46 0 -75.5 -39.5t-29.5 -104.5t29.5 -104t75.5 -39z" />
    <glyph glyph-name="guillemotright" unicode="&#xbb;" horiz-adv-x="1409" 
d="M809 532l-367 -399h-391l375 399l-375 400h391zM1378 532l-366 -399h-391l374 399l-374 400h391z" />
    <glyph glyph-name="onequarter" unicode="&#xbc;" horiz-adv-x="1556" 
d="M426 717h-236v457h-10l-139 -74v233l203 101h182v-717zM401 0h-241l911 1434h244zM1434 0h-236v113h-324v198l306 406h254v-420h82v-184h-82v-113zM1198 457l-123 -160h123v160z" />
    <glyph glyph-name="onehalf" unicode="&#xbd;" horiz-adv-x="1601" 
d="M426 717h-236v457h-10l-139 -74v233l203 101h182v-717zM401 0h-241l911 1434h244zM1561 0h-578v186l207 156q135 100 135 158q0 22 -16.5 35.5t-42.5 13.5q-62 0 -84 -62l-226 48q20 93 102 142.5t204 49.5q140 0 219.5 -59.5t79.5 -165.5q0 -79 -48 -137t-147 -125
l-33 -23v-12h228v-205z" />
    <glyph glyph-name="threequarters" unicode="&#xbe;" horiz-adv-x="1744" 
d="M666 938q0 -108 -79 -169.5t-227 -61.5q-132 0 -217 51.5t-102 152.5l233 45q13 -65 86 -65q32 0 51 15t19 40q0 27 -20.5 43.5t-57.5 16.5h-125v120l133 91v12h-288v205h557v-189l-150 -100q88 -12 137.5 -67t49.5 -140zM348 0l912 1434h243l-913 -1434h-242zM1622 717
v-420h82v-184h-82v-113h-236v113h-323v198l305 406h254zM1264 297h122v160z" />
    <glyph glyph-name="questiondown" unicode="&#xbf;" horiz-adv-x="1230" 
d="M588 1065q91 0 153 -58t62 -149q0 -88 -62.5 -145.5t-152.5 -57.5t-152.5 57.5t-62.5 145.5q0 91 62 149t153 58zM420 522h338v-20q0 -65 -16.5 -120t-42.5 -93.5t-57.5 -71t-63.5 -58t-58 -49t-42.5 -50t-16.5 -54.5q0 -57 40.5 -88t106.5 -31q78 0 139 43.5t82 118.5
l361 -72q-36 -183 -193.5 -285t-388.5 -102q-257 0 -407 101t-150 284q0 60 20.5 112.5t53 91t71.5 73t78.5 64.5t72 58t53 61t20.5 67v20z" />
    <glyph glyph-name="Agrave" unicode="&#xc0;" horiz-adv-x="1525" 
d="M766 1905l147 -349h-301l-290 349h444zM1501 0h-428l-72 256h-487l-72 -256h-417l471 1434h534zM748 1096l-148 -533h315l-147 533h-20z" />
    <glyph glyph-name="Aacute" unicode="&#xc1;" horiz-adv-x="1525" 
d="M762 1905h444l-291 -349h-301zM1501 0h-428l-72 256h-487l-72 -256h-417l471 1434h534zM748 1096l-148 -533h315l-147 533h-20z" />
    <glyph glyph-name="Acircumflex" unicode="&#xc2;" horiz-adv-x="1525" 
d="M864 1556l-104 177l-105 -177h-329l274 349h328l274 -349h-338zM1501 0h-428l-72 256h-487l-72 -256h-417l471 1434h534zM748 1096l-148 -533h315l-147 533h-20z" />
    <glyph glyph-name="Atilde" unicode="&#xc3;" horiz-adv-x="1525" 
d="M653 1659q-69 0 -69 -113h-195v131q0 109 53 173.5t142 64.5q45 0 89 -17.5t73.5 -39t64 -39t61.5 -17.5q70 0 70 113h195v-135q0 -110 -51.5 -172t-143.5 -62q-46 0 -90.5 17.5t-73.5 39t-63.5 39t-61.5 17.5zM1501 0h-428l-72 256h-487l-72 -256h-417l471 1434h534z
M748 1096l-148 -533h315l-147 533h-20z" />
    <glyph glyph-name="Adieresis" unicode="&#xc4;" horiz-adv-x="1525" 
d="M514 1546q-88 0 -146.5 56t-58.5 139t58.5 138.5t146.5 55.5t146.5 -55.5t58.5 -138.5t-58.5 -139t-146.5 -56zM1014 1546q-88 0 -146.5 56t-58.5 139t58.5 138.5t146.5 55.5t146.5 -55.5t58.5 -138.5t-58.5 -139t-146.5 -56zM1501 0h-428l-72 256h-487l-72 -256h-417
l471 1434h534zM748 1096l-148 -533h315l-147 533h-20z" />
    <glyph glyph-name="Aring" unicode="&#xc5;" horiz-adv-x="1525" 
d="M764 1505q-126 0 -206.5 72t-80.5 184t80.5 184t206.5 72t206.5 -72t80.5 -184t-80.5 -184t-206.5 -72zM764 1853q-42 0 -67 -26t-25 -66t25 -66t67 -26t67 26t25 66t-25 66t-67 26zM1501 0h-428l-72 256h-487l-72 -256h-417l471 1434h534zM748 1096l-148 -533h315
l-147 533h-20z" />
    <glyph glyph-name="AE" unicode="&#xc6;" horiz-adv-x="2123" 
d="M459 0h-434l714 1434h1293v-328h-584v-232h502v-274h-502v-272h584v-328h-983v256h-474zM965 1106l-248 -543h332v543h-84z" />
    <glyph glyph-name="Ccedilla" unicode="&#xc7;" horiz-adv-x="1527" 
d="M1061 549l405 -82q-49 -218 -198 -340.5t-389 -142.5l-19 -56q105 0 170.5 -56.5t65.5 -156.5q0 -105 -81.5 -171t-226.5 -66q-170 0 -299 94l101 158q90 -68 180 -68t90 57q0 56 -80 56q-42 0 -82 -15l-47 70l51 154q-295 25 -462.5 223t-167.5 510q0 333 190 535
t522 202q275 0 446 -124.5t224 -362.5l-405 -82q-26 114 -96.5 174.5t-168.5 60.5q-140 0 -221.5 -107t-81.5 -296t81.5 -296.5t221.5 -107.5q101 0 175.5 62.5t101.5 173.5z" />
    <glyph glyph-name="Egrave" unicode="&#xc8;" horiz-adv-x="1327" 
d="M842 1556h-301l-291 349h444zM1235 0h-1106v1434h1106v-328h-696v-232h614v-274h-614v-272h696v-328z" />
    <glyph glyph-name="Eacute" unicode="&#xc9;" horiz-adv-x="1327" 
d="M844 1556h-301l147 349h445zM1235 0h-1106v1434h1106v-328h-696v-232h614v-274h-614v-272h696v-328z" />
    <glyph glyph-name="Ecircumflex" unicode="&#xca;" horiz-adv-x="1327" 
d="M584 1556h-330l274 349h328l274 -349h-337l-105 177zM1235 0h-1106v1434h1106v-328h-696v-232h614v-274h-614v-272h696v-328z" />
    <glyph glyph-name="Edieresis" unicode="&#xcb;" horiz-adv-x="1327" 
d="M442 1546q-88 0 -146 56t-58 139t58 138.5t146 55.5t146.5 -55.5t58.5 -138.5t-58.5 -139t-146.5 -56zM942 1546q-88 0 -146.5 56t-58.5 139t58.5 138.5t146.5 55.5t146.5 -55.5t58.5 -138.5t-58.5 -139t-146.5 -56zM1235 0h-1106v1434h1106v-328h-696v-232h614v-274
h-614v-272h696v-328z" />
    <glyph glyph-name="Igrave" unicode="&#xcc;" horiz-adv-x="667" 
d="M483 1556h-301l-291 349h445zM539 0h-410v1434h410v-1434z" />
    <glyph glyph-name="Iacute" unicode="&#xcd;" horiz-adv-x="667" 
d="M485 1556h-301l148 349h444zM539 0h-410v1434h410v-1434z" />
    <glyph glyph-name="Icircumflex" unicode="&#xce;" horiz-adv-x="667" 
d="M225 1556h-329l274 349h328l274 -349h-338l-104 177zM539 0h-410v1434h410v-1434z" />
    <glyph glyph-name="Idieresis" unicode="&#xcf;" horiz-adv-x="667" 
d="M121 1546q-78 0 -130 53.5t-52 141.5q0 87 52 140.5t130 53.5t130 -53.5t52 -140.5q0 -88 -52 -141.5t-130 -53.5zM553 1546q-80 0 -134 54t-54 141t54 140.5t134 53.5q77 0 129.5 -53.5t52.5 -140.5t-52.5 -141t-129.5 -54zM539 0h-410v1434h410v-1434z" />
    <glyph glyph-name="Eth" unicode="&#xd0;" horiz-adv-x="1607" 
d="M215 1434h573q175 0 316 -52t235.5 -146t145.5 -226.5t51 -292.5t-51 -292.5t-145.5 -226.5t-235.5 -146t-316 -52h-573v614h-205v205h205v615zM625 338h163q159 0 248.5 100t89.5 279t-89.5 279t-248.5 100h-163v-277h297v-205h-297v-276z" />
    <glyph glyph-name="Ntilde" unicode="&#xd1;" horiz-adv-x="1599" 
d="M621 1546h-195v131q0 109 53 173.5t142 64.5q45 0 89 -17.5t73.5 -39t64 -39t61.5 -17.5q70 0 70 113h195v-135q0 -110 -51.5 -172t-143.5 -62q-46 0 -90.5 17.5t-73.5 39t-63.5 39t-61.5 17.5q-69 0 -69 -113zM528 0h-399v1434h430l502 -838h20q-10 159 -10 354v484h399
v-1434h-430l-501 838h-21q10 -159 10 -355v-483z" />
    <glyph glyph-name="Ograve" unicode="&#xd2;" horiz-adv-x="1576" 
d="M938 1556h-301l-291 349h445zM788 -20q-221 0 -384 93t-247.5 259t-84.5 385t84.5 385t247.5 259t384 93t384 -92.5t248 -258.5t85 -386t-85 -386t-248 -258.5t-384 -92.5zM788 317q141 0 224.5 106.5t83.5 293.5t-83.5 293t-224.5 106t-224 -106t-83 -293t83 -293.5
t224 -106.5z" />
    <glyph glyph-name="Oacute" unicode="&#xd3;" horiz-adv-x="1576" 
d="M940 1556h-301l147 349h445zM788 -20q-221 0 -384 93t-247.5 259t-84.5 385t84.5 385t247.5 259t384 93t384 -92.5t248 -258.5t85 -386t-85 -386t-248 -258.5t-384 -92.5zM788 317q141 0 224.5 106.5t83.5 293.5t-83.5 293t-224.5 106t-224 -106t-83 -293t83 -293.5
t224 -106.5z" />
    <glyph glyph-name="Ocircumflex" unicode="&#xd4;" horiz-adv-x="1576" 
d="M680 1556h-330l275 349h327l275 -349h-338l-105 177zM788 -20q-221 0 -384 93t-247.5 259t-84.5 385t84.5 385t247.5 259t384 93t384 -92.5t248 -258.5t85 -386t-85 -386t-248 -258.5t-384 -92.5zM788 317q141 0 224.5 106.5t83.5 293.5t-83.5 293t-224.5 106t-224 -106
t-83 -293t83 -293.5t224 -106.5z" />
    <glyph glyph-name="Otilde" unicode="&#xd5;" horiz-adv-x="1576" 
d="M608 1546h-194v131q0 109 52.5 173.5t141.5 64.5q57 0 111.5 -28.5t99 -56.5t78.5 -28q70 0 70 113h194v-135q0 -110 -51 -172t-143 -62q-46 0 -90.5 17.5t-73.5 39t-63.5 39t-61.5 17.5q-70 0 -70 -113zM788 -20q-221 0 -384 93t-247.5 259t-84.5 385t84.5 385
t247.5 259t384 93t384 -92.5t248 -258.5t85 -386t-85 -386t-248 -258.5t-384 -92.5zM788 317q141 0 224.5 106.5t83.5 293.5t-83.5 293t-224.5 106t-224 -106t-83 -293t83 -293.5t224 -106.5z" />
    <glyph glyph-name="Odieresis" unicode="&#xd6;" horiz-adv-x="1576" 
d="M539 1546q-88 0 -146.5 56t-58.5 139t58.5 138.5t146.5 55.5t146 -55.5t58 -138.5t-58 -139t-146 -56zM1038 1546q-88 0 -146 56t-58 139t58 138.5t146 55.5t146.5 -55.5t58.5 -138.5t-58.5 -139t-146.5 -56zM788 -20q-221 0 -384 93t-247.5 259t-84.5 385t84.5 385
t247.5 259t384 93t384 -92.5t248 -258.5t85 -386t-85 -386t-248 -258.5t-384 -92.5zM788 317q141 0 224.5 106.5t83.5 293.5t-83.5 293t-224.5 106t-224 -106t-83 -293t83 -293.5t224 -106.5z" />
    <glyph glyph-name="multiply" unicode="&#xd7;" 
d="M520 406l-280 -281l-209 211l278 276l-278 279l209 211l280 -281l283 281l211 -211l-283 -279l281 -276l-211 -211z" />
    <glyph glyph-name="Oslash" unicode="&#xd8;" horiz-adv-x="1576" 
d="M1382 1516l-122 -213q119 -97 182 -247.5t63 -338.5q0 -220 -85 -386t-248 -258.5t-384 -92.5q-147 0 -266 40l-116 -204l-211 102l122 215q-119 97 -182 247t-63 337q0 219 84.5 385t247.5 259t384 93q140 0 265 -39l116 203zM481 717q0 -135 43 -225l350 612
q-40 12 -86 12q-141 0 -224 -106t-83 -293zM788 317q141 0 224.5 106.5t83.5 293.5q0 135 -43 225l-353 -612q44 -13 88 -13z" />
    <glyph glyph-name="Ugrave" unicode="&#xd9;" horiz-adv-x="1558" 
d="M930 1556h-301l-291 349h444zM780 -20q-140 0 -257 38t-205.5 112.5t-138.5 193t-50 270.5v840h410v-840q0 -121 63.5 -188.5t177.5 -67.5q113 0 176.5 67t63.5 189v840h410v-840q0 -152 -49.5 -270.5t-138 -193t-205.5 -112.5t-257 -38z" />
    <glyph glyph-name="Uacute" unicode="&#xda;" horiz-adv-x="1558" 
d="M932 1556h-301l147 349h445zM780 -20q-140 0 -257 38t-205.5 112.5t-138.5 193t-50 270.5v840h410v-840q0 -121 63.5 -188.5t177.5 -67.5q113 0 176.5 67t63.5 189v840h410v-840q0 -152 -49.5 -270.5t-138 -193t-205.5 -112.5t-257 -38z" />
    <glyph glyph-name="Ucircumflex" unicode="&#xdb;" horiz-adv-x="1558" 
d="M672 1556h-330l274 349h328l275 -349h-338l-105 177zM780 -20q-140 0 -257 38t-205.5 112.5t-138.5 193t-50 270.5v840h410v-840q0 -121 63.5 -188.5t177.5 -67.5q113 0 176.5 67t63.5 189v840h410v-840q0 -152 -49.5 -270.5t-138 -193t-205.5 -112.5t-257 -38z" />
    <glyph glyph-name="Udieresis" unicode="&#xdc;" horiz-adv-x="1558" 
d="M530 1546q-88 0 -146 56t-58 139t58 138.5t146 55.5t146.5 -55.5t58.5 -138.5t-58.5 -139t-146.5 -56zM1030 1546q-88 0 -146.5 56t-58.5 139t58.5 138.5t146.5 55.5t146.5 -55.5t58.5 -138.5t-58.5 -139t-146.5 -56zM780 -20q-140 0 -257 38t-205.5 112.5t-138.5 193
t-50 270.5v840h410v-840q0 -121 63.5 -188.5t177.5 -67.5q113 0 176.5 67t63.5 189v840h410v-840q0 -152 -49.5 -270.5t-138 -193t-205.5 -112.5t-257 -38z" />
    <glyph glyph-name="Yacute" unicode="&#xdd;" horiz-adv-x="1474" 
d="M889 1556h-301l147 349h445zM942 0h-410v510l-501 924h463l237 -516h21l237 516h455l-502 -924v-510z" />
    <glyph glyph-name="Thorn" unicode="&#xde;" horiz-adv-x="1378" 
d="M539 0h-410v1434h410v-256h254q250 0 392 -119t142 -342t-142 -342t-392 -119h-254v-256zM539 860v-287h200q85 0 132 37t47 107t-46.5 106.5t-132.5 36.5h-200z" />
    <glyph glyph-name="germandbls" unicode="&#xdf;" horiz-adv-x="1433" 
d="M905 -20q-189 0 -327 63l84 285q74 -31 155 -31q71 0 113.5 37t42.5 106q0 68 -47.5 106t-128.5 38h-111v290h70q68 0 106.5 34.5t38.5 101.5q0 70 -48.5 108.5t-131.5 38.5q-95 0 -152 -55t-57 -166v-936h-399v946q0 243 159.5 375.5t448.5 132.5q268 0 418.5 -107.5
t150.5 -293.5q0 -106 -48.5 -180t-131.5 -113v-21q129 -41 195.5 -122t66.5 -224q0 -64 -16.5 -123t-53 -112.5t-89.5 -92.5t-132 -62t-176 -23z" />
    <glyph glyph-name="agrave" unicode="&#xe0;" horiz-adv-x="1239" 
d="M618 1516l148 -349h-301l-291 349h444zM1135 680v-143q0 -357 10 -537h-365l-24 164h-21q-48 -93 -126 -138.5t-197 -45.5q-150 0 -241 84t-91 221q0 313 428 340l242 14v25q0 129 -148 129q-68 0 -110.5 -31.5t-49.5 -89.5l-350 71q25 150 158.5 236t351.5 86
q264 0 398.5 -101.5t134.5 -283.5zM575 260q74 0 124 49.5t51 145.5l-144 -9q-78 -4 -111.5 -28.5t-33.5 -71.5q0 -86 114 -86z" />
    <glyph glyph-name="aacute" unicode="&#xe1;" horiz-adv-x="1239" 
d="M614 1516h445l-291 -349h-301zM1135 680v-143q0 -357 10 -537h-365l-24 164h-21q-48 -93 -126 -138.5t-197 -45.5q-150 0 -241 84t-91 221q0 313 428 340l242 14v25q0 129 -148 129q-68 0 -110.5 -31.5t-49.5 -89.5l-350 71q25 150 158.5 236t351.5 86
q264 0 398.5 -101.5t134.5 -283.5zM575 260q74 0 124 49.5t51 145.5l-144 -9q-78 -4 -111.5 -28.5t-33.5 -71.5q0 -86 114 -86z" />
    <glyph glyph-name="acircumflex" unicode="&#xe2;" horiz-adv-x="1239" 
d="M717 1167l-105 176l-104 -176h-330l275 349h327l275 -349h-338zM1135 680v-143q0 -357 10 -537h-365l-24 164h-21q-48 -93 -126 -138.5t-197 -45.5q-150 0 -241 84t-91 221q0 313 428 340l242 14v25q0 129 -148 129q-68 0 -110.5 -31.5t-49.5 -89.5l-350 71
q25 150 158.5 236t351.5 86q264 0 398.5 -101.5t134.5 -283.5zM575 260q74 0 124 49.5t51 145.5l-144 -9q-78 -4 -111.5 -28.5t-33.5 -71.5q0 -86 114 -86z" />
    <glyph glyph-name="atilde" unicode="&#xe3;" horiz-adv-x="1239" 
d="M506 1270q-70 0 -70 -113h-194v131q0 109 52.5 173.5t141.5 64.5q45 0 89.5 -17.5t73.5 -39t64 -39t62 -17.5q70 0 70 113h194v-135q0 -110 -51 -172t-143 -62q-46 0 -90.5 17.5t-73.5 39t-63.5 39t-61.5 17.5zM1135 680v-143q0 -357 10 -537h-365l-24 164h-21
q-48 -93 -126 -138.5t-197 -45.5q-150 0 -241 84t-91 221q0 313 428 340l242 14v25q0 129 -148 129q-68 0 -110.5 -31.5t-49.5 -89.5l-350 71q25 150 158.5 236t351.5 86q264 0 398.5 -101.5t134.5 -283.5zM575 260q74 0 124 49.5t51 145.5l-144 -9q-78 -4 -111.5 -28.5
t-33.5 -71.5q0 -86 114 -86z" />
    <glyph glyph-name="adieresis" unicode="&#xe4;" horiz-adv-x="1239" 
d="M367 1157q-88 0 -146.5 56t-58.5 139t58.5 138.5t146.5 55.5t146 -55.5t58 -138.5t-58 -139t-146 -56zM866 1157q-88 0 -146 56t-58 139t58 138.5t146 55.5t146.5 -55.5t58.5 -138.5t-58.5 -139t-146.5 -56zM1135 680v-143q0 -357 10 -537h-365l-24 164h-21
q-48 -93 -126 -138.5t-197 -45.5q-150 0 -241 84t-91 221q0 313 428 340l242 14v25q0 129 -148 129q-68 0 -110.5 -31.5t-49.5 -89.5l-350 71q25 150 158.5 236t351.5 86q264 0 398.5 -101.5t134.5 -283.5zM575 260q74 0 124 49.5t51 145.5l-144 -9q-78 -4 -111.5 -28.5
t-33.5 -71.5q0 -86 114 -86z" />
    <glyph glyph-name="aring" unicode="&#xe5;" horiz-adv-x="1239" 
d="M616 1116q-126 0 -206 71.5t-80 184.5t80 184.5t206 71.5t206.5 -72t80.5 -184t-80.5 -184t-206.5 -72zM616 1464q-42 0 -67 -26t-25 -66t25 -66t67 -26t67.5 26t25.5 66t-25.5 66t-67.5 26zM1135 680v-143q0 -357 10 -537h-365l-24 164h-21q-48 -93 -126 -138.5
t-197 -45.5q-150 0 -241 84t-91 221q0 313 428 340l242 14v25q0 129 -148 129q-68 0 -110.5 -31.5t-49.5 -89.5l-350 71q25 150 158.5 236t351.5 86q264 0 398.5 -101.5t134.5 -283.5zM575 260q74 0 124 49.5t51 145.5l-144 -9q-78 -4 -111.5 -28.5t-33.5 -71.5
q0 -86 114 -86z" />
    <glyph glyph-name="ae" unicode="&#xe6;" horiz-adv-x="1775" 
d="M1714 555q0 -65 -6 -121h-672q13 -99 57.5 -144.5t110.5 -45.5q108 0 152 116l348 -69q-119 -311 -457 -311q-239 0 -366 157q-50 -73 -152 -115t-237 -42q-197 0 -304.5 90t-107.5 237q0 150 106 237t314 87h235v18q0 70 -42.5 110t-104.5 40q-123 0 -152 -123l-342 69
q27 152 148.5 236t287.5 84q119 0 203.5 -33.5t151.5 -113.5q61 71 151.5 109t192.5 38q121 0 216 -41t152.5 -112.5t87 -162t29.5 -194.5zM1038 631h303q-7 84 -46 127t-97 43t-100.5 -42t-59.5 -128zM571 246q70 0 114 45t50 143h-147q-63 0 -96 -26t-33 -68
q0 -44 29.5 -69t82.5 -25z" />
    <glyph glyph-name="ccedilla" unicode="&#xe7;" horiz-adv-x="1204" 
d="M766 428l383 -78q-44 -159 -156.5 -252.5t-283.5 -113.5l-21 -56q105 0 170.5 -56.5t65.5 -156.5q0 -105 -81.5 -171t-226.5 -66q-170 0 -299 94l101 158q90 -68 180 -68t90 57q0 56 -80 56q-42 0 -82 -15l-47 70l53 154q-154 17 -261.5 92t-158.5 188.5t-51 257.5
q0 117 35.5 215t103.5 171.5t176 115t245 41.5q205 0 337.5 -95.5t178.5 -275.5l-381 -78q-12 65 -49.5 100.5t-90.5 35.5q-71 0 -113 -62.5t-42 -167.5t42 -167t113 -62q57 0 97 34.5t53 100.5z" />
    <glyph glyph-name="egrave" unicode="&#xe8;" horiz-adv-x="1216" 
d="M621 1516l147 -349h-301l-291 349h445zM1155 557q0 -73 -6 -123h-707q27 -190 189 -190q111 0 162 114l352 -69q-62 -155 -187.5 -232t-334.5 -77q-137 0 -245 41.5t-176.5 114.5t-104.5 171.5t-36 214.5q0 240 144.5 391.5t412.5 151.5q127 0 230 -40.5t169.5 -110.5
t102 -161.5t35.5 -195.5zM618 801q-139 0 -172 -170h340q-14 87 -58.5 128.5t-109.5 41.5z" />
    <glyph glyph-name="eacute" unicode="&#xe9;" horiz-adv-x="1216" 
d="M616 1516h445l-291 -349h-301zM1155 557q0 -73 -6 -123h-707q27 -190 189 -190q111 0 162 114l352 -69q-62 -155 -187.5 -232t-334.5 -77q-137 0 -245 41.5t-176.5 114.5t-104.5 171.5t-36 214.5q0 240 144.5 391.5t412.5 151.5q127 0 230 -40.5t169.5 -110.5t102 -161.5
t35.5 -195.5zM618 801q-139 0 -172 -170h340q-14 87 -58.5 128.5t-109.5 41.5z" />
    <glyph glyph-name="ecircumflex" unicode="&#xea;" horiz-adv-x="1216" 
d="M719 1167l-105 176l-104 -176h-330l275 349h327l275 -349h-338zM1155 557q0 -73 -6 -123h-707q27 -190 189 -190q111 0 162 114l352 -69q-62 -155 -187.5 -232t-334.5 -77q-137 0 -245 41.5t-176.5 114.5t-104.5 171.5t-36 214.5q0 240 144.5 391.5t412.5 151.5
q127 0 230 -40.5t169.5 -110.5t102 -161.5t35.5 -195.5zM618 801q-139 0 -172 -170h340q-14 87 -58.5 128.5t-109.5 41.5z" />
    <glyph glyph-name="edieresis" unicode="&#xeb;" horiz-adv-x="1216" 
d="M369 1157q-88 0 -146.5 56t-58.5 139t58.5 138.5t146.5 55.5t146 -55.5t58 -138.5t-58 -139t-146 -56zM868 1157q-88 0 -146 56t-58 139t58 138.5t146 55.5t146.5 -55.5t58.5 -138.5t-58.5 -139t-146.5 -56zM1155 557q0 -73 -6 -123h-707q27 -190 189 -190q111 0 162 114
l352 -69q-62 -155 -187.5 -232t-334.5 -77q-137 0 -245 41.5t-176.5 114.5t-104.5 171.5t-36 214.5q0 240 144.5 391.5t412.5 151.5q127 0 230 -40.5t169.5 -110.5t102 -161.5t35.5 -195.5zM618 801q-139 0 -172 -170h340q-14 87 -58.5 128.5t-109.5 41.5z" />
    <glyph glyph-name="igrave" unicode="&#xec;" horiz-adv-x="624" 
d="M463 1167h-301l-291 349h444zM512 0h-399v1044h399v-1044z" />
    <glyph glyph-name="iacute" unicode="&#xed;" horiz-adv-x="624" 
d="M465 1167h-301l147 349h445zM512 0h-399v1044h399v-1044z" />
    <glyph glyph-name="icircumflex" unicode="&#xee;" horiz-adv-x="624" 
d="M205 1167h-330l275 349h327l275 -349h-338l-105 176zM512 0h-399v1044h399v-1044z" />
    <glyph glyph-name="idieresis" unicode="&#xef;" horiz-adv-x="624" 
d="M100 1157q-78 0 -130 53.5t-52 141.5q0 87 52 140.5t130 53.5t130.5 -53.5t52.5 -140.5t-52.5 -141t-130.5 -54zM532 1157q-80 0 -134 54t-54 141t54 140.5t134 53.5q77 0 130 -53.5t53 -140.5t-53 -141t-130 -54zM512 0h-399v1044h399v-1044z" />
    <glyph glyph-name="eth" unicode="&#xf0;" horiz-adv-x="1189" 
d="M590 -20q-127 0 -228.5 35.5t-166.5 98.5t-99.5 146t-34.5 180q0 188 112.5 314.5t283.5 126.5q68 0 119.5 -15t117.5 -57l29 22q-78 135 -246 218l-184 -134l-121 115l127 92q-113 36 -193 54l201 258q163 -46 281 -103l141 103l119 -115l-105 -76q385 -260 385 -735
q0 -153 -59 -270.5t-182.5 -187.5t-296.5 -70zM590 276q58 0 93.5 43.5t35.5 120.5t-35.5 120.5t-93.5 43.5t-93.5 -43.5t-35.5 -120.5t35.5 -120.5t93.5 -43.5z" />
    <glyph glyph-name="ntilde" unicode="&#xf1;" horiz-adv-x="1341" 
d="M496 1157h-195v131q0 109 53 173.5t142 64.5q45 0 89 -17.5t73.5 -39t64 -39t61.5 -17.5q70 0 70 113h195v-135q0 -110 -51.5 -172t-143.5 -62q-46 0 -90.5 17.5t-73.5 39t-63.5 39t-61.5 17.5q-69 0 -69 -113zM512 0h-399v487q0 352 -11 557h383l25 -163h20
q138 184 353 184q169 0 262.5 -107.5t93.5 -306.5v-651h-399v543q0 89 -39 136.5t-111 47.5q-83 0 -130.5 -62t-47.5 -165v-500z" />
    <glyph glyph-name="ograve" unicode="&#xf2;" horiz-adv-x="1245" 
d="M772 1167h-301l-291 349h445zM623 -20q-137 0 -245.5 41.5t-177 115t-104 171.5t-35.5 214t35.5 214.5t104 172t177 115t245.5 41.5t245 -41.5t176.5 -115t104 -172t35.5 -214.5t-35.5 -214t-104 -171.5t-176.5 -115t-245 -41.5zM623 297q74 0 117.5 60.5t43.5 164.5
t-43.5 165t-117.5 61t-118 -61t-44 -165t44 -164.5t118 -60.5z" />
    <glyph glyph-name="oacute" unicode="&#xf3;" horiz-adv-x="1245" 
d="M774 1167h-301l148 349h444zM623 -20q-137 0 -245.5 41.5t-177 115t-104 171.5t-35.5 214t35.5 214.5t104 172t177 115t245.5 41.5t245 -41.5t176.5 -115t104 -172t35.5 -214.5t-35.5 -214t-104 -171.5t-176.5 -115t-245 -41.5zM623 297q74 0 117.5 60.5t43.5 164.5
t-43.5 165t-117.5 61t-118 -61t-44 -165t44 -164.5t118 -60.5z" />
    <glyph glyph-name="ocircumflex" unicode="&#xf4;" horiz-adv-x="1245" 
d="M514 1167h-330l275 349h327l275 -349h-338l-105 176zM623 -20q-137 0 -245.5 41.5t-177 115t-104 171.5t-35.5 214t35.5 214.5t104 172t177 115t245.5 41.5t245 -41.5t176.5 -115t104 -172t35.5 -214.5t-35.5 -214t-104 -171.5t-176.5 -115t-245 -41.5zM623 297
q74 0 117.5 60.5t43.5 164.5t-43.5 165t-117.5 61t-118 -61t-44 -165t44 -164.5t118 -60.5z" />
    <glyph glyph-name="otilde" unicode="&#xf5;" horiz-adv-x="1245" 
d="M442 1157h-194v131q0 109 52.5 173.5t141.5 64.5q45 0 89.5 -17.5t73.5 -39t64 -39t62 -17.5q70 0 70 113h194v-135q0 -110 -51 -172t-143 -62q-46 0 -90.5 17.5t-73.5 39t-63.5 39t-61.5 17.5q-70 0 -70 -113zM623 -20q-137 0 -245.5 41.5t-177 115t-104 171.5
t-35.5 214t35.5 214.5t104 172t177 115t245.5 41.5t245 -41.5t176.5 -115t104 -172t35.5 -214.5t-35.5 -214t-104 -171.5t-176.5 -115t-245 -41.5zM623 297q74 0 117.5 60.5t43.5 164.5t-43.5 165t-117.5 61t-118 -61t-44 -165t44 -164.5t118 -60.5z" />
    <glyph glyph-name="odieresis" unicode="&#xf6;" horiz-adv-x="1245" 
d="M373 1157q-88 0 -146.5 56t-58.5 139t58.5 138.5t146.5 55.5t146.5 -55.5t58.5 -138.5t-58.5 -139t-146.5 -56zM872 1157q-88 0 -146 56t-58 139t58 138.5t146 55.5t146.5 -55.5t58.5 -138.5t-58.5 -139t-146.5 -56zM623 -20q-137 0 -245.5 41.5t-177 115t-104 171.5
t-35.5 214t35.5 214.5t104 172t177 115t245.5 41.5t245 -41.5t176.5 -115t104 -172t35.5 -214.5t-35.5 -214t-104 -171.5t-176.5 -115t-245 -41.5zM623 297q74 0 117.5 60.5t43.5 164.5t-43.5 165t-117.5 61t-118 -61t-44 -165t44 -164.5t118 -60.5z" />
    <glyph glyph-name="divide" unicode="&#xf7;" 
d="M522 836q-82 0 -138 53t-56 131t56 131t138 53t138.5 -53t56.5 -131q0 -77 -57.5 -130.5t-137.5 -53.5zM983 477h-922v277h922v-277zM522 27q-82 0 -138 53t-56 131t56 131t138 53t138.5 -53t56.5 -131q0 -77 -57.5 -130.5t-137.5 -53.5z" />
    <glyph glyph-name="oslash" unicode="&#xf8;" horiz-adv-x="1241" 
d="M1055 1102l-78 -137q100 -71 151.5 -186t51.5 -257q0 -117 -35 -214.5t-103 -171t-176 -115t-245 -41.5q-111 0 -197 24l-80 -137l-158 76l78 137q-100 71 -151.5 185.5t-51.5 256.5q0 117 35.5 215t103.5 171.5t176 115t245 41.5q104 0 196 -25l78 138zM621 778
q-88 0 -139.5 -69t-51.5 -187q0 -76 25 -137l219 385q-21 8 -53 8zM621 266q88 0 139 69t51 187q0 79 -25 140l-223 -388q24 -8 58 -8z" />
    <glyph glyph-name="ugrave" unicode="&#xf9;" horiz-adv-x="1341" 
d="M815 1167h-301l-291 349h445zM459 -20q-169 0 -263 107t-94 306v651h400v-542q0 -89 38.5 -137t110.5 -48q83 0 130.5 62.5t47.5 165.5v499h400v-487q0 -371 10 -557h-383l-25 164h-20q-138 -184 -352 -184z" />
    <glyph glyph-name="uacute" unicode="&#xfa;" horiz-adv-x="1341" 
d="M817 1167h-301l148 349h444zM459 -20q-169 0 -263 107t-94 306v651h400v-542q0 -89 38.5 -137t110.5 -48q83 0 130.5 62.5t47.5 165.5v499h400v-487q0 -371 10 -557h-383l-25 164h-20q-138 -184 -352 -184z" />
    <glyph glyph-name="ucircumflex" unicode="&#xfb;" horiz-adv-x="1341" 
d="M557 1167h-330l275 349h327l275 -349h-338l-104 176zM459 -20q-169 0 -263 107t-94 306v651h400v-542q0 -89 38.5 -137t110.5 -48q83 0 130.5 62.5t47.5 165.5v499h400v-487q0 -371 10 -557h-383l-25 164h-20q-138 -184 -352 -184z" />
    <glyph glyph-name="udieresis" unicode="&#xfc;" horiz-adv-x="1341" 
d="M416 1157q-88 0 -146.5 56t-58.5 139t58.5 138.5t146.5 55.5t146.5 -55.5t58.5 -138.5t-58.5 -139t-146.5 -56zM915 1157q-88 0 -146 56t-58 139t58 138.5t146 55.5t146.5 -55.5t58.5 -138.5t-58.5 -139t-146.5 -56zM459 -20q-169 0 -263 107t-94 306v651h400v-542
q0 -89 38.5 -137t110.5 -48q83 0 130.5 62.5t47.5 165.5v499h400v-487q0 -371 10 -557h-383l-25 164h-20q-138 -184 -352 -184z" />
    <glyph glyph-name="yacute" unicode="&#xfd;" horiz-adv-x="1236" 
d="M774 1167h-301l148 349h444zM709 -410h-424l127 347l-387 1107h407l182 -690h21l180 690h397z" />
    <glyph glyph-name="thorn" unicode="&#xfe;" horiz-adv-x="1310" 
d="M512 -410h-399v1844h399v-553h20q108 184 316 184q190 0 295.5 -142t105.5 -401t-105.5 -400.5t-295.5 -141.5q-208 0 -316 184h-20v-574zM682 297q77 0 122.5 60.5t45.5 164.5t-45.5 165t-122.5 61q-78 0 -124 -61t-46 -165t46 -164.5t124 -60.5z" />
    <glyph glyph-name="ydieresis" unicode="&#xff;" horiz-adv-x="1236" 
d="M373 1157q-88 0 -146.5 56t-58.5 139t58.5 138.5t146.5 55.5t146.5 -55.5t58.5 -138.5t-58.5 -139t-146.5 -56zM872 1157q-88 0 -146 56t-58 139t58 138.5t146 55.5t146.5 -55.5t58.5 -138.5t-58.5 -139t-146.5 -56zM709 -410h-424l127 347l-387 1107h407l182 -690h21
l180 690h397z" />
    <glyph glyph-name="Amacron" unicode="&#x100;" horiz-adv-x="1525" 
d="M426 1864h676v-256h-676v256zM1501 0h-428l-72 256h-487l-72 -256h-417l471 1434h534zM748 1096l-148 -533h315l-147 533h-20z" />
    <glyph glyph-name="amacron" unicode="&#x101;" horiz-adv-x="1239" 
d="M279 1475h675v-256h-675v256zM1135 680v-143q0 -357 10 -537h-365l-24 164h-21q-48 -93 -126 -138.5t-197 -45.5q-150 0 -241 84t-91 221q0 313 428 340l242 14v25q0 129 -148 129q-68 0 -110.5 -31.5t-49.5 -89.5l-350 71q25 150 158.5 236t351.5 86q264 0 398.5 -101.5
t134.5 -283.5zM575 260q74 0 124 49.5t51 145.5l-144 -9q-78 -4 -111.5 -28.5t-33.5 -71.5q0 -86 114 -86z" />
    <glyph glyph-name="Abreve" unicode="&#x102;" horiz-adv-x="1525" 
d="M764 1546q-173 0 -270 94t-97 265h226q0 -70 35.5 -112t105.5 -42q68 0 104.5 42t36.5 112h225q0 -171 -96.5 -265t-269.5 -94zM1501 0h-428l-72 256h-487l-72 -256h-417l471 1434h534zM748 1096l-148 -533h315l-147 533h-20z" />
    <glyph glyph-name="abreve" unicode="&#x103;" horiz-adv-x="1239" 
d="M616 1157q-173 0 -269.5 94t-96.5 265h225q0 -70 35.5 -112t105.5 -42q69 0 105.5 42t36.5 112h225q0 -171 -97 -265t-270 -94zM1135 680v-143q0 -357 10 -537h-365l-24 164h-21q-48 -93 -126 -138.5t-197 -45.5q-150 0 -241 84t-91 221q0 313 428 340l242 14v25
q0 129 -148 129q-68 0 -110.5 -31.5t-49.5 -89.5l-350 71q25 150 158.5 236t351.5 86q264 0 398.5 -101.5t134.5 -283.5zM575 260q74 0 124 49.5t51 145.5l-144 -9q-78 -4 -111.5 -28.5t-33.5 -71.5q0 -86 114 -86z" />
    <glyph glyph-name="Aogonek" unicode="&#x104;" horiz-adv-x="1525" 
d="M1501 0h-250q-80 -69 -115.5 -116.5t-35.5 -96.5q0 -36 23 -55t61 -19q34 0 67 11v-222q-71 -14 -141 -14q-118 0 -192 55.5t-74 165.5q0 181 227 299l-70 248h-487l-72 -256h-417l471 1434h534zM748 1096l-148 -533h315l-147 533h-20z" />
    <glyph glyph-name="aogonek" unicode="&#x105;" horiz-adv-x="1239" 
d="M1145 0h-172q-80 -69 -116 -117t-36 -96q0 -36 23 -55t61 -19q35 0 68 11v-222q-71 -14 -142 -14q-118 0 -192 55.5t-74 165.5q0 176 215 291l-24 164h-21q-48 -93 -126 -138.5t-197 -45.5q-150 0 -241 84t-91 221q0 313 428 340l242 14v25q0 129 -148 129
q-68 0 -110.5 -31.5t-49.5 -89.5l-350 71q25 150 158.5 236t351.5 86q264 0 398.5 -101.5t134.5 -283.5v-143q0 -357 10 -537zM575 260q74 0 124 49.5t51 145.5l-144 -9q-78 -4 -111.5 -28.5t-33.5 -71.5q0 -86 114 -86z" />
    <glyph glyph-name="Cacute" unicode="&#x106;" horiz-adv-x="1527" 
d="M940 1556h-301l147 349h445zM784 -20q-332 0 -522 202t-190 535t190 535t522 202q275 0 446 -124.5t224 -362.5l-405 -82q-26 114 -96.5 174.5t-168.5 60.5q-140 0 -221.5 -107t-81.5 -296t81.5 -296.5t221.5 -107.5q101 0 175.5 62.5t101.5 173.5l405 -82
q-54 -239 -227.5 -363t-454.5 -124z" />
    <glyph glyph-name="cacute" unicode="&#x107;" horiz-adv-x="1204" 
d="M768 1167h-301l147 349h445zM621 -20q-137 0 -245 41.5t-176 115t-103.5 171t-35.5 214.5t35.5 215t103.5 171.5t176 115t245 41.5q205 0 337.5 -95.5t178.5 -275.5l-381 -78q-12 65 -49.5 100.5t-90.5 35.5q-71 0 -113 -62.5t-42 -167.5t42 -167t113 -62q57 0 97 34.5
t53 100.5l383 -78q-51 -180 -186 -275t-342 -95z" />
    <glyph glyph-name="Ccircumflex" unicode="&#x108;" horiz-adv-x="1527" 
d="M680 1556h-330l275 349h327l275 -349h-338l-105 177zM784 -20q-332 0 -522 202t-190 535t190 535t522 202q275 0 446 -124.5t224 -362.5l-405 -82q-26 114 -96.5 174.5t-168.5 60.5q-140 0 -221.5 -107t-81.5 -296t81.5 -296.5t221.5 -107.5q101 0 175.5 62.5
t101.5 173.5l405 -82q-54 -239 -227.5 -363t-454.5 -124z" />
    <glyph glyph-name="ccircumflex" unicode="&#x109;" horiz-adv-x="1204" 
d="M508 1167h-330l275 349h327l275 -349h-338l-105 176zM621 -20q-137 0 -245 41.5t-176 115t-103.5 171t-35.5 214.5t35.5 215t103.5 171.5t176 115t245 41.5q205 0 337.5 -95.5t178.5 -275.5l-381 -78q-12 65 -49.5 100.5t-90.5 35.5q-71 0 -113 -62.5t-42 -167.5t42 -167
t113 -62q57 0 97 34.5t53 100.5l383 -78q-51 -180 -186 -275t-342 -95z" />
    <glyph glyph-name="Cdotaccent" unicode="&#x10a;" horiz-adv-x="1527" 
d="M788 1536q-97 0 -163 61.5t-66 153.5t66 153.5t163 61.5t164.5 -61.5t67.5 -153.5t-67.5 -153.5t-164.5 -61.5zM784 -20q-332 0 -522 202t-190 535t190 535t522 202q275 0 446 -124.5t224 -362.5l-405 -82q-26 114 -96.5 174.5t-168.5 60.5q-140 0 -221.5 -107
t-81.5 -296t81.5 -296.5t221.5 -107.5q101 0 175.5 62.5t101.5 173.5l405 -82q-54 -239 -227.5 -363t-454.5 -124z" />
    <glyph glyph-name="cdotaccent" unicode="&#x10b;" horiz-adv-x="1204" 
d="M616 1147q-97 0 -163 61.5t-66 153.5t66 153.5t163 61.5t164.5 -61.5t67.5 -153.5t-67.5 -153.5t-164.5 -61.5zM621 -20q-137 0 -245 41.5t-176 115t-103.5 171t-35.5 214.5t35.5 215t103.5 171.5t176 115t245 41.5q205 0 337.5 -95.5t178.5 -275.5l-381 -78
q-12 65 -49.5 100.5t-90.5 35.5q-71 0 -113 -62.5t-42 -167.5t42 -167t113 -62q57 0 97 34.5t53 100.5l383 -78q-51 -180 -186 -275t-342 -95z" />
    <glyph glyph-name="Ccaron" unicode="&#x10c;" horiz-adv-x="1527" 
d="M952 1556h-327l-275 349h338l105 -176l104 176h330zM784 -20q-332 0 -522 202t-190 535t190 535t522 202q275 0 446 -124.5t224 -362.5l-405 -82q-26 114 -96.5 174.5t-168.5 60.5q-140 0 -221.5 -107t-81.5 -296t81.5 -296.5t221.5 -107.5q101 0 175.5 62.5t101.5 173.5
l405 -82q-54 -239 -227.5 -363t-454.5 -124z" />
    <glyph glyph-name="ccaron" unicode="&#x10d;" horiz-adv-x="1204" 
d="M780 1167h-327l-275 349h338l105 -177l104 177h330zM621 -20q-137 0 -245 41.5t-176 115t-103.5 171t-35.5 214.5t35.5 215t103.5 171.5t176 115t245 41.5q205 0 337.5 -95.5t178.5 -275.5l-381 -78q-12 65 -49.5 100.5t-90.5 35.5q-71 0 -113 -62.5t-42 -167.5t42 -167
t113 -62q57 0 97 34.5t53 100.5l383 -78q-51 -180 -186 -275t-342 -95z" />
    <glyph glyph-name="Dcaron" unicode="&#x10e;" horiz-adv-x="1521" 
d="M907 1556h-327l-275 349h338l105 -176l104 176h330zM702 0h-573v1434h573q175 0 316 -52t235.5 -146t145.5 -226.5t51 -292.5t-51 -292.5t-145.5 -226.5t-235.5 -146t-316 -52zM539 1096v-758h163q159 0 248.5 100t89.5 279t-89.5 279t-248.5 100h-163z" />
    <glyph glyph-name="dcaron" unicode="&#x10f;" horiz-adv-x="1566" 
d="M463 -20q-190 0 -296 142t-106 400t106 400.5t296 142.5q207 0 315 -184h21v553h399v-877q0 -371 10 -557h-383l-26 164h-21q-108 -184 -315 -184zM1497 1014h-205l19 420h297zM629 297q78 0 124 60.5t46 164.5t-46 165t-124 61q-77 0 -122.5 -61t-45.5 -165t45.5 -164.5
t122.5 -60.5z" />
    <glyph glyph-name="Dcroat" unicode="&#x110;" horiz-adv-x="1607" 
d="M215 1434h573q175 0 316 -52t235.5 -146t145.5 -226.5t51 -292.5t-51 -292.5t-145.5 -226.5t-235.5 -146t-316 -52h-573v614h-205v205h205v615zM625 338h163q159 0 248.5 100t89.5 279t-89.5 279t-248.5 100h-163v-277h297v-205h-297v-276z" />
    <glyph glyph-name="dcroat" unicode="&#x111;" horiz-adv-x="1372" 
d="M1382 1311v-185h-184v-569q0 -371 10 -557h-383l-26 164h-21q-108 -184 -315 -184q-190 0 -296 142t-106 400t106 400.5t296 142.5q207 0 315 -184h21v245h-328v185h328v123h399v-123h184zM629 297q78 0 124 60.5t46 164.5t-46 165t-124 61q-77 0 -122.5 -61t-45.5 -165
t45.5 -164.5t122.5 -60.5z" />
    <glyph glyph-name="Emacron" unicode="&#x112;" horiz-adv-x="1327" 
d="M1030 1608h-676v256h676v-256zM1235 0h-1106v1434h1106v-328h-696v-232h614v-274h-614v-272h696v-328z" />
    <glyph glyph-name="emacron" unicode="&#x113;" horiz-adv-x="1216" 
d="M281 1475h675v-256h-675v256zM1155 557q0 -73 -6 -123h-707q27 -190 189 -190q111 0 162 114l352 -69q-62 -155 -187.5 -232t-334.5 -77q-137 0 -245 41.5t-176.5 114.5t-104.5 171.5t-36 214.5q0 240 144.5 391.5t412.5 151.5q127 0 230 -40.5t169.5 -110.5t102 -161.5
t35.5 -195.5zM618 801q-139 0 -172 -170h340q-14 87 -58.5 128.5t-109.5 41.5z" />
    <glyph glyph-name="Ebreve" unicode="&#x114;" horiz-adv-x="1327" 
d="M692 1546q-173 0 -269.5 94t-96.5 265h225q0 -70 35.5 -112t105.5 -42q69 0 105.5 42t36.5 112h225q0 -171 -97 -265t-270 -94zM1235 0h-1106v1434h1106v-328h-696v-232h614v-274h-614v-272h696v-328z" />
    <glyph glyph-name="ebreve" unicode="&#x115;" horiz-adv-x="1216" 
d="M618 1157q-173 0 -269.5 94t-96.5 265h225q0 -70 35.5 -112t105.5 -42q69 0 105.5 42t36.5 112h225q0 -171 -97 -265t-270 -94zM1155 557q0 -73 -6 -123h-707q27 -190 189 -190q111 0 162 114l352 -69q-62 -155 -187.5 -232t-334.5 -77q-137 0 -245 41.5t-176.5 114.5
t-104.5 171.5t-36 214.5q0 240 144.5 391.5t412.5 151.5q127 0 230 -40.5t169.5 -110.5t102 -161.5t35.5 -195.5zM618 801q-139 0 -172 -170h340q-14 87 -58.5 128.5t-109.5 41.5z" />
    <glyph glyph-name="Edotaccent" unicode="&#x116;" horiz-adv-x="1327" 
d="M692 1536q-97 0 -163 61.5t-66 153.5t66 153.5t163 61.5t164.5 -61.5t67.5 -153.5t-67.5 -153.5t-164.5 -61.5zM1235 0h-1106v1434h1106v-328h-696v-232h614v-274h-614v-272h696v-328z" />
    <glyph glyph-name="edotaccent" unicode="&#x117;" horiz-adv-x="1216" 
d="M618 1147q-97 0 -163 61.5t-66 153.5t66 153.5t163 61.5t164.5 -61.5t67.5 -153.5t-67.5 -153.5t-164.5 -61.5zM1155 557q0 -73 -6 -123h-707q27 -190 189 -190q111 0 162 114l352 -69q-62 -155 -187.5 -232t-334.5 -77q-137 0 -245 41.5t-176.5 114.5t-104.5 171.5
t-36 214.5q0 240 144.5 391.5t412.5 151.5q127 0 230 -40.5t169.5 -110.5t102 -161.5t35.5 -195.5zM618 801q-139 0 -172 -170h340q-14 87 -58.5 128.5t-109.5 41.5z" />
    <glyph glyph-name="Eogonek" unicode="&#x118;" horiz-adv-x="1327" 
d="M1235 1434v-328h-696v-232h614v-274h-614v-272h696v-328q-80 -69 -116 -117t-36 -96q0 -36 23 -55t61 -19q35 0 68 11v-222q-71 -14 -141 -14q-118 0 -192.5 55.5t-74.5 165.5q0 175 213 291h-911v1434h1106z" />
    <glyph glyph-name="eogonek" unicode="&#x119;" horiz-adv-x="1216" 
d="M1155 557q0 -73 -6 -123h-707q27 -190 189 -190q111 0 162 114l352 -69q-94 -239 -344 -291q-79 -69 -113.5 -116t-34.5 -95q0 -36 23 -55t61 -19q35 0 68 11v-222q-71 -14 -141 -14q-118 0 -192.5 55.5t-74.5 165.5q0 160 181 273q-248 12 -382.5 161t-134.5 379
q0 240 144.5 391.5t412.5 151.5q127 0 230 -40.5t169.5 -110.5t102 -161.5t35.5 -195.5zM618 801q-139 0 -172 -170h340q-14 87 -58.5 128.5t-109.5 41.5z" />
    <glyph glyph-name="Ecaron" unicode="&#x11a;" horiz-adv-x="1327" 
d="M856 1556h-328l-274 349h338l104 -176l105 176h329zM1235 0h-1106v1434h1106v-328h-696v-232h614v-274h-614v-272h696v-328z" />
    <glyph glyph-name="ecaron" unicode="&#x11b;" horiz-adv-x="1216" 
d="M1057 1516l-275 -349h-327l-275 349h338l105 -177l104 177h330zM1155 557q0 -73 -6 -123h-707q27 -190 189 -190q111 0 162 114l352 -69q-62 -155 -187.5 -232t-334.5 -77q-137 0 -245 41.5t-176.5 114.5t-104.5 171.5t-36 214.5q0 240 144.5 391.5t412.5 151.5
q127 0 230 -40.5t169.5 -110.5t102 -161.5t35.5 -195.5zM618 801q-139 0 -172 -170h340q-14 87 -58.5 128.5t-109.5 41.5z" />
    <glyph glyph-name="Gcircumflex" unicode="&#x11c;" horiz-adv-x="1558" 
d="M680 1556h-330l275 349h327l275 -349h-338l-105 177zM813 -20q-174 0 -314 53.5t-233.5 150.5t-143.5 233t-50 300q0 333 192 535t527 202q275 0 442 -110.5t223 -325.5l-407 -84q-29 99 -98 145.5t-160 46.5q-139 0 -224.5 -109.5t-85.5 -299.5q0 -194 90 -302t252 -108
q134 0 226 66v184l-246 12v232h635v-578q-229 -243 -625 -243z" />
    <glyph glyph-name="gcircumflex" unicode="&#x11d;" horiz-adv-x="1310" 
d="M520 1167h-330l275 349h328l274 -349h-338l-104 176zM639 -430q-221 0 -365 78.5t-182 228.5l363 74q35 -105 180 -105q164 0 164 172v207h-21q-108 -184 -315 -184q-186 0 -294 132t-108 370q0 247 108.5 384.5t293.5 137.5q207 0 315 -184h21l26 163h383
q-10 -186 -10 -557v-475q0 -205 -138.5 -323.5t-420.5 -118.5zM629 338q77 0 123.5 56t46.5 149t-46.5 149t-123.5 56t-122.5 -55.5t-45.5 -149.5t45.5 -149.5t122.5 -55.5z" />
    <glyph glyph-name="Gbreve" unicode="&#x11e;" horiz-adv-x="1558" 
d="M788 1546q-173 0 -269.5 94t-96.5 265h225q0 -70 35.5 -112t105.5 -42q69 0 105.5 42t36.5 112h225q0 -171 -97 -265t-270 -94zM813 -20q-174 0 -314 53.5t-233.5 150.5t-143.5 233t-50 300q0 333 192 535t527 202q275 0 442 -110.5t223 -325.5l-407 -84
q-29 99 -98 145.5t-160 46.5q-139 0 -224.5 -109.5t-85.5 -299.5q0 -194 90 -302t252 -108q134 0 226 66v184l-246 12v232h635v-578q-229 -243 -625 -243z" />
    <glyph glyph-name="gbreve" unicode="&#x11f;" horiz-adv-x="1310" 
d="M629 1157q-173 0 -270 94t-97 265h225q0 -70 36 -112t106 -42q68 0 104.5 42t36.5 112h225q0 -171 -96.5 -265t-269.5 -94zM639 -430q-221 0 -365 78.5t-182 228.5l363 74q35 -105 180 -105q164 0 164 172v207h-21q-108 -184 -315 -184q-186 0 -294 132t-108 370
q0 247 108.5 384.5t293.5 137.5q207 0 315 -184h21l26 163h383q-10 -186 -10 -557v-475q0 -205 -138.5 -323.5t-420.5 -118.5zM629 338q77 0 123.5 56t46.5 149t-46.5 149t-123.5 56t-122.5 -55.5t-45.5 -149.5t45.5 -149.5t122.5 -55.5z" />
    <glyph glyph-name="Gdotaccent" unicode="&#x120;" horiz-adv-x="1558" 
d="M788 1536q-97 0 -163 61.5t-66 153.5t66 153.5t163 61.5t164.5 -61.5t67.5 -153.5t-67.5 -153.5t-164.5 -61.5zM813 -20q-174 0 -314 53.5t-233.5 150.5t-143.5 233t-50 300q0 333 192 535t527 202q275 0 442 -110.5t223 -325.5l-407 -84q-29 99 -98 145.5t-160 46.5
q-139 0 -224.5 -109.5t-85.5 -299.5q0 -194 90 -302t252 -108q134 0 226 66v184l-246 12v232h635v-578q-229 -243 -625 -243z" />
    <glyph glyph-name="gdotaccent" unicode="&#x121;" horiz-adv-x="1310" 
d="M629 1147q-97 0 -163.5 61.5t-66.5 153.5t66.5 153.5t163.5 61.5t164 -61.5t67 -153.5t-67 -153.5t-164 -61.5zM639 -430q-221 0 -365 78.5t-182 228.5l363 74q35 -105 180 -105q164 0 164 172v207h-21q-108 -184 -315 -184q-186 0 -294 132t-108 370q0 247 108.5 384.5
t293.5 137.5q207 0 315 -184h21l26 163h383q-10 -186 -10 -557v-475q0 -205 -138.5 -323.5t-420.5 -118.5zM629 338q77 0 123.5 56t46.5 149t-46.5 149t-123.5 56t-122.5 -55.5t-45.5 -149.5t45.5 -149.5t122.5 -55.5z" />
    <glyph glyph-name="uni0122" unicode="&#x122;" horiz-adv-x="1558" 
d="M813 -20q-174 0 -314 53.5t-233.5 150.5t-143.5 233t-50 300q0 333 192 535t527 202q275 0 442 -110.5t223 -325.5l-407 -84q-29 99 -98 145.5t-160 46.5q-139 0 -224.5 -109.5t-85.5 -299.5q0 -194 90 -302t252 -108q134 0 226 66v184l-246 12v232h635v-578
q-229 -243 -625 -243zM842 -430h-279l64 338h362z" />
    <glyph glyph-name="uni0123" unicode="&#x123;" horiz-adv-x="1310" 
d="M809 1167h-363l150 349h278zM639 -430q-221 0 -365 78.5t-182 228.5l363 74q35 -105 180 -105q164 0 164 172v207h-21q-108 -184 -315 -184q-186 0 -294 132t-108 370q0 247 108.5 384.5t293.5 137.5q207 0 315 -184h21l26 163h383q-10 -186 -10 -557v-475
q0 -205 -138.5 -323.5t-420.5 -118.5zM629 338q77 0 123.5 56t46.5 149t-46.5 149t-123.5 56t-122.5 -55.5t-45.5 -149.5t45.5 -149.5t122.5 -55.5z" />
    <glyph glyph-name="Hcircumflex" unicode="&#x124;" horiz-adv-x="1579" 
d="M682 1556h-330l275 349h327l275 -349h-338l-105 177zM539 0h-410v1434h410v-533h501v533h410v-1434h-410v553h-501v-553z" />
    <glyph glyph-name="hcircumflex" unicode="&#x125;" horiz-adv-x="1341" 
d="M414 1556l-105 177l-104 -177h-330l275 349h327l275 -349h-338zM885 1065q167 0 260.5 -107.5t93.5 -306.5v-651h-399v543q0 89 -39 136.5t-111 47.5q-83 0 -130.5 -63t-47.5 -166v-498h-399v1434h399v-308l-10 -245h28q135 184 355 184z" />
    <glyph glyph-name="Hbar" unicode="&#x126;" horiz-adv-x="1710" 
d="M604 0h-409v1075h-185v205h185v154h409v-154h502v154h410v-154h184v-205h-184v-1075h-410v553h-502v-553zM604 1075v-174h502v174h-502z" />
    <glyph glyph-name="hbar" unicode="&#x127;" horiz-adv-x="1402" 
d="M946 1065q167 0 260.5 -107.5t93.5 -306.5v-651h-399v543q0 89 -38.5 136.5t-110.5 47.5q-83 0 -131 -63t-48 -166v-498h-399v1126h-184v185h184v123h399v-123h328v-185h-328l-10 -245h29q135 184 354 184z" />
    <glyph glyph-name="Itilde" unicode="&#x128;" horiz-adv-x="667" 
d="M154 1546h-195v131q0 109 53 173.5t142 64.5q45 0 89 -17.5t73.5 -39t64 -39t61.5 -17.5q70 0 70 113h195v-135q0 -110 -51.5 -172t-143.5 -62q-46 0 -90.5 17.5t-73.5 39t-63.5 39t-61.5 17.5q-69 0 -69 -113zM539 0h-410v1434h410v-1434z" />
    <glyph glyph-name="itilde" unicode="&#x129;" horiz-adv-x="624" 
d="M133 1157h-194v131q0 109 52.5 173.5t141.5 64.5q45 0 89.5 -17.5t73.5 -39t64 -39t62 -17.5q70 0 70 113h194v-135q0 -110 -51 -172t-143 -62q-46 0 -90.5 17.5t-73.5 39t-63.5 39t-61.5 17.5q-70 0 -70 -113zM512 0h-399v1044h399v-1044z" />
    <glyph glyph-name="Imacron" unicode="&#x12a;" horiz-adv-x="667" 
d="M672 1608h-676v256h676v-256zM539 0h-410v1434h410v-1434z" />
    <glyph glyph-name="imacron" unicode="&#x12b;" horiz-adv-x="624" 
d="M651 1219h-676v256h676v-256zM512 0h-399v1044h399v-1044z" />
    <glyph glyph-name="Ibreve" unicode="&#x12c;" horiz-adv-x="667" 
d="M334 1546q-173 0 -270 94t-97 265h226q0 -70 35.5 -112t105.5 -42q68 0 104.5 42t36.5 112h225q0 -171 -96.5 -265t-269.5 -94zM539 0h-410v1434h410v-1434z" />
    <glyph glyph-name="ibreve" unicode="&#x12d;" horiz-adv-x="624" 
d="M313 1157q-173 0 -269.5 94t-96.5 265h225q0 -70 35.5 -112t105.5 -42q69 0 105.5 42t36.5 112h225q0 -171 -97 -265t-270 -94zM512 0h-399v1044h399v-1044z" />
    <glyph glyph-name="Iogonek" unicode="&#x12e;" horiz-adv-x="667" 
d="M539 1434v-1434q-80 -69 -116 -117t-36 -96q0 -36 23 -55t61 -19q35 0 68 11v-222q-71 -14 -142 -14q-118 0 -192 55.5t-74 165.5q0 175 213 291h-215v1434h410z" />
    <glyph glyph-name="iogonek" unicode="&#x12f;" horiz-adv-x="624" 
d="M313 1147q-97 0 -163 61.5t-66 153.5t66 153.5t163 61.5t164.5 -61.5t67.5 -153.5t-67.5 -153.5t-164.5 -61.5zM317 0h-204v1044h399v-1044q-80 -69 -116 -117t-36 -96q0 -36 23 -55t61 -19q35 0 68 11v-222q-71 -14 -141 -14q-118 0 -192.5 55.5t-74.5 165.5
q0 175 213 291z" />
    <glyph glyph-name="Idotaccent" unicode="&#x130;" horiz-adv-x="667" 
d="M334 1536q-97 0 -163.5 61.5t-66.5 153.5t66.5 153.5t163.5 61.5t164 -61.5t67 -153.5t-67 -153.5t-164 -61.5zM539 0h-410v1434h410v-1434z" />
    <glyph glyph-name="dotlessi" unicode="&#x131;" horiz-adv-x="624" 
d="M512 0h-399v1044h399v-1044z" />
    <glyph glyph-name="IJ" unicode="&#x132;" horiz-adv-x="1691" 
d="M539 0h-410v1434h410v-1434zM987 0h-270v328h225q102 0 156.5 49.5t54.5 150.5v906h410v-916q0 -248 -147.5 -383t-428.5 -135z" />
    <glyph glyph-name="ij" unicode="&#x133;" horiz-adv-x="1300" 
d="M313 1147q-97 0 -163 61.5t-66 153.5t66 153.5t163 61.5t164.5 -61.5t67.5 -153.5t-67.5 -153.5t-164.5 -61.5zM989 1147q-97 0 -163 61.5t-66 153.5t66 153.5t163 61.5t164.5 -61.5t67.5 -153.5t-67.5 -153.5t-164.5 -61.5zM512 0h-399v1044h399v-1044zM784 -430
q-179 0 -303 59l84 289q45 -22 105 -22q53 0 85.5 29.5t32.5 92.5v1026h400v-1046q0 -208 -102 -318t-302 -110z" />
    <glyph glyph-name="Jcircumflex" unicode="&#x134;" horiz-adv-x="1351" 
d="M909 1556h-329l274 349h328l274 -349h-338l-104 177zM625 -20q-78 0 -151 12.5t-146.5 42t-132 74t-103 114.5t-63.5 158l389 78q19 -79 75 -115.5t132 -36.5q87 0 137.5 51.5t50.5 149.5v926h410v-942q0 -239 -154 -375.5t-444 -136.5z" />
    <glyph glyph-name="jcircumflex" unicode="&#x135;" horiz-adv-x="706" 
d="M287 1167h-330l274 349h328l275 -349h-338l-105 176zM190 -430q-179 0 -303 59l84 289q45 -22 105 -22q53 0 86 30t33 92v1026h399v-1046q0 -208 -102 -318t-302 -110z" />
    <glyph glyph-name="uni0136" unicode="&#x136;" horiz-adv-x="1460" 
d="M539 0h-410v1434h410v-695l413 695h457l-457 -695l478 -739h-472l-419 707v-707zM778 -430h-278l63 338h363z" />
    <glyph glyph-name="uni0137" unicode="&#x137;" horiz-adv-x="1282" 
d="M512 0h-399v1434h399v-881l279 491h440l-322 -499l342 -545h-458l-281 516v-516zM680 -430h-279l64 338h362z" />
    <glyph glyph-name="kgreenlandic" unicode="&#x138;" horiz-adv-x="1282" 
d="M512 0h-399v1044h399v-491l279 491h440l-322 -499l342 -545h-458l-281 516v-516z" />
    <glyph glyph-name="Lacute" unicode="&#x139;" horiz-adv-x="1224" 
d="M485 1556h-301l148 349h444zM1174 0h-1045v1434h410v-1076h635v-358z" />
    <glyph glyph-name="lacute" unicode="&#x13a;" horiz-adv-x="624" 
d="M465 1556h-301l147 349h445zM512 0h-399v1434h399v-1434z" />
    <glyph glyph-name="uni013B" unicode="&#x13b;" horiz-adv-x="1224" 
d="M1174 0h-1045v1434h410v-1076h635v-358zM711 -430h-279l64 338h362z" />
    <glyph glyph-name="uni013C" unicode="&#x13c;" horiz-adv-x="624" 
d="M512 0h-399v1434h399v-1434zM346 -430h-278l63 338h363z" />
    <glyph glyph-name="Lcaron" unicode="&#x13d;" horiz-adv-x="1224" 
d="M1174 0h-1045v1434h410v-1076h635v-358zM838 1014h-205l18 420h297z" />
    <glyph glyph-name="lcaron" unicode="&#x13e;" horiz-adv-x="880" 
d="M512 0h-399v1434h399v-1434zM811 1014h-205l19 420h297z" />
    <glyph glyph-name="Ldot" unicode="&#x13f;" horiz-adv-x="1224" 
d="M1174 0h-1045v1434h410v-1076h635v-358zM946 594q-91 0 -153 58t-62 149q0 88 62.5 145.5t152.5 57.5t152.5 -57.5t62.5 -145.5q0 -91 -62 -149t-153 -58z" />
    <glyph glyph-name="ldot" unicode="&#x140;" horiz-adv-x="1005" 
d="M512 0h-399v1434h399v-1434zM815 451q-91 0 -153 57.5t-62 148.5q0 88 62.5 145.5t152.5 57.5t152.5 -57.5t62.5 -145.5q0 -91 -62 -148.5t-153 -57.5z" />
    <glyph glyph-name="Lslash" unicode="&#x141;" horiz-adv-x="1361" 
d="M1311 0h-1075v430l-205 -108v278l205 109v725h409v-506l348 186v-278l-348 -187v-291h666v-358z" />
    <glyph glyph-name="lslash" unicode="&#x142;" horiz-adv-x="808" 
d="M604 0h-399v436l-174 -92v266l174 92v732h399v-516l174 92v-267l-174 -92v-651z" />
    <glyph glyph-name="Nacute" unicode="&#x143;" horiz-adv-x="1599" 
d="M952 1556h-301l148 349h444zM528 0h-399v1434h430l502 -838h20q-10 159 -10 354v484h399v-1434h-430l-501 838h-21q10 -159 10 -355v-483z" />
    <glyph glyph-name="nacute" unicode="&#x144;" horiz-adv-x="1341" 
d="M827 1167h-301l148 349h444zM512 0h-399v487q0 352 -11 557h383l25 -163h20q138 184 353 184q169 0 262.5 -107.5t93.5 -306.5v-651h-399v543q0 89 -39 136.5t-111 47.5q-83 0 -130.5 -62t-47.5 -165v-500z" />
    <glyph glyph-name="uni0145" unicode="&#x145;" horiz-adv-x="1599" 
d="M528 0h-399v1434h430l502 -838h20q-10 159 -10 354v484h399v-1434h-430l-501 838h-21q10 -159 10 -355v-483zM834 -430h-279l63 338h363z" />
    <glyph glyph-name="uni0146" unicode="&#x146;" horiz-adv-x="1341" 
d="M512 0h-399v487q0 352 -11 557h383l25 -163h20q138 184 353 184q169 0 262.5 -107.5t93.5 -306.5v-651h-399v543q0 89 -39 136.5t-111 47.5q-83 0 -130.5 -62t-47.5 -165v-500zM709 -430h-279l64 338h362z" />
    <glyph glyph-name="Ncaron" unicode="&#x147;" horiz-adv-x="1599" 
d="M965 1556h-328l-275 349h338l105 -176l104 176h330zM528 0h-399v1434h430l502 -838h20q-10 159 -10 354v484h399v-1434h-430l-501 838h-21q10 -159 10 -355v-483z" />
    <glyph glyph-name="ncaron" unicode="&#x148;" horiz-adv-x="1341" 
d="M840 1167h-328l-274 349h337l105 -177l104 177h330zM512 0h-399v487q0 352 -11 557h383l25 -163h20q138 184 353 184q169 0 262.5 -107.5t93.5 -306.5v-651h-399v543q0 89 -39 136.5t-111 47.5q-83 0 -130.5 -62t-47.5 -165v-500z" />
    <glyph glyph-name="napostrophe" unicode="&#x149;" horiz-adv-x="1341" 
d="M317 1157h-204l18 420h297zM512 0h-399v487q0 352 -11 557h383l25 -163h20q138 184 353 184q169 0 262.5 -107.5t93.5 -306.5v-651h-399v543q0 89 -39 136.5t-111 47.5q-83 0 -130.5 -62t-47.5 -165v-500z" />
    <glyph glyph-name="Eng" unicode="&#x14a;" horiz-adv-x="1599" 
d="M1081 -430q-176 0 -297 59l78 267q52 -21 109 -21q55 0 88 25.5t33 79.5v10l-553 872h-21q10 -159 10 -354v-508h-399v1434h430l502 -791h20q-10 159 -10 354v437h399v-1436q0 -206 -98.5 -317t-290.5 -111z" />
    <glyph glyph-name="eng" unicode="&#x14b;" horiz-adv-x="1341" 
d="M836 -430q-180 0 -304 59l84 289q45 -22 105 -22q53 0 86 30t33 92v525q0 89 -39 136.5t-111 47.5q-83 0 -130.5 -63t-47.5 -166v-498h-399v487q0 352 -11 557h383l25 -163h20q138 184 353 184q169 0 262.5 -107.5t93.5 -306.5v-653q0 -208 -101.5 -318t-301.5 -110z" />
    <glyph glyph-name="Omacron" unicode="&#x14c;" horiz-adv-x="1576" 
d="M1126 1608h-675v256h675v-256zM788 -20q-221 0 -384 93t-247.5 259t-84.5 385t84.5 385t247.5 259t384 93t384 -92.5t248 -258.5t85 -386t-85 -386t-248 -258.5t-384 -92.5zM788 317q141 0 224.5 106.5t83.5 293.5t-83.5 293t-224.5 106t-224 -106t-83 -293t83 -293.5
t224 -106.5z" />
    <glyph glyph-name="omacron" unicode="&#x14d;" horiz-adv-x="1245" 
d="M961 1219h-676v256h676v-256zM623 -20q-137 0 -245.5 41.5t-177 115t-104 171.5t-35.5 214t35.5 214.5t104 172t177 115t245.5 41.5t245 -41.5t176.5 -115t104 -172t35.5 -214.5t-35.5 -214t-104 -171.5t-176.5 -115t-245 -41.5zM623 297q74 0 117.5 60.5t43.5 164.5
t-43.5 165t-117.5 61t-118 -61t-44 -165t44 -164.5t118 -60.5z" />
    <glyph glyph-name="Obreve" unicode="&#x14e;" horiz-adv-x="1576" 
d="M788 1546q-173 0 -269.5 94t-96.5 265h225q0 -70 35.5 -112t105.5 -42q69 0 105.5 42t36.5 112h225q0 -171 -97 -265t-270 -94zM788 -20q-221 0 -384 93t-247.5 259t-84.5 385t84.5 385t247.5 259t384 93t384 -92.5t248 -258.5t85 -386t-85 -386t-248 -258.5t-384 -92.5z
M788 317q141 0 224.5 106.5t83.5 293.5t-83.5 293t-224.5 106t-224 -106t-83 -293t83 -293.5t224 -106.5z" />
    <glyph glyph-name="obreve" unicode="&#x14f;" horiz-adv-x="1245" 
d="M623 1157q-173 0 -270 94t-97 265h225q0 -70 36 -112t106 -42q68 0 104.5 42t36.5 112h225q0 -171 -96.5 -265t-269.5 -94zM623 -20q-137 0 -245.5 41.5t-177 115t-104 171.5t-35.5 214t35.5 214.5t104 172t177 115t245.5 41.5t245 -41.5t176.5 -115t104 -172
t35.5 -214.5t-35.5 -214t-104 -171.5t-176.5 -115t-245 -41.5zM623 297q74 0 117.5 60.5t43.5 164.5t-43.5 165t-117.5 61t-118 -61t-44 -165t44 -164.5t118 -60.5z" />
    <glyph glyph-name="Ohungarumlaut" unicode="&#x150;" horiz-adv-x="1576" 
d="M696 1556h-258l144 349h376zM1139 1556h-258l143 349h377zM788 -20q-221 0 -384 93t-247.5 259t-84.5 385t84.5 385t247.5 259t384 93t384 -92.5t248 -258.5t85 -386t-85 -386t-248 -258.5t-384 -92.5zM788 317q141 0 224.5 106.5t83.5 293.5t-83.5 293t-224.5 106
t-224 -106t-83 -293t83 -293.5t224 -106.5z" />
    <glyph glyph-name="ohungarumlaut" unicode="&#x151;" horiz-adv-x="1245" 
d="M530 1167h-258l144 349h377zM973 1167h-258l143 349h377zM623 -20q-137 0 -245.5 41.5t-177 115t-104 171.5t-35.5 214t35.5 214.5t104 172t177 115t245.5 41.5t245 -41.5t176.5 -115t104 -172t35.5 -214.5t-35.5 -214t-104 -171.5t-176.5 -115t-245 -41.5zM623 297
q74 0 117.5 60.5t43.5 164.5t-43.5 165t-117.5 61t-118 -61t-44 -165t44 -164.5t118 -60.5z" />
    <glyph glyph-name="OE" unicode="&#x152;" horiz-adv-x="2058" 
d="M1966 0h-1167q-339 0 -533 196.5t-194 520.5t194 520.5t533 196.5h1167v-328h-584v-236h502v-266h-502v-276h584v-328zM819 328h164v778h-164q-156 0 -247 -104.5t-91 -284.5t91 -284.5t247 -104.5z" />
    <glyph glyph-name="oe" unicode="&#x153;" horiz-adv-x="1892" 
d="M1831 555q0 -65 -6 -121h-672q13 -99 57.5 -144.5t110.5 -45.5q108 0 152 116l348 -69q-118 -311 -457 -311q-269 0 -403 159q-134 -159 -371 -159q-131 0 -233 41t-166 115t-97 171.5t-33 214.5q0 157 56.5 277.5t177.5 193t295 72.5q115 0 211.5 -42t159.5 -116
q135 158 370 158q126 0 224 -41t157 -112.5t89 -161.5t30 -195zM1157 631h301q-7 83 -46 126.5t-97 43.5t-99.5 -42.5t-58.5 -127.5zM610 287q71 0 110.5 62.5t39.5 172.5t-39.5 173t-110.5 63t-110 -63t-39 -173t39 -172.5t110 -62.5z" />
    <glyph glyph-name="Racute" unicode="&#x154;" horiz-adv-x="1419" 
d="M848 1556h-301l147 349h445zM539 0h-410v1434h645q259 0 406 -127.5t147 -360.5q0 -140 -60.5 -242.5t-174.5 -160.5l286 -543h-454l-213 477h-172v-477zM539 1116v-338h194q85 0 135 44.5t50 123.5q0 81 -49.5 125.5t-135.5 44.5h-194z" />
    <glyph glyph-name="racute" unicode="&#x155;" horiz-adv-x="911" 
d="M541 1516h444l-291 -349h-301zM518 819h29q37 123 108.5 184.5t167.5 61.5q35 0 58 -2v-401q-33 4 -80 4q-62 0 -112 -16t-91 -51t-63.5 -98t-22.5 -149v-352h-399v487q0 352 -11 557h383z" />
    <glyph glyph-name="uni0156" unicode="&#x156;" horiz-adv-x="1419" 
d="M539 0h-410v1434h645q259 0 406 -127.5t147 -360.5q0 -140 -60.5 -242.5t-174.5 -160.5l286 -543h-454l-213 477h-172v-477zM539 1116v-338h194q85 0 135 44.5t50 123.5q0 81 -49.5 125.5t-135.5 44.5h-194zM760 -430h-279l64 338h362z" />
    <glyph glyph-name="uni0157" unicode="&#x157;" horiz-adv-x="911" 
d="M823 1065q35 0 58 -2v-401q-33 4 -80 4q-62 0 -112 -16t-91 -51t-63.5 -98t-22.5 -149v-352h-399v487q0 352 -11 557h383l33 -225h29q37 123 108.5 184.5t167.5 61.5zM453 -430h-279l64 338h362z" />
    <glyph glyph-name="Rcaron" unicode="&#x158;" horiz-adv-x="1419" 
d="M860 1556h-328l-274 349h338l104 -176l105 176h330zM539 0h-410v1434h645q259 0 406 -127.5t147 -360.5q0 -140 -60.5 -242.5t-174.5 -160.5l286 -543h-454l-213 477h-172v-477zM539 1116v-338h194q85 0 135 44.5t50 123.5q0 81 -49.5 125.5t-135.5 44.5h-194z" />
    <glyph glyph-name="rcaron" unicode="&#x159;" horiz-adv-x="911" 
d="M981 1516l-274 -349h-328l-275 349h338l105 -177l104 177h330zM518 819h29q37 123 108.5 184.5t167.5 61.5q35 0 58 -2v-401q-33 4 -80 4q-62 0 -112 -16t-91 -51t-63.5 -98t-22.5 -149v-352h-399v487q0 352 -11 557h383z" />
    <glyph glyph-name="Sacute" unicode="&#x15a;" horiz-adv-x="1386" 
d="M827 1556h-301l148 349h444zM719 -20q-116 0 -220 23.5t-191.5 69.5t-149 122t-86.5 174l389 77q61 -165 258 -165q87 0 135.5 32.5t48.5 89.5q0 38 -27.5 65.5t-73.5 44t-106 30.5t-126 30.5t-132.5 37t-126.5 56t-106 82.5t-73.5 121.5t-27.5 169.5q0 181 153 297.5
t421 116.5q241 0 398 -92t208 -277l-397 -77q-42 145 -207 145q-69 0 -113.5 -32t-44.5 -81q0 -38 27.5 -65.5t73.5 -44.5t106 -31t126 -30t132.5 -36.5t126.5 -56.5t106 -84.5t73.5 -124.5t27.5 -172q0 -185 -157 -300t-445 -115z" />
    <glyph glyph-name="sacute" unicode="&#x15b;" horiz-adv-x="1132" 
d="M711 1167h-301l147 349h444zM590 -20q-218 0 -354.5 70t-174.5 208l347 70q31 -113 172 -113q53 0 82.5 21t29.5 57q0 28 -26 47t-68.5 29.5t-97 23.5t-111.5 26t-111.5 40t-97 62.5t-68.5 96.5t-26 140q0 135 124.5 221t344.5 86q196 0 322 -65t163 -197l-346 -70
q-25 96 -133 96q-43 0 -69.5 -18t-26.5 -49t33.5 -51t87 -32t118 -25.5t129 -38t118 -60.5t87 -102t33.5 -156q0 -142 -126.5 -229.5t-354.5 -87.5z" />
    <glyph glyph-name="Scircumflex" unicode="&#x15c;" horiz-adv-x="1386" 
d="M567 1556h-329l274 349h328l274 -349h-338l-104 177zM719 -20q-116 0 -220 23.5t-191.5 69.5t-149 122t-86.5 174l389 77q61 -165 258 -165q87 0 135.5 32.5t48.5 89.5q0 38 -27.5 65.5t-73.5 44t-106 30.5t-126 30.5t-132.5 37t-126.5 56t-106 82.5t-73.5 121.5
t-27.5 169.5q0 181 153 297.5t421 116.5q241 0 398 -92t208 -277l-397 -77q-42 145 -207 145q-69 0 -113.5 -32t-44.5 -81q0 -38 27.5 -65.5t73.5 -44.5t106 -31t126 -30t132.5 -36.5t126.5 -56.5t106 -84.5t73.5 -124.5t27.5 -172q0 -185 -157 -300t-445 -115z" />
    <glyph glyph-name="scircumflex" unicode="&#x15d;" horiz-adv-x="1132" 
d="M451 1167h-330l274 349h328l274 -349h-338l-104 176zM590 -20q-218 0 -354.5 70t-174.5 208l347 70q31 -113 172 -113q53 0 82.5 21t29.5 57q0 28 -26 47t-68.5 29.5t-97 23.5t-111.5 26t-111.5 40t-97 62.5t-68.5 96.5t-26 140q0 135 124.5 221t344.5 86q196 0 322 -65
t163 -197l-346 -70q-25 96 -133 96q-43 0 -69.5 -18t-26.5 -49t33.5 -51t87 -32t118 -25.5t129 -38t118 -60.5t87 -102t33.5 -156q0 -142 -126.5 -229.5t-354.5 -87.5z" />
    <glyph glyph-name="Scedilla" unicode="&#x15e;" horiz-adv-x="1386" 
d="M1321 395q0 -169 -134 -282t-382 -131l-19 -54q105 0 170.5 -56.5t65.5 -156.5q0 -105 -81 -171t-226 -66q-170 0 -299 94l100 158q90 -68 180 -68t90 57q0 56 -79 56q-41 0 -82 -15l-47 70l51 154q-211 16 -362 113t-195 272l389 77q61 -165 258 -165q87 0 135.5 32.5
t48.5 89.5q0 38 -27.5 65.5t-73.5 44t-106 30.5t-126 30.5t-132.5 37t-126.5 56t-106 82.5t-73.5 121.5t-27.5 169.5q0 181 153 297.5t421 116.5q241 0 398 -92t208 -277l-397 -77q-42 145 -207 145q-69 0 -113.5 -32t-44.5 -81q0 -38 27.5 -65.5t73.5 -44.5t106 -31
t126 -30t132.5 -36.5t126.5 -56.5t106 -84.5t73.5 -124.5t27.5 -172z" />
    <glyph glyph-name="scedilla" unicode="&#x15f;" horiz-adv-x="1132" 
d="M1071 297q0 -129 -104 -213.5t-295 -99.5l-19 -56q105 0 170.5 -56.5t65.5 -156.5q0 -105 -81 -171t-226 -66q-170 0 -299 94l100 158q90 -68 180 -68t90 57q0 56 -80 56q-41 0 -81 -15l-48 70l52 154q-178 14 -290 82.5t-145 191.5l347 70q31 -113 172 -113
q53 0 82.5 21t29.5 57q0 28 -26 47t-68.5 29.5t-97 23.5t-111.5 26t-111.5 40t-97 62.5t-68.5 96.5t-26 140q0 135 124.5 221t344.5 86q196 0 322 -65t163 -197l-346 -70q-25 96 -133 96q-43 0 -69.5 -18t-26.5 -49t33.5 -51t87 -32t118 -25.5t129 -38t118 -60.5t87 -102
t33.5 -156z" />
    <glyph glyph-name="Scaron" unicode="&#x160;" horiz-adv-x="1386" 
d="M840 1556h-328l-274 349h337l105 -176l104 176h330zM719 -20q-116 0 -220 23.5t-191.5 69.5t-149 122t-86.5 174l389 77q61 -165 258 -165q87 0 135.5 32.5t48.5 89.5q0 38 -27.5 65.5t-73.5 44t-106 30.5t-126 30.5t-132.5 37t-126.5 56t-106 82.5t-73.5 121.5
t-27.5 169.5q0 181 153 297.5t421 116.5q241 0 398 -92t208 -277l-397 -77q-42 145 -207 145q-69 0 -113.5 -32t-44.5 -81q0 -38 27.5 -65.5t73.5 -44.5t106 -31t126 -30t132.5 -36.5t126.5 -56.5t106 -84.5t73.5 -124.5t27.5 -172q0 -185 -157 -300t-445 -115z" />
    <glyph glyph-name="scaron" unicode="&#x161;" horiz-adv-x="1132" 
d="M723 1167h-328l-274 349h338l104 -177l105 177h329zM590 -20q-218 0 -354.5 70t-174.5 208l347 70q31 -113 172 -113q53 0 82.5 21t29.5 57q0 28 -26 47t-68.5 29.5t-97 23.5t-111.5 26t-111.5 40t-97 62.5t-68.5 96.5t-26 140q0 135 124.5 221t344.5 86q196 0 322 -65
t163 -197l-346 -70q-25 96 -133 96q-43 0 -69.5 -18t-26.5 -49t33.5 -51t87 -32t118 -25.5t129 -38t118 -60.5t87 -102t33.5 -156q0 -142 -126.5 -229.5t-354.5 -87.5z" />
    <glyph glyph-name="uni0162" unicode="&#x162;" horiz-adv-x="1331" 
d="M870 1075v-1075h-108l-25 -72q105 0 170.5 -56.5t65.5 -156.5q0 -105 -81 -171t-226 -66q-170 0 -299 94l100 158q90 -68 180 -68t90 57q0 56 -80 56q-41 0 -82 -15l-47 70l58 170h-125v1075h-424v359h1257v-359h-424z" />
    <glyph glyph-name="uni0163" unicode="&#x163;" horiz-adv-x="983" 
d="M727 -14l-20 -58q105 0 170 -56.5t65 -156.5q0 -105 -81 -171t-226 -66q-170 0 -299 94l100 158q90 -68 180 -68q45 0 68 15.5t23 41.5q0 56 -80 56q-41 0 -82 -15l-47 70l53 156q-150 21 -232.5 120.5t-82.5 284.5v346h-195v307h209l49 308h336v-308h248v-307h-248v-321
q0 -119 108 -119q51 0 99 25l80 -275q-95 -50 -195 -61z" />
    <glyph glyph-name="Tcaron" unicode="&#x164;" horiz-adv-x="1331" 
d="M829 1556h-327l-275 349h338l105 -176l104 176h330zM870 0h-409v1075h-424v359h1257v-359h-424v-1075z" />
    <glyph glyph-name="tcaron" unicode="&#x165;" horiz-adv-x="1013" 
d="M934 1116h-205l19 420h296zM637 -20q-190 0 -295.5 100t-105.5 311v346h-195v307h209l49 308h336v-308h248v-307h-248v-321q0 -119 108 -119q51 0 99 25l80 -275q-131 -67 -285 -67z" />
    <glyph glyph-name="Tbar" unicode="&#x166;" horiz-adv-x="1331" 
d="M1294 1434v-359h-424v-311h267v-215h-267v-549h-409v549h-266v215h266v311h-424v359h1257z" />
    <glyph glyph-name="tbar" unicode="&#x167;" horiz-adv-x="983" 
d="M842 322l80 -275q-131 -67 -285 -67q-190 0 -295.5 100t-105.5 311v72h-185v162h185v112h-195v307h209l49 308h336v-308h248v-307h-248v-112h237v-162h-237v-47q0 -119 108 -119q51 0 99 25z" />
    <glyph glyph-name="Utilde" unicode="&#x168;" horiz-adv-x="1558" 
d="M600 1546h-194v131q0 109 52.5 173.5t141.5 64.5q57 0 111.5 -28.5t99 -56.5t78.5 -28q69 0 69 113h195v-135q0 -110 -51.5 -172t-143.5 -62q-46 0 -90 17.5t-73 39t-63.5 39t-61.5 17.5q-70 0 -70 -113zM780 -20q-140 0 -257 38t-205.5 112.5t-138.5 193t-50 270.5v840
h410v-840q0 -121 63.5 -188.5t177.5 -67.5q113 0 176.5 67t63.5 189v840h410v-840q0 -152 -49.5 -270.5t-138 -193t-205.5 -112.5t-257 -38z" />
    <glyph glyph-name="utilde" unicode="&#x169;" horiz-adv-x="1341" 
d="M485 1157h-194v131q0 109 52.5 173.5t141.5 64.5q45 0 89.5 -17.5t73.5 -39t64 -39t62 -17.5q70 0 70 113h194v-135q0 -110 -51 -172t-143 -62q-46 0 -90.5 17.5t-73.5 39t-63.5 39t-61.5 17.5q-70 0 -70 -113zM459 -20q-169 0 -263 107t-94 306v651h400v-542
q0 -89 38.5 -137t110.5 -48q83 0 130.5 62.5t47.5 165.5v499h400v-487q0 -371 10 -557h-383l-25 164h-20q-138 -184 -352 -184z" />
    <glyph glyph-name="Umacron" unicode="&#x16a;" horiz-adv-x="1558" 
d="M1118 1608h-676v256h676v-256zM780 -20q-140 0 -257 38t-205.5 112.5t-138.5 193t-50 270.5v840h410v-840q0 -121 63.5 -188.5t177.5 -67.5q113 0 176.5 67t63.5 189v840h410v-840q0 -152 -49.5 -270.5t-138 -193t-205.5 -112.5t-257 -38z" />
    <glyph glyph-name="umacron" unicode="&#x16b;" horiz-adv-x="1341" 
d="M1004 1219h-676v256h676v-256zM459 -20q-169 0 -263 107t-94 306v651h400v-542q0 -89 38.5 -137t110.5 -48q83 0 130.5 62.5t47.5 165.5v499h400v-487q0 -371 10 -557h-383l-25 164h-20q-138 -184 -352 -184z" />
    <glyph glyph-name="Ubreve" unicode="&#x16c;" horiz-adv-x="1558" 
d="M780 1546q-173 0 -269.5 94t-96.5 265h225q0 -70 35.5 -112t105.5 -42q69 0 105.5 42t36.5 112h225q0 -171 -97 -265t-270 -94zM780 -20q-140 0 -257 38t-205.5 112.5t-138.5 193t-50 270.5v840h410v-840q0 -121 63.5 -188.5t177.5 -67.5q113 0 176.5 67t63.5 189v840
h410v-840q0 -152 -49.5 -270.5t-138 -193t-205.5 -112.5t-257 -38z" />
    <glyph glyph-name="ubreve" unicode="&#x16d;" horiz-adv-x="1341" 
d="M666 1157q-173 0 -270 94t-97 265h225q0 -70 36 -112t106 -42q68 0 104.5 42t36.5 112h225q0 -171 -96.5 -265t-269.5 -94zM459 -20q-169 0 -263 107t-94 306v651h400v-542q0 -89 38.5 -137t110.5 -48q83 0 130.5 62.5t47.5 165.5v499h400v-487q0 -371 10 -557h-383
l-25 164h-20q-138 -184 -352 -184z" />
    <glyph glyph-name="Uring" unicode="&#x16e;" horiz-adv-x="1558" 
d="M780 1505q-126 0 -206 71.5t-80 184.5t80 184.5t206 71.5t206.5 -72t80.5 -184t-80.5 -184t-206.5 -72zM780 1669q42 0 67 26t25 66t-25 66t-67 26t-67 -26t-25 -66t25 -66t67 -26zM780 -20q-140 0 -257 38t-205.5 112.5t-138.5 193t-50 270.5v840h410v-840
q0 -121 63.5 -188.5t177.5 -67.5q113 0 176.5 67t63.5 189v840h410v-840q0 -152 -49.5 -270.5t-138 -193t-205.5 -112.5t-257 -38z" />
    <glyph glyph-name="uring" unicode="&#x16f;" horiz-adv-x="1341" 
d="M666 1116q-126 0 -206.5 72t-80.5 184t80.5 184t206.5 72t206 -71.5t80 -184.5t-80 -184.5t-206 -71.5zM666 1280q42 0 67 26t25 66t-25 66t-67 26t-67.5 -26t-25.5 -66t25.5 -66t67.5 -26zM459 -20q-169 0 -263 107t-94 306v651h400v-542q0 -89 38.5 -137t110.5 -48
q83 0 130.5 62.5t47.5 165.5v499h400v-487q0 -371 10 -557h-383l-25 164h-20q-138 -184 -352 -184z" />
    <glyph glyph-name="Uhungarumlaut" unicode="&#x170;" horiz-adv-x="1558" 
d="M688 1556h-258l143 349h377zM1130 1556h-258l144 349h377zM780 -20q-140 0 -257 38t-205.5 112.5t-138.5 193t-50 270.5v840h410v-840q0 -121 63.5 -188.5t177.5 -67.5q113 0 176.5 67t63.5 189v840h410v-840q0 -152 -49.5 -270.5t-138 -193t-205.5 -112.5t-257 -38z" />
    <glyph glyph-name="uhungarumlaut" unicode="&#x171;" horiz-adv-x="1341" 
d="M573 1167h-258l144 349h377zM1016 1167h-258l143 349h377zM459 -20q-169 0 -263 107t-94 306v651h400v-542q0 -89 38.5 -137t110.5 -48q83 0 130.5 62.5t47.5 165.5v499h400v-487q0 -371 10 -557h-383l-25 164h-20q-138 -184 -352 -184z" />
    <glyph glyph-name="Uogonek" unicode="&#x172;" horiz-adv-x="1558" 
d="M1020 594v840h410v-840q0 -244 -123 -395t-332 -199q-80 -69 -116 -117t-36 -96q0 -36 23 -55t61 -19q35 0 68 11v-222q-71 -14 -141 -14q-118 0 -192.5 55.5t-74.5 165.5q0 161 181 271q-133 5 -244.5 45t-196 114.5t-131.5 191t-47 263.5v840h410v-840
q0 -121 63.5 -188.5t177.5 -67.5q113 0 176.5 67t63.5 189z" />
    <glyph glyph-name="uogonek" unicode="&#x173;" horiz-adv-x="1341" 
d="M1087 -213q0 -36 23 -55t61 -19q35 0 68 11v-222q-71 -14 -141 -14q-118 0 -192.5 55.5t-74.5 165.5q0 175 213 291h-188l-25 164h-20q-138 -184 -352 -184q-169 0 -263 107t-94 306v651h400v-542q0 -89 38.5 -137t110.5 -48q83 0 130.5 62.5t47.5 165.5v499h400v-487
q0 -371 10 -557q-80 -69 -116 -117t-36 -96z" />
    <glyph glyph-name="Wcircumflex" unicode="&#x174;" horiz-adv-x="2150" 
d="M977 1556h-330l275 349h327l275 -349h-338l-105 177zM872 0h-501l-340 1434h407l191 -1035h20l187 1035h497l187 -1035h18l195 1035h387l-342 -1434h-504l-191 1044h-20z" />
    <glyph glyph-name="wcircumflex" unicode="&#x175;" horiz-adv-x="1740" 
d="M762 1167h-330l275 349h327l275 -349h-338l-105 176zM750 0h-471l-254 1044h387l110 -675h27l98 675h457l98 -675h25l110 675h379l-254 -1044h-471l-108 696h-25z" />
    <glyph glyph-name="Ycircumflex" unicode="&#x176;" horiz-adv-x="1474" 
d="M629 1556h-330l274 349h328l275 -349h-338l-105 177zM942 0h-410v510l-501 924h463l237 -516h21l237 516h455l-502 -924v-510z" />
    <glyph glyph-name="ycircumflex" unicode="&#x177;" horiz-adv-x="1236" 
d="M514 1167h-330l275 349h327l275 -349h-338l-105 176zM709 -410h-424l127 347l-387 1107h407l182 -690h21l180 690h397z" />
    <glyph glyph-name="Ydieresis" unicode="&#x178;" horiz-adv-x="1474" 
d="M487 1546q-88 0 -146 56t-58 139t58 138.5t146 55.5t146.5 -55.5t58.5 -138.5t-58.5 -139t-146.5 -56zM987 1546q-88 0 -146.5 56t-58.5 139t58.5 138.5t146.5 55.5t146.5 -55.5t58.5 -138.5t-58.5 -139t-146.5 -56zM942 0h-410v510l-501 924h463l237 -516h21l237 516
h455l-502 -924v-510z" />
    <glyph glyph-name="Zacute" unicode="&#x179;" horiz-adv-x="1402" 
d="M852 1556h-301l147 349h445zM1321 0h-1239v328l670 757v21h-639v328h1177v-328l-669 -758v-20h700v-328z" />
    <glyph glyph-name="zacute" unicode="&#x17a;" horiz-adv-x="1114" 
d="M709 1167h-301l147 349h444zM1032 0h-950v295l426 424v20h-406v305h910v-294l-426 -424v-21h446v-305z" />
    <glyph glyph-name="Zdotaccent" unicode="&#x17b;" horiz-adv-x="1402" 
d="M700 1536q-97 0 -163 61.5t-66 153.5t66 153.5t163 61.5t164.5 -61.5t67.5 -153.5t-67.5 -153.5t-164.5 -61.5zM1321 0h-1239v328l670 757v21h-639v328h1177v-328l-669 -758v-20h700v-328z" />
    <glyph glyph-name="zdotaccent" unicode="&#x17c;" horiz-adv-x="1114" 
d="M557 1147q-97 0 -163 61.5t-66 153.5t66 153.5t163 61.5t164 -61.5t67 -153.5t-67 -153.5t-164 -61.5zM1032 0h-950v295l426 424v20h-406v305h910v-294l-426 -424v-21h446v-305z" />
    <glyph glyph-name="Zcaron" unicode="&#x17d;" horiz-adv-x="1402" 
d="M864 1556h-327l-275 349h338l105 -176l104 176h330zM1321 0h-1239v328l670 757v21h-639v328h1177v-328l-669 -758v-20h700v-328z" />
    <glyph glyph-name="zcaron" unicode="&#x17e;" horiz-adv-x="1114" 
d="M721 1167h-328l-274 349h338l104 -177l105 177h329zM1032 0h-950v295l426 424v20h-406v305h910v-294l-426 -424v-21h446v-305z" />
    <glyph glyph-name="uni018F" unicode="&#x18f;" horiz-adv-x="1533" 
d="M745 1454q220 0 383 -93t248.5 -259t85.5 -385q0 -332 -191.5 -534.5t-520.5 -202.5q-100 0 -194.5 24t-183 78.5t-154.5 134t-106 199.5t-40 266q0 64 6 141h966q-22 141 -100.5 219t-198.5 78q-99 0 -168.5 -49.5t-103.5 -142.5l-397 80q63 215 235.5 330.5
t433.5 115.5zM750 313q112 0 187 69.5t103 197.5h-565q46 -267 275 -267z" />
    <glyph glyph-name="florin" unicode="&#x192;" horiz-adv-x="1075" 
d="M205 -410h-246v338h94q132 0 150 115l104 662h-205v225h240l18 114q60 390 424 390h240v-338h-111q-131 0 -149 -115l-8 -51h227v-225h-262l-115 -728q-32 -209 -132 -298t-269 -89z" />
    <glyph glyph-name="uni019D" unicode="&#x19d;" horiz-adv-x="1599" 
d="M125 -430q-179 0 -303 59l84 289q45 -22 104 -22q53 0 86 30t33 92v1416h430l502 -838h20q-10 159 -10 354v484h399v-1434h-430l-501 838h-21q10 -159 10 -355v-485q0 -208 -101.5 -318t-301.5 -110z" />
    <glyph glyph-name="uni01CD" unicode="&#x1cd;" horiz-adv-x="1525" 
d="M1202 1905l-274 -349h-328l-274 349h338l104 -176l104 176h330zM1501 0h-428l-72 256h-487l-72 -256h-417l471 1434h534zM748 1096l-148 -533h315l-147 533h-20z" />
    <glyph glyph-name="uni01CE" unicode="&#x1ce;" horiz-adv-x="1239" 
d="M1055 1516l-275 -349h-327l-275 349h338l105 -177l104 177h330zM1135 680v-143q0 -357 10 -537h-365l-24 164h-21q-48 -93 -126 -138.5t-197 -45.5q-150 0 -241 84t-91 221q0 313 428 340l242 14v25q0 129 -148 129q-68 0 -110.5 -31.5t-49.5 -89.5l-350 71
q25 150 158.5 236t351.5 86q264 0 398.5 -101.5t134.5 -283.5zM575 260q74 0 124 49.5t51 145.5l-144 -9q-78 -4 -111.5 -28.5t-33.5 -71.5q0 -86 114 -86z" />
    <glyph glyph-name="uni01CF" unicode="&#x1cf;" horiz-adv-x="667" 
d="M498 1556h-328l-274 349h337l105 -176l104 176h330zM539 0h-410v1434h410v-1434z" />
    <glyph glyph-name="uni01D0" unicode="&#x1d0;" horiz-adv-x="624" 
d="M477 1167h-327l-275 349h338l104 -177l105 177h330zM512 0h-399v1044h399v-1044z" />
    <glyph glyph-name="uni01D1" unicode="&#x1d1;" horiz-adv-x="1576" 
d="M952 1556h-327l-275 349h338l105 -176l104 176h330zM788 -20q-221 0 -384 93t-247.5 259t-84.5 385t84.5 385t247.5 259t384 93t384 -92.5t248 -258.5t85 -386t-85 -386t-248 -258.5t-384 -92.5zM788 317q141 0 224.5 106.5t83.5 293.5t-83.5 293t-224.5 106t-224 -106
t-83 -293t83 -293.5t224 -106.5z" />
    <glyph glyph-name="uni01D2" unicode="&#x1d2;" horiz-adv-x="1245" 
d="M786 1167h-327l-275 349h338l105 -177l104 177h330zM623 -20q-137 0 -245.5 41.5t-177 115t-104 171.5t-35.5 214t35.5 214.5t104 172t177 115t245.5 41.5t245 -41.5t176.5 -115t104 -172t35.5 -214.5t-35.5 -214t-104 -171.5t-176.5 -115t-245 -41.5zM623 297
q74 0 117.5 60.5t43.5 164.5t-43.5 165t-117.5 61t-118 -61t-44 -165t44 -164.5t118 -60.5z" />
    <glyph glyph-name="uni01D3" unicode="&#x1d3;" horiz-adv-x="1558" 
d="M944 1556h-328l-274 349h338l104 -176l105 176h330zM780 -20q-140 0 -257 38t-205.5 112.5t-138.5 193t-50 270.5v840h410v-840q0 -121 63.5 -188.5t177.5 -67.5q113 0 176.5 67t63.5 189v840h410v-840q0 -152 -49.5 -270.5t-138 -193t-205.5 -112.5t-257 -38z" />
    <glyph glyph-name="uni01D4" unicode="&#x1d4;" horiz-adv-x="1341" 
d="M829 1167h-327l-275 349h338l105 -177l104 177h330zM459 -20q-169 0 -263 107t-94 306v651h400v-542q0 -89 38.5 -137t110.5 -48q83 0 130.5 62.5t47.5 165.5v499h400v-487q0 -371 10 -557h-383l-25 164h-20q-138 -184 -352 -184z" />
    <glyph glyph-name="Gcaron" unicode="&#x1e6;" horiz-adv-x="1558" 
d="M952 1556h-327l-275 349h338l105 -176l104 176h330zM813 -20q-174 0 -314 53.5t-233.5 150.5t-143.5 233t-50 300q0 333 192 535t527 202q275 0 442 -110.5t223 -325.5l-407 -84q-29 99 -98 145.5t-160 46.5q-139 0 -224.5 -109.5t-85.5 -299.5q0 -194 90 -302t252 -108
q134 0 226 66v184l-246 12v232h635v-578q-229 -243 -625 -243z" />
    <glyph glyph-name="gcaron" unicode="&#x1e7;" horiz-adv-x="1310" 
d="M793 1167h-328l-275 349h338l105 -177l104 177h330zM639 -430q-221 0 -365 78.5t-182 228.5l363 74q35 -105 180 -105q164 0 164 172v207h-21q-108 -184 -315 -184q-186 0 -294 132t-108 370q0 247 108.5 384.5t293.5 137.5q207 0 315 -184h21l26 163h383
q-10 -186 -10 -557v-475q0 -205 -138.5 -323.5t-420.5 -118.5zM629 338q77 0 123.5 56t46.5 149t-46.5 149t-123.5 56t-122.5 -55.5t-45.5 -149.5t45.5 -149.5t122.5 -55.5z" />
    <glyph glyph-name="uni01EA" unicode="&#x1ea;" horiz-adv-x="1576" 
d="M981 0q-80 -69 -116 -117t-36 -96q0 -36 23 -55t61 -19q35 0 68 11v-222q-71 -14 -141 -14q-118 0 -192.5 55.5t-74.5 165.5q0 161 181 271q-317 12 -499.5 213t-182.5 524q0 219 84.5 385t247.5 259t384 93t384 -92.5t248 -258.5t85 -386q0 -281 -138 -471.5
t-386 -245.5zM481 717q0 -187 83 -293.5t224 -106.5t224.5 106.5t83.5 293.5t-83.5 293t-224.5 106t-224 -106t-83 -293z" />
    <glyph glyph-name="uni01EB" unicode="&#x1eb;" horiz-adv-x="1245" 
d="M795 -2q-79 -68 -114.5 -115.5t-35.5 -95.5q0 -36 23 -55t61 -19q35 0 68 11v-222q-71 -14 -142 -14q-118 0 -192 55.5t-74 165.5q0 161 180 273q-245 15 -376.5 163.5t-131.5 376.5q0 116 35.5 214.5t104 172t177 115t245.5 41.5t245 -41.5t176.5 -115t104 -172
t35.5 -214.5q0 -198 -99.5 -338.5t-289.5 -185.5zM461 522q0 -104 44 -164.5t118 -60.5t117.5 60.5t43.5 164.5t-43.5 165t-117.5 61t-118 -61t-44 -165z" />
    <glyph glyph-name="Aringacute" unicode="&#x1fa;" horiz-adv-x="1525" 
d="M764 1505q-128 0 -207.5 52t-79.5 143q0 70 49 117.5t136 66.5l47 123h331l-122 -137q63 -24 98 -67.5t35 -102.5q0 -91 -79.5 -143t-207.5 -52zM764 1772q-42 0 -67 -20.5t-25 -51.5t25 -51.5t67 -20.5t67 20.5t25 51.5t-25 51.5t-67 20.5zM1501 0h-428l-72 256h-487
l-72 -256h-417l471 1434h534zM748 1096l-148 -533h315l-147 533h-20z" />
    <glyph glyph-name="aringacute" unicode="&#x1fb;" horiz-adv-x="1239" 
d="M616 1116q-128 0 -207 52t-79 143q0 71 48.5 118t135.5 66l47 123h332l-123 -137q63 -24 98 -67.5t35 -102.5q0 -91 -79.5 -143t-207.5 -52zM616 1382q-42 0 -67 -20t-25 -51t25 -51.5t67 -20.5t67.5 20.5t25.5 51.5t-25.5 51t-67.5 20zM1135 680v-143q0 -357 10 -537
h-365l-24 164h-21q-48 -93 -126 -138.5t-197 -45.5q-150 0 -241 84t-91 221q0 313 428 340l242 14v25q0 129 -148 129q-68 0 -110.5 -31.5t-49.5 -89.5l-350 71q25 150 158.5 236t351.5 86q264 0 398.5 -101.5t134.5 -283.5zM575 260q74 0 124 49.5t51 145.5l-144 -9
q-78 -4 -111.5 -28.5t-33.5 -71.5q0 -86 114 -86z" />
    <glyph glyph-name="AEacute" unicode="&#x1fc;" horiz-adv-x="2123" 
d="M1401 1556h-301l147 349h445zM459 0h-434l714 1434h1293v-328h-584v-232h502v-274h-502v-272h584v-328h-983v256h-474zM965 1106l-248 -543h332v543h-84z" />
    <glyph glyph-name="aeacute" unicode="&#x1fd;" horiz-adv-x="1775" 
d="M879 1516h444l-291 -349h-301zM1714 555q0 -65 -6 -121h-672q13 -99 57.5 -144.5t110.5 -45.5q108 0 152 116l348 -69q-119 -311 -457 -311q-239 0 -366 157q-50 -73 -152 -115t-237 -42q-197 0 -304.5 90t-107.5 237q0 150 106 237t314 87h235v18q0 70 -42.5 110
t-104.5 40q-123 0 -152 -123l-342 69q27 152 148.5 236t287.5 84q119 0 203.5 -33.5t151.5 -113.5q61 71 151.5 109t192.5 38q121 0 216 -41t152.5 -112.5t87 -162t29.5 -194.5zM1038 631h303q-7 84 -46 127t-97 43t-100.5 -42t-59.5 -128zM571 246q70 0 114 45t50 143h-147
q-63 0 -96 -26t-33 -68q0 -44 29.5 -69t82.5 -25z" />
    <glyph glyph-name="Oslashacute" unicode="&#x1fe;" horiz-adv-x="1576" 
d="M786 1905h445l-291 -349h-301zM1382 1516l-122 -213q119 -97 182 -247.5t63 -338.5q0 -220 -85 -386t-248 -258.5t-384 -92.5q-147 0 -266 40l-116 -204l-211 102l122 215q-119 97 -182 247t-63 337q0 219 84.5 385t247.5 259t384 93q140 0 265 -39l116 203zM481 717
q0 -135 43 -225l350 612q-40 12 -86 12q-141 0 -224 -106t-83 -293zM788 317q141 0 224.5 106.5t83.5 293.5q0 135 -43 225l-353 -612q44 -13 88 -13z" />
    <glyph glyph-name="oslashacute" unicode="&#x1ff;" horiz-adv-x="1241" 
d="M618 1516h445l-291 -349h-301zM1055 1102l-78 -137q100 -71 151.5 -186t51.5 -257q0 -117 -35 -214.5t-103 -171t-176 -115t-245 -41.5q-111 0 -197 24l-80 -137l-158 76l78 137q-100 71 -151.5 185.5t-51.5 256.5q0 117 35.5 215t103.5 171.5t176 115t245 41.5
q104 0 196 -25l78 138zM621 778q-88 0 -139.5 -69t-51.5 -187q0 -76 25 -137l219 385q-21 8 -53 8zM621 266q88 0 139 69t51 187q0 79 -25 140l-223 -388q24 -8 58 -8z" />
    <glyph glyph-name="uni0218" unicode="&#x218;" horiz-adv-x="1386" 
d="M719 -20q-116 0 -220 23.5t-191.5 69.5t-149 122t-86.5 174l389 77q61 -165 258 -165q87 0 135.5 32.5t48.5 89.5q0 38 -27.5 65.5t-73.5 44t-106 30.5t-126 30.5t-132.5 37t-126.5 56t-106 82.5t-73.5 121.5t-27.5 169.5q0 181 153 297.5t421 116.5q241 0 398 -92
t208 -277l-397 -77q-42 145 -207 145q-69 0 -113.5 -32t-44.5 -81q0 -38 27.5 -65.5t73.5 -44.5t106 -31t126 -30t132.5 -36.5t126.5 -56.5t106 -84.5t73.5 -124.5t27.5 -172q0 -185 -157 -300t-445 -115zM748 -430h-279l63 338h363z" />
    <glyph glyph-name="uni0219" unicode="&#x219;" horiz-adv-x="1132" 
d="M590 -20q-218 0 -354.5 70t-174.5 208l347 70q31 -113 172 -113q53 0 82.5 21t29.5 57q0 28 -26 47t-68.5 29.5t-97 23.5t-111.5 26t-111.5 40t-97 62.5t-68.5 96.5t-26 140q0 135 124.5 221t344.5 86q196 0 322 -65t163 -197l-346 -70q-25 96 -133 96q-43 0 -69.5 -18
t-26.5 -49t33.5 -51t87 -32t118 -25.5t129 -38t118 -60.5t87 -102t33.5 -156q0 -142 -126.5 -229.5t-354.5 -87.5zM614 -430h-278l63 338h363z" />
    <glyph glyph-name="uni021A" unicode="&#x21a;" horiz-adv-x="1331" 
d="M870 0h-409v1075h-424v359h1257v-359h-424v-1075zM698 -430h-278l63 338h363z" />
    <glyph glyph-name="uni021B" unicode="&#x21b;" horiz-adv-x="983" 
d="M637 -20q-190 0 -295.5 100t-105.5 311v346h-195v307h209l49 308h336v-308h248v-307h-248v-321q0 -119 108 -119q51 0 99 25l80 -275q-131 -67 -285 -67zM668 -430h-279l64 338h362z" />
    <glyph glyph-name="uni0232" unicode="&#x232;" horiz-adv-x="1474" 
d="M1075 1608h-676v256h676v-256zM942 0h-410v510l-501 924h463l237 -516h21l237 516h455l-502 -924v-510z" />
    <glyph glyph-name="uni0233" unicode="&#x233;" horiz-adv-x="1236" 
d="M961 1219h-676v256h676v-256zM709 -410h-424l127 347l-387 1107h407l182 -690h21l180 690h397z" />
    <glyph glyph-name="uni0237" unicode="&#x237;" horiz-adv-x="706" 
d="M190 -430q-179 0 -303 59l84 289q45 -22 105 -22q53 0 86 30t33 92v1026h399v-1046q0 -208 -102 -318t-302 -110z" />
    <glyph glyph-name="uni0259" unicode="&#x259;" horiz-adv-x="1216" 
d="M594 1065q137 0 244.5 -41.5t176 -115t104.5 -172t36 -214.5t-35.5 -214t-103.5 -171.5t-175 -115t-243 -41.5q-127 0 -230 40.5t-169.5 110.5t-102 161t-35.5 195q0 65 7 123h706q-27 191 -188 191q-111 0 -162 -115l-352 70q62 155 187.5 232t334.5 77zM598 244
q139 0 172 170h-340q14 -87 58.5 -128.5t109.5 -41.5z" />
    <glyph glyph-name="uni0272" unicode="&#x272;" horiz-adv-x="1423" 
d="M190 -430q-179 0 -303 59l84 289q45 -22 105 -22q53 0 86 30t33 92v469q0 352 -11 557h383l25 -163h20q138 184 353 184q169 0 262.5 -107.5t93.5 -306.5v-651h-399v543q0 89 -39 136.5t-111 47.5q-83 0 -130.5 -63t-47.5 -166v-500q0 -208 -102 -318t-302 -110z" />
    <glyph glyph-name="circumflex" unicode="&#x2c6;" horiz-adv-x="999" 
d="M391 1167h-330l275 349h328l274 -349h-338l-104 176z" />
    <glyph glyph-name="caron" unicode="&#x2c7;" horiz-adv-x="999" 
d="M664 1167h-328l-275 349h338l105 -177l104 177h330z" />
    <glyph glyph-name="breve" unicode="&#x2d8;" horiz-adv-x="856" 
d="M428 1157q-173 0 -270 94t-97 265h226q0 -70 35.5 -112t105.5 -42q68 0 104.5 42t36.5 112h226q0 -171 -97 -265t-270 -94z" />
    <glyph glyph-name="dotaccent" unicode="&#x2d9;" horiz-adv-x="583" 
d="M291 1147q-97 0 -163.5 61.5t-66.5 153.5t66.5 153.5t163.5 61.5t164 -61.5t67 -153.5t-67 -153.5t-164 -61.5z" />
    <glyph glyph-name="ring" unicode="&#x2da;" horiz-adv-x="696" 
d="M348 1116q-126 0 -206.5 72t-80.5 184t80.5 184t206.5 72t206.5 -72t80.5 -184t-80.5 -184t-206.5 -72zM348 1280q42 0 67 26t25 66t-25 66t-67 26t-67 -26t-25 -66t25 -66t67 -26z" />
    <glyph glyph-name="ogonek" unicode="&#x2db;" horiz-adv-x="530" 
d="M328 -512q-118 0 -192.5 55.5t-74.5 165.5q0 190 254 311l154 -20q-80 -69 -116 -117t-36 -96q0 -36 23 -55t61 -19q35 0 68 11v-222q-71 -14 -141 -14z" />
    <glyph glyph-name="tilde" unicode="&#x2dc;" horiz-adv-x="870" 
d="M256 1157h-195v131q0 109 53 173.5t142 64.5q45 0 89.5 -17.5t73.5 -39t64 -39t62 -17.5q69 0 69 113h195v-135q0 -110 -51.5 -172t-143.5 -62q-58 0 -112 28.5t-98 56.5t-78 28q-70 0 -70 -113z" />
    <glyph glyph-name="hungarumlaut" unicode="&#x2dd;" horiz-adv-x="1085" 
d="M319 1167h-258l144 349h377zM762 1167h-258l143 349h377z" />
    <glyph glyph-name="gravecomb" unicode="&#x300;" horiz-adv-x="0" 
d="M-61 1167h-301l-291 349h444z" />
    <glyph glyph-name="acutecomb" unicode="&#x301;" horiz-adv-x="0" 
d="M-352 1167h-301l147 349h445z" />
    <glyph glyph-name="uni0302" unicode="&#x302;" horiz-adv-x="0" 
d="M-608 1167h-330l274 349h328l275 -349h-338l-105 176z" />
    <glyph glyph-name="tildecomb" unicode="&#x303;" horiz-adv-x="0" 
d="M-614 1157h-195v131q0 109 53 173.5t142 64.5q45 0 89 -17.5t73.5 -39t64 -39t61.5 -17.5q70 0 70 113h195v-135q0 -110 -51.5 -172t-143.5 -62q-46 0 -90.5 17.5t-73.5 39t-63.5 39t-61.5 17.5q-69 0 -69 -113z" />
    <glyph glyph-name="uni0304" unicode="&#x304;" horiz-adv-x="0" 
d="M-61 1219h-676v256h676v-256z" />
    <glyph glyph-name="uni0306" unicode="&#x306;" horiz-adv-x="0" 
d="M-428 1157q-173 0 -270 94t-97 265h226q0 -70 35.5 -112t105.5 -42q68 0 104.5 42t36.5 112h226q0 -171 -97 -265t-270 -94z" />
    <glyph glyph-name="uni0307" unicode="&#x307;" horiz-adv-x="0" 
d="M-293 1147q-97 0 -163 61.5t-66 153.5t66 153.5t163 61.5t164.5 -61.5t67.5 -153.5t-67.5 -153.5t-164.5 -61.5z" />
    <glyph glyph-name="uni0308" unicode="&#x308;" horiz-adv-x="0" 
d="M-766 1157q-88 0 -146.5 56t-58.5 139t58.5 138.5t146.5 55.5t146.5 -55.5t58.5 -138.5t-58.5 -139t-146.5 -56zM-266 1157q-88 0 -146.5 56t-58.5 139t58.5 138.5t146.5 55.5t146.5 -55.5t58.5 -138.5t-58.5 -139t-146.5 -56z" />
    <glyph glyph-name="uni030A" unicode="&#x30a;" horiz-adv-x="0" 
d="M-348 1116q-126 0 -206.5 72t-80.5 184t80.5 184t206.5 72t206.5 -72t80.5 -184t-80.5 -184t-206.5 -72zM-348 1280q42 0 67 26t25 66t-25 66t-67 26t-67 -26t-25 -66t25 -66t67 -26z" />
    <glyph glyph-name="uni030B" unicode="&#x30b;" horiz-adv-x="0" 
d="M-766 1167h-258l143 349h377zM-324 1167h-258l144 349h377z" />
    <glyph glyph-name="uni030C" unicode="&#x30c;" horiz-adv-x="0" 
d="M-336 1167h-328l-274 349h338l104 -177l105 177h330z" />
    <glyph glyph-name="uni0312" unicode="&#x312;" horiz-adv-x="0" 
d="M-127 1167h-362l149 349h279z" />
    <glyph glyph-name="dotbelowcomb" unicode="&#x323;" horiz-adv-x="0" 
d="M-266 -451q-87 0 -146 55t-59 136q0 79 59.5 133.5t145.5 54.5t145.5 -54.5t59.5 -133.5q0 -81 -59 -136t-146 -55z" />
    <glyph glyph-name="uni0326" unicode="&#x326;" horiz-adv-x="0" 
d="M-209 -430h-278l63 338h363z" />
    <glyph glyph-name="uni0327" unicode="&#x327;" horiz-adv-x="0" 
d="M-268 10l-29 -82q105 0 170.5 -56.5t65.5 -156.5q0 -105 -81.5 -171t-226.5 -66q-170 0 -299 94l101 158q90 -68 180 -68t90 57q0 56 -80 56q-41 0 -82 -15l-47 70l62 180h176z" />
    <glyph glyph-name="uni0328" unicode="&#x328;" horiz-adv-x="0" 
d="M-203 -512q-118 0 -192 55.5t-74 165.5q0 190 254 311l154 -20q-80 -69 -116 -117t-36 -96q0 -36 23 -55t61 -19q35 0 68 11v-222q-71 -14 -142 -14z" />
    <glyph glyph-name="uni0338" unicode="&#x338;" horiz-adv-x="0" 
d="M-61 1516l-977 -1700l-211 102l975 1700z" />
    <glyph glyph-name="uni0394" unicode="&#x394;" horiz-adv-x="1284" 
d="M1260 0h-1235l444 1434h346zM631 932l-166 -635h350l-164 635h-20z" />
    <glyph glyph-name="uni03A9" unicode="&#x3a9;" horiz-adv-x="1556" 
d="M696 0h-583v338h178v20q-219 187 -219 484q0 173 89.5 313t251 219.5t365.5 79.5q153 0 285 -46.5t224.5 -128t145 -194.5t52.5 -243q0 -297 -219 -484v-20h178v-338h-584v358q102 71 158.5 181.5t56.5 240.5q0 150 -81 243t-216 93t-216 -93t-81 -243
q0 -122 57.5 -237.5t157.5 -184.5v-358z" />
    <glyph glyph-name="uni03BC" unicode="&#x3bc;" horiz-adv-x="1382" 
d="M492 -410h-390v1454h400v-542q0 -89 38.5 -137t110.5 -48q83 0 130.5 63.5t47.5 166.5v497h400v-610q0 -62 23 -89.5t71 -27.5h29v-317h-148q-109 0 -175.5 41t-94.5 139h-21q-35 -105 -102.5 -152.5t-144.5 -47.5q-116 0 -181 88h-20l27 -344v-134z" />
    <glyph glyph-name="pi" unicode="&#x3c0;" horiz-adv-x="1351" 
d="M512 0h-399v1044h1126v-1044h-399v696h-328v-696z" />
    <glyph glyph-name="Wgrave" unicode="&#x1e80;" horiz-adv-x="2150" 
d="M1235 1556h-301l-291 349h444zM872 0h-501l-340 1434h407l191 -1035h20l187 1035h497l187 -1035h18l195 1035h387l-342 -1434h-504l-191 1044h-20z" />
    <glyph glyph-name="wgrave" unicode="&#x1e81;" horiz-adv-x="1740" 
d="M1020 1167h-301l-291 349h444zM750 0h-471l-254 1044h387l110 -675h27l98 675h457l98 -675h25l110 675h379l-254 -1044h-471l-108 696h-25z" />
    <glyph glyph-name="Wacute" unicode="&#x1e82;" horiz-adv-x="2150" 
d="M1237 1556h-301l147 349h445zM872 0h-501l-340 1434h407l191 -1035h20l187 1035h497l187 -1035h18l195 1035h387l-342 -1434h-504l-191 1044h-20z" />
    <glyph glyph-name="wacute" unicode="&#x1e83;" horiz-adv-x="1740" 
d="M1022 1167h-301l147 349h445zM750 0h-471l-254 1044h387l110 -675h27l98 675h457l98 -675h25l110 675h379l-254 -1044h-471l-108 696h-25z" />
    <glyph glyph-name="Wdieresis" unicode="&#x1e84;" horiz-adv-x="2150" 
d="M836 1546q-88 0 -146.5 56t-58.5 139t58.5 138.5t146.5 55.5t146 -55.5t58 -138.5t-58 -139t-146 -56zM1335 1546q-88 0 -146.5 56t-58.5 139t58.5 138.5t146.5 55.5t146.5 -55.5t58.5 -138.5t-58.5 -139t-146.5 -56zM872 0h-501l-340 1434h407l191 -1035h20l187 1035
h497l187 -1035h18l195 1035h387l-342 -1434h-504l-191 1044h-20z" />
    <glyph glyph-name="wdieresis" unicode="&#x1e85;" horiz-adv-x="1740" 
d="M621 1157q-88 0 -146.5 56t-58.5 139t58.5 138.5t146.5 55.5t146 -55.5t58 -138.5t-58 -139t-146 -56zM1120 1157q-88 0 -146.5 56t-58.5 139t58.5 138.5t146.5 55.5t146.5 -55.5t58.5 -138.5t-58.5 -139t-146.5 -56zM750 0h-471l-254 1044h387l110 -675h27l98 675h457
l98 -675h25l110 675h379l-254 -1044h-471l-108 696h-25z" />
    <glyph glyph-name="uni1E9E" unicode="&#x1e9e;" horiz-adv-x="1566" 
d="M1419 1116l-313 -301q184 -17 289.5 -121.5t105.5 -275.5q0 -201 -134 -319.5t-370 -118.5q-208 0 -385 59l86 297q103 -39 224 -39q84 0 127 33.5t43 97.5q0 55 -45 90t-125 35h-197v266l291 277v20h-234q-124 0 -183.5 -69t-59.5 -193v-854h-410v854q0 286 151.5 433
t475.5 147h663v-318z" />
    <glyph glyph-name="uni1EA0" unicode="&#x1ea0;" horiz-adv-x="1525" 
d="M1030 1434l471 -1434h-428l-72 256h-487l-72 -256h-417l471 1434h534zM748 1096l-148 -533h315l-147 533h-20zM764 -72q86 0 145.5 -54.5t59.5 -133.5q0 -81 -59 -136t-146 -55t-146 55t-59 136q0 79 59.5 133.5t145.5 54.5z" />
    <glyph glyph-name="uni1EA1" unicode="&#x1ea1;" horiz-adv-x="1239" 
d="M756 164h-21q-48 -93 -126 -138.5t-197 -45.5q-150 0 -241 84t-91 221q0 313 428 340l242 14v25q0 129 -148 129q-68 0 -110.5 -31.5t-49.5 -89.5l-350 71q25 150 158.5 236t351.5 86q264 0 398.5 -101.5t134.5 -283.5v-143q0 -357 10 -537h-365zM750 455l-144 -9
q-78 -4 -111.5 -28.5t-33.5 -71.5q0 -86 114 -86q74 0 124 49.5t51 145.5zM616 -72q86 0 145.5 -54.5t59.5 -133.5q0 -81 -59 -136t-146 -55q-86 0 -145 54.5t-59 136.5q0 79 59 133.5t145 54.5z" />
    <glyph glyph-name="uni1EB8" unicode="&#x1eb8;" horiz-adv-x="1327" 
d="M1235 0h-1106v1434h1106v-328h-696v-232h614v-274h-614v-272h696v-328zM692 -451q-87 0 -146 55t-59 136q0 79 59.5 133.5t145.5 54.5t145.5 -54.5t59.5 -133.5q0 -81 -59 -136t-146 -55z" />
    <glyph glyph-name="uni1EB9" unicode="&#x1eb9;" horiz-adv-x="1216" 
d="M1155 557q0 -73 -6 -123h-707q27 -190 189 -190q111 0 162 114l352 -69q-62 -155 -187.5 -232t-334.5 -77q-137 0 -245 41.5t-176.5 114.5t-104.5 171.5t-36 214.5q0 240 144.5 391.5t412.5 151.5q127 0 230 -40.5t169.5 -110.5t102 -161.5t35.5 -195.5zM618 801
q-139 0 -172 -170h340q-14 87 -58.5 128.5t-109.5 41.5zM627 -72q86 0 145 -54.5t59 -133.5q0 -82 -59 -136.5t-145 -54.5q-87 0 -146 55t-59 136q0 79 59.5 133.5t145.5 54.5z" />
    <glyph glyph-name="uni1EBC" unicode="&#x1ebc;" horiz-adv-x="1327" 
d="M512 1546h-195v131q0 109 53 173.5t142 64.5q57 0 111.5 -28.5t99 -56.5t78.5 -28q69 0 69 113h195v-135q0 -110 -51.5 -172t-143.5 -62q-46 0 -90 17.5t-73 39t-63.5 39t-61.5 17.5q-70 0 -70 -113zM1235 0h-1106v1434h1106v-328h-696v-232h614v-274h-614v-272h696v-328
z" />
    <glyph glyph-name="uni1EBD" unicode="&#x1ebd;" horiz-adv-x="1216" 
d="M508 1270q-70 0 -70 -113h-194v131q0 109 52.5 173.5t141.5 64.5q45 0 89.5 -17.5t73.5 -39t64 -39t62 -17.5q70 0 70 113h194v-135q0 -110 -51 -172t-143 -62q-46 0 -90.5 17.5t-73.5 39t-63.5 39t-61.5 17.5zM1155 557q0 -73 -6 -123h-707q27 -190 189 -190
q111 0 162 114l352 -69q-62 -155 -187.5 -232t-334.5 -77q-137 0 -245 41.5t-176.5 114.5t-104.5 171.5t-36 214.5q0 240 144.5 391.5t412.5 151.5q127 0 230 -40.5t169.5 -110.5t102 -161.5t35.5 -195.5zM618 801q-139 0 -172 -170h340q-14 87 -58.5 128.5t-109.5 41.5z
" />
    <glyph glyph-name="uni1ECA" unicode="&#x1eca;" horiz-adv-x="667" 
d="M539 0h-410v1434h410v-1434zM334 -451q-87 0 -146 55t-59 136q0 79 59.5 133.5t145.5 54.5t145.5 -54.5t59.5 -133.5q0 -81 -59 -136t-146 -55z" />
    <glyph glyph-name="uni1ECB" unicode="&#x1ecb;" horiz-adv-x="624" 
d="M313 1147q-97 0 -163 61.5t-66 153.5t66 153.5t163 61.5t164.5 -61.5t67.5 -153.5t-67.5 -153.5t-164.5 -61.5zM512 0h-399v1044h399v-1044zM313 -451q-86 0 -145 54.5t-59 136.5q0 79 59 133.5t145 54.5t145.5 -54.5t59.5 -133.5q0 -81 -59 -136t-146 -55z" />
    <glyph glyph-name="uni1ECC" unicode="&#x1ecc;" horiz-adv-x="1576" 
d="M788 -20q-221 0 -384 93t-247.5 259t-84.5 385t84.5 385t247.5 259t384 93t384 -92.5t248 -258.5t85 -386t-85 -386t-248 -258.5t-384 -92.5zM788 317q141 0 224.5 106.5t83.5 293.5t-83.5 293t-224.5 106t-224 -106t-83 -293t83 -293.5t224 -106.5zM788 -451
q-86 0 -145 54.5t-59 136.5q0 79 59 133.5t145 54.5t145.5 -54.5t59.5 -133.5q0 -81 -59 -136t-146 -55z" />
    <glyph glyph-name="uni1ECD" unicode="&#x1ecd;" horiz-adv-x="1245" 
d="M623 -20q-137 0 -245.5 41.5t-177 115t-104 171.5t-35.5 214t35.5 214.5t104 172t177 115t245.5 41.5t245 -41.5t176.5 -115t104 -172t35.5 -214.5t-35.5 -214t-104 -171.5t-176.5 -115t-245 -41.5zM623 297q74 0 117.5 60.5t43.5 164.5t-43.5 165t-117.5 61t-118 -61
t-44 -165t44 -164.5t118 -60.5zM623 -451q-87 0 -146 55t-59 136q0 79 59.5 133.5t145.5 54.5t145 -54.5t59 -133.5q0 -82 -59 -136.5t-145 -54.5z" />
    <glyph glyph-name="uni1EE4" unicode="&#x1ee4;" horiz-adv-x="1558" 
d="M780 -20q-140 0 -257 38t-205.5 112.5t-138.5 193t-50 270.5v840h410v-840q0 -121 63.5 -188.5t177.5 -67.5q113 0 176.5 67t63.5 189v840h410v-840q0 -152 -49.5 -270.5t-138 -193t-205.5 -112.5t-257 -38zM780 -451q-87 0 -146 55t-59 136q0 79 59.5 133.5t145.5 54.5
t145.5 -54.5t59.5 -133.5q0 -81 -59 -136t-146 -55z" />
    <glyph glyph-name="uni1EE5" unicode="&#x1ee5;" horiz-adv-x="1341" 
d="M459 -20q-169 0 -263 107t-94 306v651h400v-542q0 -89 38.5 -137t110.5 -48q83 0 130.5 62.5t47.5 165.5v499h400v-487q0 -371 10 -557h-383l-25 164h-20q-138 -184 -352 -184zM666 -451q-87 0 -146 55t-59 136q0 79 59.5 133.5t145.5 54.5t145 -54.5t59 -133.5
q0 -82 -59 -136.5t-145 -54.5z" />
    <glyph glyph-name="Ygrave" unicode="&#x1ef2;" horiz-adv-x="1474" 
d="M887 1556h-301l-291 349h444zM942 0h-410v510l-501 924h463l237 -516h21l237 516h455l-502 -924v-510z" />
    <glyph glyph-name="ygrave" unicode="&#x1ef3;" horiz-adv-x="1236" 
d="M772 1167h-301l-291 349h445zM709 -410h-424l127 347l-387 1107h407l182 -690h21l180 690h397z" />
    <glyph glyph-name="uni1EF8" unicode="&#x1ef8;" horiz-adv-x="1474" 
d="M557 1546h-195v131q0 109 53 173.5t142 64.5q57 0 111.5 -28.5t99 -56.5t78.5 -28q69 0 69 113h195v-135q0 -110 -51.5 -172t-143.5 -62q-46 0 -90 17.5t-73 39t-63.5 39t-61.5 17.5q-70 0 -70 -113zM942 0h-410v510l-501 924h463l237 -516h21l237 516h455l-502 -924
v-510z" />
    <glyph glyph-name="uni1EF9" unicode="&#x1ef9;" horiz-adv-x="1236" 
d="M442 1157h-194v131q0 109 52.5 173.5t141.5 64.5q45 0 89.5 -17.5t73.5 -39t64 -39t62 -17.5q70 0 70 113h194v-135q0 -110 -51 -172t-143 -62q-46 0 -90.5 17.5t-73.5 39t-63.5 39t-61.5 17.5q-70 0 -70 -113zM709 -410h-424l127 347l-387 1107h407l182 -690h21l180 690
h397z" />
    <glyph glyph-name="endash" unicode="&#x2013;" 
d="M993 430h-942v287h942v-287z" />
    <glyph glyph-name="emdash" unicode="&#x2014;" horiz-adv-x="1515" 
d="M1464 430h-1413v287h1413v-287z" />
    <glyph glyph-name="quoteleft" unicode="&#x2018;" horiz-adv-x="532" 
d="M344 1454l82 -65q-120 -136 -137 -261q80 -8 131 -59.5t51 -126.5q0 -85 -57.5 -139.5t-145.5 -54.5q-91 0 -149 56t-58 157q0 120 71 249.5t212 243.5z" />
    <glyph glyph-name="quoteright" unicode="&#x2019;" horiz-adv-x="532" 
d="M188 748l-82 65q122 137 138 260q-80 8 -131.5 60t-51.5 127q0 85 57.5 139.5t145.5 54.5q91 0 149 -56t58 -157q0 -120 -71 -249.5t-212 -243.5z" />
    <glyph glyph-name="quotesinglbase" unicode="&#x201a;" horiz-adv-x="532" 
d="M188 -338l-82 66q122 137 138 260q-80 8 -131.5 59.5t-51.5 126.5q0 85 57.5 140t145.5 55q91 0 149 -56t58 -157q0 -120 -71 -250t-212 -244z" />
    <glyph glyph-name="quotedblleft" unicode="&#x201c;" horiz-adv-x="1024" 
d="M344 1454l82 -65q-120 -136 -137 -261q80 -8 131 -59.5t51 -126.5q0 -85 -57.5 -139.5t-145.5 -54.5q-91 0 -149 56t-58 157q0 120 71 249.5t212 243.5zM836 1454l82 -65q-121 -137 -138 -261q80 -8 131.5 -59.5t51.5 -126.5q0 -85 -57.5 -139.5t-145.5 -54.5
q-91 0 -149 56t-58 157q0 120 71 249.5t212 243.5z" />
    <glyph glyph-name="quotedblright" unicode="&#x201d;" horiz-adv-x="1024" 
d="M188 748l-82 65q122 137 138 260q-80 8 -131.5 60t-51.5 127q0 85 57.5 139.5t145.5 54.5q91 0 149 -56t58 -157q0 -120 -71 -249.5t-212 -243.5zM680 748l-82 65q120 136 137 260q-80 8 -131 60t-51 127q0 85 57.5 139.5t145.5 54.5q91 0 149 -56t58 -157
q0 -120 -71 -249.5t-212 -243.5z" />
    <glyph glyph-name="quotedblbase" unicode="&#x201e;" horiz-adv-x="1024" 
d="M188 -338l-82 66q122 137 138 260q-80 8 -131.5 59.5t-51.5 126.5q0 85 57.5 140t145.5 55q91 0 149 -56t58 -157q0 -120 -71 -250t-212 -244zM680 -338l-82 66q120 136 137 260q-80 8 -131 59.5t-51 126.5q0 85 57.5 140t145.5 55q91 0 149 -56t58 -157q0 -120 -71 -250
t-212 -244z" />
    <glyph glyph-name="dagger" unicode="&#x2020;" horiz-adv-x="1167" 
d="M778 -205h-389v922h-348v358h348v359h389v-359h348v-358h-348v-922z" />
    <glyph glyph-name="daggerdbl" unicode="&#x2021;" horiz-adv-x="1167" 
d="M778 -205h-389v359h-348v317h348v287h-348v317h348v359h389v-359h348v-317h-348v-287h348v-317h-348v-359z" />
    <glyph glyph-name="bullet" unicode="&#x2022;" horiz-adv-x="614" 
d="M307 307q-103 0 -174.5 66.5t-71.5 169.5t71.5 169t174.5 66t174.5 -66t71.5 -169t-71.5 -169.5t-174.5 -66.5z" />
    <glyph glyph-name="ellipsis" unicode="&#x2026;" horiz-adv-x="1597" 
d="M276 -20q-91 0 -153 57.5t-62 148.5q0 88 62.5 145.5t152.5 57.5q91 0 153.5 -57.5t62.5 -145.5q0 -91 -62.5 -148.5t-153.5 -57.5zM799 -20q-91 0 -153 57.5t-62 148.5q0 88 62.5 145.5t152.5 57.5t152.5 -57.5t62.5 -145.5q0 -91 -62 -148.5t-153 -57.5zM1321 -20
q-91 0 -153 57.5t-62 148.5q0 88 62.5 145.5t152.5 57.5t152.5 -57.5t62.5 -145.5q0 -91 -62 -148.5t-153 -57.5z" />
    <glyph glyph-name="perthousand" unicode="&#x2030;" horiz-adv-x="2715" 
d="M444 707q-182 0 -292.5 106.5t-110.5 267.5q0 159 110.5 266t292.5 107q183 0 294.5 -107t111.5 -266q0 -161 -111.5 -267.5t-294.5 -106.5zM1536 1313l-1047 -1333l-180 141l1047 1333zM444 952q58 0 91.5 36.5t33.5 92.5t-33.5 92.5t-91.5 36.5q-57 0 -89.5 -36.5
t-32.5 -92.5t32.5 -92.5t89.5 -36.5zM1399 -20q-182 0 -293 107t-111 267q0 159 111 266t293 107q183 0 294 -107t111 -266q0 -161 -111 -267.5t-294 -106.5zM2269 -20q-182 0 -292.5 106.5t-110.5 267.5q0 159 110.5 266t292.5 107q183 0 294.5 -107t111.5 -266
q0 -161 -111.5 -267.5t-294.5 -106.5zM1399 225q58 0 91.5 36.5t33.5 92.5q0 55 -33.5 91t-91.5 36q-57 0 -90 -36.5t-33 -90.5q0 -56 33 -92.5t90 -36.5zM2269 225q58 0 91.5 36.5t33.5 92.5q0 55 -33.5 91t-91.5 36q-57 0 -90 -36.5t-33 -90.5q0 -56 33 -92.5t90 -36.5z
" />
    <glyph glyph-name="guilsinglleft" unicode="&#x2039;" horiz-adv-x="839" 
d="M788 133h-391l-366 399l366 400h391l-374 -400z" />
    <glyph glyph-name="guilsinglright" unicode="&#x203a;" horiz-adv-x="839" 
d="M809 532l-367 -399h-391l375 399l-375 400h391z" />
    <glyph glyph-name="fraction" unicode="&#x2044;" horiz-adv-x="417" 
d="M-127 0h-242l912 1434h243z" />
    <glyph glyph-name="uni2070" unicode="&#x2070;" horiz-adv-x="802" 
d="M401 911q-166 0 -258 100.5t-92 268.5t92 268.5t258 100.5q167 0 259 -100.5t92 -268.5t-92 -268.5t-259 -100.5zM401 1120q54 0 84.5 42.5t30.5 117.5t-30.5 117.5t-84.5 42.5t-84 -42.5t-30 -117.5q0 -77 29.5 -118.5t84.5 -41.5z" />
    <glyph glyph-name="uni2074" unicode="&#x2074;" horiz-adv-x="712" 
d="M590 922h-236v112h-323v199l305 405h254v-419h82v-185h-82v-112zM354 1378l-123 -159h123v159z" />
    <glyph glyph-name="uni2075" unicode="&#x2075;" horiz-adv-x="714" 
d="M367 911q-126 0 -216 50.5t-110 144.5l238 47q20 -57 88 -57q32 0 51.5 17t19.5 46q0 30 -19 47t-52 17q-43 0 -74 -31l-209 39l29 407h489v-194h-291l-6 -70h14q55 19 105 19q113 0 181.5 -64t68.5 -170q0 -123 -79.5 -185.5t-227.5 -62.5z" />
    <glyph glyph-name="uni2076" unicode="&#x2076;" horiz-adv-x="735" 
d="M602 1626l-162 -203q118 -6 186 -71.5t68 -171.5q0 -121 -88 -195t-239 -74q-145 0 -235.5 74.5t-90.5 194.5q0 70 23.5 120.5t80.5 129.5l152 208h305v-12zM369 1102q41 0 65.5 22t24.5 56t-25 57t-65 23q-41 0 -67 -23t-26 -57t26 -56t67 -22z" />
    <glyph glyph-name="uni2077" unicode="&#x2077;" horiz-adv-x="651" 
d="M360 922h-274l238 479v12h-283v225h569v-213z" />
    <glyph glyph-name="uni2078" unicode="&#x2078;" horiz-adv-x="712" 
d="M356 911q-139 0 -227 61t-88 161q0 53 30.5 97t82.5 68q-42 22 -67.5 62t-25.5 84q0 95 81 150t214 55t214 -55t81 -150q0 -43 -24.5 -83t-67.5 -63q51 -24 82 -68t31 -97q0 -100 -88.5 -161t-227.5 -61zM356 1360q31 0 49.5 16.5t18.5 42.5t-18.5 43t-49.5 17t-49 -17
t-18 -43t18 -42.5t49 -16.5zM356 1081q34 0 57 19t23 51t-22 51t-58 19t-58 -19t-22 -51t23 -51t57 -19z" />
    <glyph glyph-name="uni2079" unicode="&#x2079;" horiz-adv-x="735" 
d="M369 1649q145 0 235 -74.5t90 -194.5q0 -70 -23.5 -120.5t-80.5 -129.5l-152 -208h-305v12l162 203q-118 6 -186 71.5t-68 171.5q0 121 88.5 195t239.5 74zM367 1458q-41 0 -66 -22t-25 -56t25 -57t66 -23t66.5 23t25.5 57t-25.5 56t-66.5 22z" />
    <glyph glyph-name="uni2080" unicode="&#x2080;" horiz-adv-x="802" 
d="M401 -215q-166 0 -258 100.5t-92 268.5q0 167 92 267.5t258 100.5q167 0 259 -100t92 -268t-92 -268.5t-259 -100.5zM401 -6q54 0 84.5 42.5t30.5 117.5t-30.5 117t-84.5 42t-84 -42t-30 -117q0 -77 29.5 -118.5t84.5 -41.5z" />
    <glyph glyph-name="uni2081" unicode="&#x2081;" horiz-adv-x="507" 
d="M426 -205h-236v457h-10l-139 -74v234l203 100h182v-717z" />
    <glyph glyph-name="uni2082" unicode="&#x2082;" horiz-adv-x="675" 
d="M635 -205h-578v187l207 155q135 100 135 158q0 22 -16.5 35.5t-42.5 13.5q-62 0 -84 -61l-225 47q20 93 101.5 142.5t203.5 49.5q140 0 219.5 -59.5t79.5 -165.5q0 -79 -48 -137t-147 -125l-32 -23v-12h227v-205z" />
    <glyph glyph-name="uni2083" unicode="&#x2083;" horiz-adv-x="716" 
d="M629 324l-150 -101q88 -12 137.5 -67t49.5 -140q0 -108 -79 -169.5t-227 -61.5q-132 0 -217 52t-102 153l233 45q13 -66 86 -66q32 0 51 15.5t19 40.5q0 27 -20.5 43t-57.5 16h-125v121l133 90v12h-288v205h557v-188z" />
    <glyph glyph-name="uni2084" unicode="&#x2084;" horiz-adv-x="712" 
d="M590 -205h-236v113h-323v198l305 406h254v-420h82v-184h-82v-113zM354 252l-123 -160h123v160z" />
    <glyph glyph-name="uni2085" unicode="&#x2085;" horiz-adv-x="714" 
d="M367 -215q-126 0 -216 50.5t-110 144.5l238 47q21 -58 88 -58q32 0 51.5 17.5t19.5 46.5t-18.5 46t-52.5 17q-44 0 -74 -30l-209 38l29 408h489v-195h-291l-6 -69h14q52 18 105 18q113 0 181.5 -63.5t68.5 -169.5q0 -123 -79.5 -185.5t-227.5 -62.5z" />
    <glyph glyph-name="uni2086" unicode="&#x2086;" horiz-adv-x="735" 
d="M602 500l-162 -203q118 -6 186 -72t68 -172q0 -121 -88 -194.5t-239 -73.5q-145 0 -235.5 74t-90.5 194q0 70 23.5 120.5t80.5 129.5l152 209h305v-12zM369 -25q41 0 65.5 22t24.5 56t-25 57t-65 23q-41 0 -67 -23t-26 -57t26 -56t67 -22z" />
    <glyph glyph-name="uni2087" unicode="&#x2087;" horiz-adv-x="651" 
d="M360 -205h-274l238 479v13h-283v225h569v-213z" />
    <glyph glyph-name="uni2088" unicode="&#x2088;" horiz-adv-x="712" 
d="M356 -215q-140 0 -227.5 60.5t-87.5 160.5q0 53 30.5 97.5t82.5 68.5q-42 22 -67.5 61.5t-25.5 83.5q0 95 81 150t214 55t214 -55t81 -150q0 -43 -24.5 -82.5t-67.5 -62.5q51 -24 82 -68.5t31 -97.5q0 -100 -88 -160.5t-228 -60.5zM356 233q31 0 49.5 17t18.5 43
t-18.5 42.5t-49.5 16.5t-49 -16.5t-18 -42.5t18 -43t49 -17zM356 -45q34 0 57 19t23 51t-22 50.5t-58 18.5t-58 -18.5t-22 -50.5t23 -51t57 -19z" />
    <glyph glyph-name="uni2089" unicode="&#x2089;" horiz-adv-x="735" 
d="M369 522q145 0 235 -74t90 -194q0 -70 -23.5 -120.5t-80.5 -129.5l-152 -209h-305v12l162 203q-118 6 -186 72t-68 172q0 121 88.5 194.5t239.5 73.5zM367 332q-41 0 -66 -22t-25 -56t25 -57t66 -23t66.5 23t25.5 57t-25.5 56t-66.5 22z" />
    <glyph glyph-name="Euro" unicode="&#x20ac;" horiz-adv-x="1617" 
d="M877 -20q-271 0 -450 137t-237 375h-159v174h135q-2 16 -2 51t2 51h-135v174h159q58 238 237 375t450 137q275 0 445.5 -124.5t223.5 -362.5l-405 -82q-26 114 -96 174.5t-168 60.5q-91 0 -158.5 -46t-104.5 -132h287v-174h-326q-2 -18 -2 -51q0 -35 2 -51h326v-174h-287
q37 -86 104.5 -132.5t158.5 -46.5q101 0 173.5 62t100.5 174l405 -82q-54 -239 -226.5 -363t-452.5 -124z" />
    <glyph glyph-name="uni2116" unicode="&#x2116;" horiz-adv-x="2453" 
d="M2013 717q-163 0 -271 105t-108 263q0 159 108 264t271 105t271 -105t108 -264t-108 -263.5t-271 -104.5zM528 0h-399v1434h430l502 -838h20q-10 159 -10 354v484h399v-1434h-430l-501 838h-21q10 -159 10 -355v-483zM2013 948q58 0 93.5 37.5t35.5 99.5q0 61 -36 99.5
t-93 38.5t-93 -38.5t-36 -99.5q0 -62 35.5 -99.5t93.5 -37.5zM2372 358h-717v246h717v-246z" />
    <glyph glyph-name="uni2117" unicode="&#x2117;" horiz-adv-x="1525" 
d="M762 -20q-209 0 -375 99t-256 267t-90 371q0 150 53 285t146.5 235t229 158.5t292.5 58.5q209 0 375.5 -99.5t257 -267.5t90.5 -370q0 -204 -90.5 -372t-257 -266.5t-375.5 -98.5zM762 139q161 0 288.5 77.5t196 209t68.5 291.5q0 159 -68.5 291t-196 210t-288.5 78
t-288 -78.5t-195 -210.5t-68 -290q0 -161 68 -292t195 -208.5t288 -77.5zM709 358h-201v717h346q119 0 187.5 -62t68.5 -177q0 -114 -68 -173t-188 -59h-145v-246zM709 918v-166h108q40 0 66 23t26 61t-25.5 60t-66.5 22h-108z" />
    <glyph glyph-name="trademark" unicode="&#x2122;" horiz-adv-x="1683" 
d="M459 717h-215v528h-213v189h639v-189h-211v-528zM944 717h-196v717h290l146 -498l145 498h293v-717h-207v454h-16l-133 -454h-172l-133 454h-17v-454z" />
    <glyph glyph-name="uni2150" unicode="&#x2150;" horiz-adv-x="1597" 
d="M426 717h-236v457h-10l-139 -74v233l203 101h182v-717zM401 0h-241l911 1434h244zM1307 0h-275l238 479v13h-283v225h569v-213z" />
    <glyph glyph-name="uni2151" unicode="&#x2151;" horiz-adv-x="1660" 
d="M190 717v457h-10l-139 -74v233l203 101h182v-717h-236zM160 0l911 1434h244l-914 -1434h-241zM1294 727q145 0 235.5 -74t90.5 -194q0 -70 -23.5 -120.5t-80.5 -129.5l-152 -209h-305v12l162 203q-118 6 -186 72t-68 172q0 121 88 194.5t239 73.5zM1292 537
q-41 0 -65.5 -22t-24.5 -56t25 -57t65 -23q41 0 66.5 23t25.5 57t-25.5 56t-66.5 22z" />
    <glyph glyph-name="uni2152" unicode="&#x2152;" horiz-adv-x="2256" 
d="M426 717h-236v457h-10l-139 -74v233l203 101h182v-717zM401 0h-241l911 1434h244zM1855 -10q-166 0 -258 100.5t-92 267.5q0 168 92 268.5t258 100.5q167 0 259 -100.5t92 -268.5t-92 -268t-259 -100zM1372 0h-235v457h-11l-139 -74v233l203 101h182v-717zM1855 199
q54 0 84.5 42t30.5 117t-30.5 117.5t-84.5 42.5t-84 -42.5t-30 -117.5q0 -77 29.5 -118t84.5 -41z" />
    <glyph glyph-name="uni2153" unicode="&#x2153;" horiz-adv-x="1662" 
d="M190 717v457h-10l-139 -74v233l203 101h182v-717h-236zM160 0l911 1434h244l-914 -1434h-241zM1575 528l-150 -100q88 -12 137.5 -67t49.5 -140q0 -108 -78.5 -169.5t-226.5 -61.5q-132 0 -217.5 52t-102.5 153l234 45q13 -66 86 -66q32 0 50.5 15t18.5 40
q0 27 -20.5 43.5t-57.5 16.5h-124v121l133 90v12h-289v205h557v-189z" />
    <glyph glyph-name="uni2154" unicode="&#x2154;" horiz-adv-x="1810" 
d="M57 903l207 156q135 100 135 158q0 22 -16.5 35.5t-42.5 13.5q-62 0 -84 -62l-225 47q20 93 102 143t203 50q140 0 219.5 -59.5t79.5 -165.5q0 -80 -48 -138t-147 -125l-32 -22v-12h227v-205h-578v186zM307 0l912 1434h243l-913 -1434h-242zM1722 528l-149 -100
q88 -12 137 -67t49 -140q0 -108 -78.5 -169.5t-226.5 -61.5q-132 0 -217 52t-102 153l233 45q13 -66 86 -66q32 0 51 15t19 40q0 27 -20.5 43.5t-57.5 16.5h-125v121l133 90v12h-289v205h557v-189z" />
    <glyph glyph-name="uni2155" unicode="&#x2155;" horiz-adv-x="1650" 
d="M426 717h-236v457h-10l-139 -74v233l203 101h182v-717zM401 0h-241l911 1434h244zM1303 -10q-127 0 -216.5 50.5t-109.5 143.5l237 47q20 -57 89 -57q32 0 51.5 17.5t19.5 46.5t-18.5 46t-52.5 17q-43 0 -74 -31l-209 39l29 408h489v-195h-291l-6 -69h14q52 18 105 18
q113 0 181.5 -63.5t68.5 -169.5q0 -123 -79.5 -185.5t-227.5 -62.5z" />
    <glyph glyph-name="uni2156" unicode="&#x2156;" horiz-adv-x="1798" 
d="M635 717h-578v186l207 156q135 100 135 158q0 22 -16.5 35.5t-42.5 13.5q-62 0 -84 -62l-225 47q20 93 102 143t203 50q140 0 219.5 -59.5t79.5 -165.5q0 -80 -48 -138t-147 -125l-32 -22v-12h227v-205zM549 0h-242l912 1434h243zM1450 -10q-127 0 -216.5 50.5
t-109.5 143.5l238 47q20 -57 88 -57q32 0 52 17.5t20 46.5t-19 46t-53 17q-43 0 -74 -31l-209 39l29 408h490v-195h-291l-6 -69h14q52 18 104 18q113 0 181.5 -63.5t68.5 -169.5q0 -123 -79.5 -185.5t-227.5 -62.5z" />
    <glyph glyph-name="uni2157" unicode="&#x2157;" horiz-adv-x="1839" 
d="M666 938q0 -108 -79 -169.5t-227 -61.5q-132 0 -217 51.5t-102 152.5l233 45q13 -65 86 -65q32 0 51 15t19 40q0 27 -20.5 43.5t-57.5 16.5h-125v120l133 91v12h-288v205h557v-189l-150 -100q88 -12 137.5 -67t49.5 -140zM348 0l912 1434h243l-913 -1434h-242zM1548 471
q113 0 181.5 -63.5t68.5 -169.5q0 -123 -79.5 -185.5t-227.5 -62.5q-127 0 -216.5 50.5t-109.5 143.5l238 47q20 -57 88 -57q32 0 52 17.5t20 46.5t-19 46t-53 17q-43 0 -74 -31l-209 39l29 408h489v-195h-290l-6 -69h14q52 18 104 18z" />
    <glyph glyph-name="uni2158" unicode="&#x2158;" horiz-adv-x="1835" 
d="M590 717h-236v112h-323v199l305 406h254v-420h82v-185h-82v-112zM586 0h-242l911 1434h244zM354 1174l-123 -160h123v160zM1487 -10q-127 0 -216.5 50.5t-109.5 143.5l238 47q20 -57 88 -57q32 0 52 17.5t20 46.5t-19 46t-53 17q-43 0 -74 -31l-209 39l29 408h489v-195
h-290l-7 -69h15q52 18 104 18q113 0 181.5 -63.5t68.5 -169.5q0 -123 -79.5 -185.5t-227.5 -62.5z" />
    <glyph glyph-name="uni2159" unicode="&#x2159;" horiz-adv-x="1609" 
d="M190 717v457h-10l-139 -74v233l203 101h182v-717h-236zM160 0l911 1434h244l-914 -1434h-241zM1477 705l-162 -203q118 -6 186 -72t68 -172q0 -121 -88.5 -194.5t-239.5 -73.5q-145 0 -235.5 74t-90.5 194q0 48 15 92.5t33 73.5t57 84l151 209h306v-12zM1243 180
q41 0 65.5 22t24.5 56t-25 57t-65 23q-41 0 -66.5 -23t-25.5 -57t25.5 -56t66.5 -22z" />
    <glyph glyph-name="uni215A" unicode="&#x215a;" horiz-adv-x="1796" 
d="M674 954q0 -123 -79.5 -185t-227.5 -62q-127 0 -216.5 50.5t-109.5 143.5l238 47q20 -57 88 -57q32 0 51.5 17t19.5 46q0 30 -19 47t-52 17q-43 0 -74 -31l-209 39l29 408h489v-195h-291l-6 -70h14q55 19 105 19q113 0 181.5 -64t68.5 -170zM346 0l911 1434h244
l-913 -1434h-242zM1663 705l-162 -203q118 -6 186 -72t68 -172q0 -121 -88.5 -194.5t-239.5 -73.5q-145 0 -235 74t-90 194q0 70 23.5 120.5t80.5 129.5l152 209h305v-12zM1430 180q41 0 65.5 22t24.5 56t-25 57t-65 23q-41 0 -67 -23t-26 -57t26 -56t67 -22z" />
    <glyph glyph-name="oneeighth" unicode="&#x215b;" horiz-adv-x="1638" 
d="M426 717h-236v457h-10l-139 -74v233l203 101h182v-717zM401 0h-241l911 1434h244zM1282 -10q-140 0 -227.5 60.5t-87.5 160.5q0 54 30.5 98.5t81.5 67.5q-41 22 -66.5 61.5t-25.5 83.5q0 95 81 150t214 55t214 -55t81 -150q0 -43 -24.5 -82.5t-67.5 -62.5
q50 -24 81 -68.5t31 -97.5q0 -100 -87.5 -160.5t-227.5 -60.5zM1282 438q31 0 49.5 17t18.5 43t-18.5 42.5t-49.5 16.5t-49.5 -16.5t-18.5 -42.5t18.5 -43t49.5 -17zM1282 160q35 0 57.5 18.5t22.5 50.5t-22 51t-58 19t-58 -19t-22 -51t22.5 -50.5t57.5 -18.5z" />
    <glyph glyph-name="threeeighths" unicode="&#x215c;" horiz-adv-x="1826" 
d="M666 938q0 -108 -79 -169.5t-227 -61.5q-132 0 -217 51.5t-102 152.5l233 45q13 -65 86 -65q32 0 51 15t19 40q0 27 -20.5 43.5t-57.5 16.5h-125v120l133 91v12h-288v205h557v-189l-150 -100q88 -12 137.5 -67t49.5 -140zM348 0l912 1434h243l-913 -1434h-242zM1673 377
q51 -24 82 -68.5t31 -97.5q0 -100 -88 -160.5t-228 -60.5t-227.5 60.5t-87.5 160.5q0 53 30.5 97.5t82.5 68.5q-41 22 -66.5 61.5t-25.5 83.5q0 95 80.5 150t213.5 55t214 -55t81 -150q0 -43 -24.5 -82.5t-67.5 -62.5zM1470 557q-31 0 -49 -16.5t-18 -42.5t18 -43t49 -17
t49.5 17t18.5 43t-18.5 42.5t-49.5 16.5zM1470 160q35 0 57.5 18.5t22.5 50.5t-22 51t-58 19t-57.5 -19t-21.5 -51t22 -50.5t57 -18.5z" />
    <glyph glyph-name="fiveeighths" unicode="&#x215d;" horiz-adv-x="1824" 
d="M367 707q-127 0 -216.5 50.5t-109.5 143.5l238 47q20 -57 88 -57q32 0 51.5 17t19.5 46q0 30 -19 47t-52 17q-43 0 -74 -31l-209 39l29 408h489v-195h-291l-6 -70h14q55 19 105 19q113 0 181.5 -64t68.5 -170q0 -123 -79.5 -185t-227.5 -62zM588 0h-242l911 1434h244z
M1468 -10q-140 0 -227.5 60.5t-87.5 160.5q0 53 30.5 97.5t82.5 68.5q-41 22 -66.5 61.5t-25.5 83.5q0 95 80.5 150t213.5 55t214 -55t81 -150q0 -43 -24.5 -82.5t-67.5 -62.5q51 -24 82 -68.5t31 -97.5q0 -100 -88 -160.5t-228 -60.5zM1468 438q31 0 49.5 17t18.5 43
t-18.5 42.5t-49.5 16.5t-49 -16.5t-18 -42.5t18 -43t49 -17zM1468 160q35 0 57.5 18.5t22.5 50.5t-22 51t-58 19t-57.5 -19t-21.5 -51t22 -50.5t57 -18.5z" />
    <glyph glyph-name="seveneighths" unicode="&#x215e;" horiz-adv-x="1679" 
d="M360 717h-274l238 479v12h-283v226h569v-213zM442 0h-241l911 1434h244zM1323 -10q-140 0 -227.5 60.5t-87.5 160.5q0 54 30.5 98.5t81.5 67.5q-41 22 -66.5 61.5t-25.5 83.5q0 95 81 150t214 55t214 -55t81 -150q0 -43 -24.5 -82.5t-67.5 -62.5q50 -24 81 -68.5
t31 -97.5q0 -100 -87.5 -160.5t-227.5 -60.5zM1323 438q31 0 49.5 17t18.5 43t-18.5 42.5t-49.5 16.5t-49.5 -16.5t-18.5 -42.5t18.5 -43t49.5 -17zM1323 160q35 0 57.5 18.5t22.5 50.5t-22 51t-58 19t-58 -19t-22 -51t22.5 -50.5t57.5 -18.5z" />
    <glyph glyph-name="uni215F" unicode="&#x215f;" horiz-adv-x="1325" 
d="M426 717h-236v457h-10l-139 -74v233l203 101h182v-717zM330 0h-242l911 1434h244z" />
    <glyph glyph-name="partialdiff" unicode="&#x2202;" horiz-adv-x="1191" 
d="M586 -20q-232 0 -378.5 129.5t-146.5 341.5q0 128 48.5 231t148.5 166t236 63q66 0 117 -14t106 -57h20q-55 276 -385 276q-87 0 -200 -29v328q139 19 231 19q118 0 219.5 -26t177 -70.5t135.5 -107.5t99.5 -135t66 -154.5t38 -163.5t11.5 -165q0 -298 -138 -465
t-406 -167zM586 256q77 0 121.5 53.5t44.5 141.5q0 87 -44.5 140.5t-121.5 53.5t-121.5 -53.5t-44.5 -140.5q0 -86 47 -140.5t119 -54.5z" />
    <glyph glyph-name="emptyset" unicode="&#x2205;" horiz-adv-x="1228" 
d="M422 209l-84 -148l-158 76l92 160q-94 75 -147 184.5t-53 235.5q0 225 159 384t383 159q101 0 191 -35l84 147l160 -76l-93 -157q94 -76 147.5 -186.5t53.5 -235.5q0 -147 -73 -272t-198 -198t-272 -73q-99 0 -192 35zM365 461l346 602q-46 12 -97 12q-148 0 -253 -104.5
t-105 -253.5q0 -74 29 -141t80 -115zM614 358q148 0 253.5 105.5t105.5 253.5q0 149 -109 258l-348 -602q47 -15 98 -15z" />
    <glyph glyph-name="uni2206" unicode="&#x2206;" horiz-adv-x="1284" 
d="M1260 0h-1235l444 1434h346zM631 932l-166 -635h350l-164 635h-20z" />
    <glyph glyph-name="product" unicode="&#x220f;" horiz-adv-x="1576" 
d="M676 -410h-389v1475h-185v369h1373v-369h-185v-1475h-389v1475h-225v-1475z" />
    <glyph glyph-name="summation" unicode="&#x2211;" horiz-adv-x="1187" 
d="M1096 0h-973v307l305 410l-305 409v308h973v-328h-531l291 -389l-291 -389h531v-328z" />
    <glyph glyph-name="minus" unicode="&#x2212;" 
d="M983 457h-922v317h922v-317z" />
    <glyph glyph-name="radical" unicode="&#x221a;" horiz-adv-x="1351" 
d="M838 0h-412l-211 584h-215v266h438l195 -541l393 1125h326z" />
    <glyph glyph-name="infinity" unicode="&#x221e;" horiz-adv-x="1437" 
d="M381 274q-145 0 -237.5 95.5t-92.5 244.5q0 148 93 244t237 96q104 0 180 -43t158 -125q86 84 160 126t178 42q143 0 236 -95.5t93 -244.5q0 -150 -93 -245t-236 -95q-104 0 -178.5 42.5t-159.5 125.5q-40 -39 -69.5 -63.5t-72.5 -51.5t-91.5 -40t-104.5 -13zM414 500
q50 0 96.5 29.5t99.5 84.5q-107 115 -196 115q-50 0 -83.5 -31.5t-33.5 -83.5q0 -53 33 -83.5t84 -30.5zM1024 500q51 0 84 30.5t33 83.5q0 52 -33.5 83.5t-83.5 31.5q-51 0 -97.5 -30t-99.5 -85q109 -114 197 -114z" />
    <glyph glyph-name="integral" unicode="&#x222b;" horiz-adv-x="921" 
d="M201 -410h-150v318h72q123 0 123 143v922q0 235 112.5 348t341.5 113h150v-318h-72q-143 0 -143 -143v-922q0 -235 -108 -348t-326 -113z" />
    <glyph glyph-name="approxequal" unicode="&#x2248;" 
d="M328 635h-267v143q0 139 65.5 213t180.5 74q61 0 129.5 -28.5t126 -56.5t92.5 -28q30 0 46 17t16 45v51h266v-143q0 -287 -246 -287q-53 0 -107.5 17.5t-91 39t-77.5 39t-72 17.5q-30 0 -45.5 -16.5t-15.5 -45.5v-51zM328 164h-267v143q0 139 65.5 213t180.5 74
q48 0 102 -17.5t93 -39t81.5 -39t71.5 -17.5q30 0 46 17t16 45v51h266v-143q0 -287 -246 -287q-53 0 -107.5 17.5t-91 38.5t-77.5 38.5t-72 17.5q-61 0 -61 -61v-51z" />
    <glyph glyph-name="notequal" unicode="&#x2260;" 
d="M399 31h-233l92 225h-197v276h312l65 164h-377v277h492l92 225h234l-93 -225h197v-277h-311l-66 -164h377v-276h-491z" />
    <glyph glyph-name="lessequal" unicode="&#x2264;" 
d="M983 676v-328l-922 240v381l922 239v-327l-602 -103zM983 0h-922v287h922v-287z" />
    <glyph glyph-name="greaterequal" unicode="&#x2265;" 
d="M983 588l-922 -240v328l603 102l-603 103v327l922 -239v-381zM983 0h-922v287h922v-287z" />
    <glyph glyph-name="lozenge" unicode="&#x25ca;" horiz-adv-x="1249" 
d="M805 0h-361l-342 717l342 717h361l342 -717zM451 717l174 -369l174 369l-174 368z" />
    <glyph glyph-name="uniE132" unicode="&#xe132;" horiz-adv-x="1300" 
d="M465 1167h-301l147 349h445zM1141 1167h-301l147 349h445zM512 0h-399v1044h399v-1044zM784 -430q-179 0 -303 59l84 289q45 -22 105 -22q53 0 85.5 29.5t32.5 92.5v1026h400v-1046q0 -208 -102 -318t-302 -110z" />
    <glyph glyph-name="uniE133" unicode="&#xe133;" horiz-adv-x="1691" 
d="M485 1556h-301l148 349h444zM1509 1556h-301l148 349h444zM539 0h-410v1434h410v-1434zM987 0h-270v328h225q102 0 156.5 49.5t54.5 150.5v906h410v-916q0 -248 -147.5 -383t-428.5 -135z" />
    <glyph glyph-name="fi" unicode="&#xfb01;" horiz-adv-x="1566" 
d="M1255 1147q-97 0 -163 61.5t-66 153.5t66 153.5t163 61.5t164.5 -61.5t67.5 -153.5t-67.5 -153.5t-164.5 -61.5zM635 0h-399v686h-195v307h195v49q0 412 415 412q89 0 157 -13.5t142 -47.5l-76 -265q-59 29 -120 29q-119 0 -119 -121v-43h819v-993h-399v686h-420v-686z
" />
    <glyph glyph-name="Iacute_J.loclNLD" horiz-adv-x="1691" 
d="M485 1556h-301l148 349h444zM1509 1556h-301l148 349h444zM539 0h-410v1434h410v-1434zM987 0h-270v328h225q102 0 156.5 49.5t54.5 150.5v906h410v-916q0 -248 -147.5 -383t-428.5 -135z" />
    <glyph glyph-name="J.ss01" horiz-adv-x="1148" 
d="M444 0h-372v348h327q102 0 156.5 50t54.5 151v885h410v-916q0 -248 -147.5 -383t-428.5 -135z" />
    <glyph glyph-name="Jcircumflex.ss01" horiz-adv-x="1148" 
d="M707 1556h-330l274 349h328l274 -349h-338l-104 177zM444 0h-372v348h327q102 0 156.5 50t54.5 151v885h410v-916q0 -248 -147.5 -383t-428.5 -135z" />
    <glyph glyph-name="Eng.ss01" horiz-adv-x="1599" 
d="M1065 -410h-178v318h117q43 0 65.5 20t22.5 56v6l-553 872h-21q10 -159 10 -354v-508h-399v1434h430l502 -791h20q-10 159 -10 354v437h399v-1414q0 -222 -107.5 -326t-297.5 -104z" />
    <glyph glyph-name="uni019D.ss01" horiz-adv-x="1599" 
d="M123 -410h-199v318h103q47 0 74.5 29.5t27.5 82.5v1414h430l502 -838h20q-10 159 -10 354v484h399v-1434h-430l-501 838h-21q10 -159 10 -355v-463q0 -222 -107.5 -326t-297.5 -104z" />
    <glyph glyph-name="uni1E9E.ss01" horiz-adv-x="1566" 
d="M1419 1116l-313 -301q184 -17 289.5 -121.5t105.5 -275.5q0 -190 -139.5 -304t-384.5 -114h-315v317h278q73 0 112.5 33.5t39.5 87.5t-39 84.5t-113 30.5h-215v266l291 277v20h-234q-124 0 -183.5 -69t-59.5 -193v-854h-410v854q0 286 151.5 433t475.5 147h663v-318z" />
    <glyph glyph-name="J.ss05" horiz-adv-x="1394" 
d="M668 -20q-78 0 -151 12.5t-146.5 42t-132 74t-103 114.5t-63.5 158l389 78q19 -79 75 -115.5t132 -36.5q87 0 137.5 51.5t50.5 149.5v577h-625v349h1035v-942q0 -239 -154 -375.5t-444 -136.5z" />
    <glyph glyph-name="Jcircumflex.ss05" horiz-adv-x="1394" 
d="M641 1556h-330l275 349h327l275 -349h-338l-105 177zM668 -20q-78 0 -151 12.5t-146.5 42t-132 74t-103 114.5t-63.5 158l389 78q19 -79 75 -115.5t132 -36.5q87 0 137.5 51.5t50.5 149.5v577h-625v349h1035v-942q0 -239 -154 -375.5t-444 -136.5z" />
    <glyph glyph-name="i.loclTRK" horiz-adv-x="624" 
d="M313 1147q-97 0 -163 61.5t-66 153.5t66 153.5t163 61.5t164.5 -61.5t67.5 -153.5t-67.5 -153.5t-164.5 -61.5zM512 0h-399v1044h399v-1044z" />
    <glyph glyph-name="iacute_j.loclNLD" horiz-adv-x="1300" 
d="M465 1167h-301l147 349h445zM1141 1167h-301l147 349h445zM512 0h-399v1044h399v-1044zM784 -430q-179 0 -303 59l84 289q45 -22 105 -22q53 0 85.5 29.5t32.5 92.5v1026h400v-1046q0 -208 -102 -318t-302 -110z" />
    <glyph glyph-name="f.ss01" horiz-adv-x="962" 
d="M635 0h-399v686h-195v307h195v27q0 198 112.5 306t310.5 108h263v-287h-172q-53 0 -84 -33t-31 -94v-27h256v-307h-256v-686z" />
    <glyph glyph-name="iacute_j.loclNLD.ss01" horiz-adv-x="1261" 
d="M465 1167h-301l147 349h445zM1102 1167h-301l147 349h445zM512 0h-399v1044h399v-1044zM743 -410h-180v318h84q47 0 75 29.5t28 82.5v1024h399v-1024q0 -222 -108 -326t-298 -104z" />
    <glyph glyph-name="ij.ss01" horiz-adv-x="1261" 
d="M313 1147q-97 0 -163 61.5t-66 153.5t66 153.5t163 61.5t164.5 -61.5t67.5 -153.5t-67.5 -153.5t-164.5 -61.5zM950 1147q-97 0 -163 61.5t-66 153.5t66 153.5t163 61.5t164.5 -61.5t67.5 -153.5t-67.5 -153.5t-164.5 -61.5zM512 0h-399v1044h399v-1044zM743 -410h-180
v318h84q47 0 75 29.5t28 82.5v1024h399v-1024q0 -222 -108 -326t-298 -104z" />
    <glyph glyph-name="j.ss01" horiz-adv-x="667" 
d="M356 1147q-97 0 -163 61.5t-66 153.5t66 153.5t163 61.5t164.5 -61.5t67.5 -153.5t-67.5 -153.5t-164.5 -61.5zM150 -410h-181v318h84q47 0 75 29.5t28 82.5v1024h399v-1024q0 -222 -107.5 -326t-297.5 -104z" />
    <glyph glyph-name="uni0237.ss01" horiz-adv-x="667" 
d="M150 -410h-181v318h84q47 0 75 29.5t28 82.5v1024h399v-1024q0 -222 -107.5 -326t-297.5 -104z" />
    <glyph glyph-name="jcircumflex.ss01" horiz-adv-x="667" 
d="M248 1167h-330l275 349h327l275 -349h-338l-105 176zM150 -410h-181v318h84q47 0 75 29.5t28 82.5v1024h399v-1024q0 -222 -107.5 -326t-297.5 -104z" />
    <glyph glyph-name="eng.ss01" horiz-adv-x="1341" 
d="M834 -410h-199v318h102q47 0 75 29.5t28 82.5v523q0 89 -39 136.5t-111 47.5q-83 0 -130.5 -63t-47.5 -166v-498h-399v487q0 352 -11 557h383l25 -163h20q138 184 353 184q169 0 262.5 -107.5t93.5 -306.5v-631q0 -222 -107.5 -326t-297.5 -104z" />
    <glyph glyph-name="uni0272.ss01" horiz-adv-x="1402" 
d="M168 -410h-199v318h103q47 0 74.5 29.5t27.5 82.5v467q0 371 -10 557h383l24 -163h21q138 184 352 184q169 0 262.5 -107.5t93.5 -306.5v-651h-399v543q0 89 -38.5 136.5t-110.5 47.5q-83 0 -131 -63t-48 -166v-478q0 -222 -107.5 -326t-297.5 -104z" />
    <glyph glyph-name="germandbls.ss01" horiz-adv-x="1433" 
d="M512 0h-399v946q0 243 159.5 375.5t448.5 132.5q268 0 418.5 -107.5t150.5 -293.5q0 -106 -48.5 -180t-131.5 -113v-21q129 -41 195.5 -121t66.5 -221q0 -80 -27 -149t-81.5 -125.5t-146.5 -89.5t-212 -33h-239v307h151q71 0 113.5 35.5t42.5 101.5t-47.5 103t-128.5 37
h-111v290h70q68 0 106.5 34.5t38.5 101.5q0 70 -48.5 108.5t-131.5 38.5q-95 0 -152 -55t-57 -166v-936z" />
    <glyph glyph-name="t.ss01" horiz-adv-x="972" 
d="M891 0h-213q-211 0 -326.5 105.5t-115.5 328.5v303h-195v307h209l49 308h336v-308h256v-307h-256v-291q0 -68 29.5 -98.5t95.5 -30.5h131v-317z" />
    <glyph glyph-name="tbar.ss01" horiz-adv-x="972" 
d="M891 1044v-307h-256v-112h237v-162h-237v-17q0 -68 29.5 -98.5t95.5 -30.5h131v-317h-213q-211 0 -326.5 105.5t-115.5 328.5v29h-185v162h185v112h-195v307h209l49 308h336v-308h256z" />
    <glyph glyph-name="tcaron.ss01" horiz-adv-x="1013" 
d="M934 1116h-205l19 420h296zM891 0h-213q-211 0 -326.5 105.5t-115.5 328.5v303h-195v307h209l49 308h336v-308h256v-307h-256v-291q0 -68 29.5 -98.5t95.5 -30.5h131v-317z" />
    <glyph glyph-name="uni0163.ss01" horiz-adv-x="972" 
d="M750 0l-25 -72q105 0 170.5 -56.5t65.5 -156.5q0 -105 -81.5 -171t-226.5 -66q-170 0 -299 94l101 158q90 -68 180 -68t90 57q0 56 -80 56q-41 0 -82 -15l-47 70l59 176q-339 50 -339 428v303h-195v307h209l49 308h336v-308h256v-307h-256v-291q0 -68 29.5 -98.5
t95.5 -30.5h131v-317h-141z" />
    <glyph glyph-name="uni021B.ss01" horiz-adv-x="972" 
d="M891 0h-213q-211 0 -326.5 105.5t-115.5 328.5v303h-195v307h209l49 308h336v-308h256v-307h-256v-291q0 -68 29.5 -98.5t95.5 -30.5h131v-317zM686 -430h-278l63 338h363z" />
    <glyph glyph-name="a.ss02" horiz-adv-x="1310" 
d="M463 -20q-190 0 -296 142t-106 400t106 400.5t296 142.5q207 0 315 -184h21l26 163h373v-487q0 -371 10 -557h-383l-26 164h-21q-108 -184 -315 -184zM629 297q78 0 124 60.5t46 164.5t-46 165t-124 61q-77 0 -122.5 -61t-45.5 -165t45.5 -164.5t122.5 -60.5z" />
    <glyph glyph-name="aacute.ss02" horiz-adv-x="1310" 
d="M780 1167h-301l148 349h444zM463 -20q-190 0 -296 142t-106 400t106 400.5t296 142.5q207 0 315 -184h21l26 163h373v-487q0 -371 10 -557h-383l-26 164h-21q-108 -184 -315 -184zM629 297q78 0 124 60.5t46 164.5t-46 165t-124 61q-77 0 -122.5 -61t-45.5 -165
t45.5 -164.5t122.5 -60.5z" />
    <glyph glyph-name="abreve.ss02" horiz-adv-x="1310" 
d="M629 1157q-173 0 -270 94t-97 265h225q0 -70 36 -112t106 -42q68 0 104.5 42t36.5 112h225q0 -171 -96.5 -265t-269.5 -94zM463 -20q-190 0 -296 142t-106 400t106 400.5t296 142.5q207 0 315 -184h21l26 163h373v-487q0 -371 10 -557h-383l-26 164h-21
q-108 -184 -315 -184zM629 297q78 0 124 60.5t46 164.5t-46 165t-124 61q-77 0 -122.5 -61t-45.5 -165t45.5 -164.5t122.5 -60.5z" />
    <glyph glyph-name="uni01CE.ss02" horiz-adv-x="1310" 
d="M793 1167h-328l-275 349h338l105 -177l104 177h330zM463 -20q-190 0 -296 142t-106 400t106 400.5t296 142.5q207 0 315 -184h21l26 163h373v-487q0 -371 10 -557h-383l-26 164h-21q-108 -184 -315 -184zM629 297q78 0 124 60.5t46 164.5t-46 165t-124 61
q-77 0 -122.5 -61t-45.5 -165t45.5 -164.5t122.5 -60.5z" />
    <glyph glyph-name="acircumflex.ss02" horiz-adv-x="1310" 
d="M520 1167h-330l275 349h328l274 -349h-338l-104 176zM463 -20q-190 0 -296 142t-106 400t106 400.5t296 142.5q207 0 315 -184h21l26 163h373v-487q0 -371 10 -557h-383l-26 164h-21q-108 -184 -315 -184zM629 297q78 0 124 60.5t46 164.5t-46 165t-124 61
q-77 0 -122.5 -61t-45.5 -165t45.5 -164.5t122.5 -60.5z" />
    <glyph glyph-name="adieresis.ss02" horiz-adv-x="1310" 
d="M379 1157q-88 0 -146.5 56t-58.5 139t58.5 138.5t146.5 55.5t146.5 -55.5t58.5 -138.5t-58.5 -139t-146.5 -56zM879 1157q-88 0 -146.5 56t-58.5 139t58.5 138.5t146.5 55.5t146 -55.5t58 -138.5t-58 -139t-146 -56zM463 -20q-190 0 -296 142t-106 400t106 400.5
t296 142.5q207 0 315 -184h21l26 163h373v-487q0 -371 10 -557h-383l-26 164h-21q-108 -184 -315 -184zM629 297q78 0 124 60.5t46 164.5t-46 165t-124 61q-77 0 -122.5 -61t-45.5 -165t45.5 -164.5t122.5 -60.5z" />
    <glyph glyph-name="uni1EA1.ss02" horiz-adv-x="1310" 
d="M463 -20q-190 0 -296 142t-106 400t106 400.5t296 142.5q207 0 315 -184h21l26 163h373v-487q0 -371 10 -557h-383l-26 164h-21q-108 -184 -315 -184zM629 297q78 0 124 60.5t46 164.5t-46 165t-124 61q-77 0 -122.5 -61t-45.5 -165t45.5 -164.5t122.5 -60.5zM629 -451
q-87 0 -146 55t-59 136q0 79 59.5 133.5t145.5 54.5t145.5 -54.5t59.5 -133.5q0 -81 -59 -136t-146 -55z" />
    <glyph glyph-name="agrave.ss02" horiz-adv-x="1310" 
d="M778 1167h-301l-291 349h445zM463 -20q-190 0 -296 142t-106 400t106 400.5t296 142.5q207 0 315 -184h21l26 163h373v-487q0 -371 10 -557h-383l-26 164h-21q-108 -184 -315 -184zM629 297q78 0 124 60.5t46 164.5t-46 165t-124 61q-77 0 -122.5 -61t-45.5 -165
t45.5 -164.5t122.5 -60.5z" />
    <glyph glyph-name="amacron.ss02" horiz-adv-x="1310" 
d="M967 1219h-676v256h676v-256zM463 -20q-190 0 -296 142t-106 400t106 400.5t296 142.5q207 0 315 -184h21l26 163h373v-487q0 -371 10 -557h-383l-26 164h-21q-108 -184 -315 -184zM629 297q78 0 124 60.5t46 164.5t-46 165t-124 61q-77 0 -122.5 -61t-45.5 -165
t45.5 -164.5t122.5 -60.5z" />
    <glyph glyph-name="aogonek.ss02" horiz-adv-x="1310" 
d="M1057 -213q0 -36 23 -55t61 -19q34 0 67 11v-222q-71 -14 -141 -14q-118 0 -192 55.5t-74 165.5q0 175 213 291h-189l-26 164h-21q-108 -184 -315 -184q-190 0 -296 142t-106 400t106 400.5t296 142.5q207 0 315 -184h21l26 163h373v-487q0 -371 10 -557
q-80 -69 -115.5 -116.5t-35.5 -96.5zM629 297q78 0 124 60.5t46 164.5t-46 165t-124 61q-77 0 -122.5 -61t-45.5 -165t45.5 -164.5t122.5 -60.5z" />
    <glyph glyph-name="aring.ss02" horiz-adv-x="1310" 
d="M629 1116q-126 0 -206.5 72t-80.5 184t80.5 184t206.5 72t206 -71.5t80 -184.5t-80 -184.5t-206 -71.5zM629 1280q42 0 67 26t25 66t-25 66t-67 26t-67 -26t-25 -66t25 -66t67 -26zM463 -20q-190 0 -296 142t-106 400t106 400.5t296 142.5q207 0 315 -184h21l26 163h373
v-487q0 -371 10 -557h-383l-26 164h-21q-108 -184 -315 -184zM629 297q78 0 124 60.5t46 164.5t-46 165t-124 61q-77 0 -122.5 -61t-45.5 -165t45.5 -164.5t122.5 -60.5z" />
    <glyph glyph-name="aringacute.ss02" horiz-adv-x="1310" 
d="M629 1116q-128 0 -207.5 52t-79.5 143q0 71 48.5 118t135.5 66l47 123h332l-123 -137q63 -24 98 -67.5t35 -102.5q0 -91 -79 -143t-207 -52zM629 1239q42 0 67 20.5t25 51.5t-25 51t-67 20t-67 -20t-25 -51t25 -51.5t67 -20.5zM463 -20q-190 0 -296 142t-106 400
t106 400.5t296 142.5q207 0 315 -184h21l26 163h373v-487q0 -371 10 -557h-383l-26 164h-21q-108 -184 -315 -184zM629 297q78 0 124 60.5t46 164.5t-46 165t-124 61q-77 0 -122.5 -61t-45.5 -165t45.5 -164.5t122.5 -60.5z" />
    <glyph glyph-name="atilde.ss02" horiz-adv-x="1310" 
d="M449 1157h-195v131q0 109 53 173.5t142 64.5q45 0 89 -17.5t73.5 -39t64 -39t61.5 -17.5q70 0 70 113h194v-135q0 -110 -51 -172t-143 -62q-46 0 -90.5 17.5t-73.5 39t-63.5 39t-61.5 17.5q-69 0 -69 -113zM463 -20q-190 0 -296 142t-106 400t106 400.5t296 142.5
q207 0 315 -184h21l26 163h373v-487q0 -371 10 -557h-383l-26 164h-21q-108 -184 -315 -184zM629 297q78 0 124 60.5t46 164.5t-46 165t-124 61q-77 0 -122.5 -61t-45.5 -165t45.5 -164.5t122.5 -60.5z" />
    <glyph glyph-name="u.ss03" horiz-adv-x="1331" 
d="M666 -20q-277 0 -420.5 136t-143.5 382v546h400v-538q0 -199 164 -199q163 0 163 199v538h400v-546q0 -246 -143 -382t-420 -136z" />
    <glyph glyph-name="uacute.ss03" horiz-adv-x="1331" 
d="M817 1167h-301l148 349h444zM666 -20q-277 0 -420.5 136t-143.5 382v546h400v-538q0 -199 164 -199q163 0 163 199v538h400v-546q0 -246 -143 -382t-420 -136z" />
    <glyph glyph-name="ubreve.ss03" horiz-adv-x="1331" 
d="M666 1157q-173 0 -270 94t-97 265h225q0 -70 36 -112t106 -42q68 0 104.5 42t36.5 112h225q0 -171 -96.5 -265t-269.5 -94zM666 -20q-277 0 -420.5 136t-143.5 382v546h400v-538q0 -199 164 -199q163 0 163 199v538h400v-546q0 -246 -143 -382t-420 -136z" />
    <glyph glyph-name="uni01D4.ss03" horiz-adv-x="1331" 
d="M829 1167h-327l-275 349h338l105 -177l104 177h330zM666 -20q-277 0 -420.5 136t-143.5 382v546h400v-538q0 -199 164 -199q163 0 163 199v538h400v-546q0 -246 -143 -382t-420 -136z" />
    <glyph glyph-name="ucircumflex.ss03" horiz-adv-x="1331" 
d="M557 1167h-330l275 349h327l275 -349h-338l-104 176zM666 -20q-277 0 -420.5 136t-143.5 382v546h400v-538q0 -199 164 -199q163 0 163 199v538h400v-546q0 -246 -143 -382t-420 -136z" />
    <glyph glyph-name="udieresis.ss03" horiz-adv-x="1331" 
d="M416 1157q-88 0 -146.5 56t-58.5 139t58.5 138.5t146.5 55.5t146.5 -55.5t58.5 -138.5t-58.5 -139t-146.5 -56zM915 1157q-88 0 -146 56t-58 139t58 138.5t146 55.5t146.5 -55.5t58.5 -138.5t-58.5 -139t-146.5 -56zM666 -20q-277 0 -420.5 136t-143.5 382v546h400v-538
q0 -199 164 -199q163 0 163 199v538h400v-546q0 -246 -143 -382t-420 -136z" />
    <glyph glyph-name="uni1EE5.ss03" horiz-adv-x="1331" 
d="M666 -20q-277 0 -420.5 136t-143.5 382v546h400v-538q0 -199 164 -199q163 0 163 199v538h400v-546q0 -246 -143 -382t-420 -136zM666 -451q-87 0 -146 55t-59 136q0 79 59.5 133.5t145.5 54.5t145 -54.5t59 -133.5q0 -82 -59 -136.5t-145 -54.5z" />
    <glyph glyph-name="ugrave.ss03" horiz-adv-x="1331" 
d="M815 1167h-301l-291 349h445zM666 -20q-277 0 -420.5 136t-143.5 382v546h400v-538q0 -199 164 -199q163 0 163 199v538h400v-546q0 -246 -143 -382t-420 -136z" />
    <glyph glyph-name="uhungarumlaut.ss03" horiz-adv-x="1331" 
d="M573 1167h-258l144 349h377zM1016 1167h-258l143 349h377zM666 -20q-277 0 -420.5 136t-143.5 382v546h400v-538q0 -199 164 -199q163 0 163 199v538h400v-546q0 -246 -143 -382t-420 -136z" />
    <glyph glyph-name="umacron.ss03" horiz-adv-x="1331" 
d="M1004 1219h-676v256h676v-256zM666 -20q-277 0 -420.5 136t-143.5 382v546h400v-538q0 -199 164 -199q163 0 163 199v538h400v-546q0 -246 -143 -382t-420 -136z" />
    <glyph glyph-name="uogonek.ss03" horiz-adv-x="1331" 
d="M829 506v538h400v-546q0 -197 -93.5 -325.5t-275.5 -172.5h4q-80 -69 -115.5 -116.5t-35.5 -96.5q0 -36 23 -55t61 -19q34 0 67 11v-222q-71 -14 -141 -14q-118 0 -192 55.5t-74 165.5q0 162 180 271q-263 7 -399 143t-136 375v546h400v-538q0 -199 164 -199
q163 0 163 199z" />
    <glyph glyph-name="uring.ss03" horiz-adv-x="1331" 
d="M666 1116q-126 0 -206.5 72t-80.5 184t80.5 184t206.5 72t206 -71.5t80 -184.5t-80 -184.5t-206 -71.5zM666 1280q42 0 67 26t25 66t-25 66t-67 26t-67.5 -26t-25.5 -66t25.5 -66t67.5 -26zM666 -20q-277 0 -420.5 136t-143.5 382v546h400v-538q0 -199 164 -199
q163 0 163 199v538h400v-546q0 -246 -143 -382t-420 -136z" />
    <glyph glyph-name="utilde.ss03" horiz-adv-x="1331" 
d="M485 1157h-194v131q0 109 52.5 173.5t141.5 64.5q45 0 89.5 -17.5t73.5 -39t64 -39t62 -17.5q70 0 70 113h194v-135q0 -110 -51 -172t-143 -62q-46 0 -90.5 17.5t-73.5 39t-63.5 39t-61.5 17.5q-70 0 -70 -113zM666 -20q-277 0 -420.5 136t-143.5 382v546h400v-538
q0 -199 164 -199q163 0 163 199v538h400v-546q0 -246 -143 -382t-420 -136z" />
    <glyph glyph-name="l.ss04" horiz-adv-x="747" 
d="M696 0h-164q-193 0 -306 109t-113 333v992h399v-979q0 -127 102 -127h82v-328z" />
    <glyph glyph-name="lacute.ss04" horiz-adv-x="747" 
d="M465 1556h-301l147 349h445zM696 0h-164q-193 0 -306 109t-113 333v992h399v-979q0 -127 102 -127h82v-328z" />
    <glyph glyph-name="lcaron.ss04" horiz-adv-x="880" 
d="M696 0h-164q-193 0 -306 109t-113 333v992h399v-979q0 -127 102 -127h82v-328zM811 1014h-205l19 420h297z" />
    <glyph glyph-name="uni013C.ss04" horiz-adv-x="747" 
d="M696 0h-164q-193 0 -306 109t-113 333v992h399v-979q0 -127 102 -127h82v-328zM504 -430h-279l64 338h362z" />
    <glyph glyph-name="ldot.ss04" horiz-adv-x="1005" 
d="M696 0h-164q-193 0 -306 109t-113 333v992h399v-979q0 -127 102 -127h82v-328zM815 492q-91 0 -153 57.5t-62 148.5q0 88 62.5 145.5t152.5 57.5t152.5 -57.5t62.5 -145.5q0 -91 -62 -148.5t-153 -57.5z" />
    <glyph glyph-name="lslash.ss04" horiz-adv-x="870" 
d="M788 0h-163q-93 0 -168.5 24.5t-132.5 74.5t-88 132t-31 191v14l-174 -92v266l174 92v732h399v-516l184 98v-266l-184 -99v-196q0 -127 103 -127h81v-328z" />
    <glyph glyph-name="j_j.dlig" horiz-adv-x="1372" 
d="M395 1147q-97 0 -163 61.5t-66 153.5t66 153.5t163 61.5t164.5 -61.5t67.5 -153.5t-67.5 -153.5t-164.5 -61.5zM1061 1147q-97 0 -163.5 61.5t-66.5 153.5t66.5 153.5t163.5 61.5t164 -61.5t67 -153.5t-67 -153.5t-164 -61.5zM190 -430q-179 0 -303 59l84 289
q45 -22 105 -22q53 0 86 30t33 92v1026h399v-1046q0 -208 -102 -318t-302 -110zM887 -430q-161 0 -273 59l84 289q32 -22 74 -22q88 0 88 104v1044h400v-1056q0 -202 -95 -310t-278 -108z" />
    <glyph glyph-name="t_t.dlig" horiz-adv-x="1863" 
d="M236 737h-195v307h209l49 308h336v-308h495l50 308h336v-308h247v-307h-247v-321q0 -119 108 -119q50 0 98 25l80 -275q-131 -67 -284 -67q-190 0 -296 100.5t-106 310.5v346h-481v-321q0 -119 108 -119q51 0 99 25l80 -275q-131 -67 -285 -67q-190 0 -295.5 100
t-105.5 311v346z" />
    <glyph glyph-name="t_t.dlig.ss01" horiz-adv-x="1853" 
d="M891 0h-213q-211 0 -326.5 105.5t-115.5 328.5v303h-195v307h209l49 308h336v-308h495l50 308h336v-308h256v-307h-256v-291q0 -68 29 -98.5t95 -30.5h132v-317h-213q-211 0 -327 105.5t-116 328.5v303h-481v-291q0 -68 29.5 -98.5t95.5 -30.5h131v-317z" />
    <glyph glyph-name="f_f.ss01" horiz-adv-x="1781" 
d="M635 0h-399v686h-195v307h195v27q0 198 112.5 306t310.5 108h293v-287h-202q-53 0 -84 -33t-31 -94v-27h420v27q0 198 113 306t311 108h262v-287h-172q-53 0 -84 -33t-31 -94v-27h256v-307h-256v-686h-399v686h-420v-686z" />
    <glyph glyph-name="f_f_i.ss01" horiz-adv-x="2385" 
d="M2075 1147q-97 0 -163.5 61.5t-66.5 153.5t66.5 153.5t163.5 61.5t164 -61.5t67 -153.5t-67 -153.5t-164 -61.5zM635 0h-399v686h-195v307h195v27q0 198 112.5 306t310.5 108h293v-287h-202q-53 0 -84 -33t-31 -94v-27h420v27q0 198 113 306t311 108h262v-287h-172
q-53 0 -84 -33t-31 -94v-27h819v-993h-399v686h-420v-686h-399v686h-420v-686z" />
    <glyph glyph-name="f_i.ss01" horiz-adv-x="1566" 
d="M1255 1147q-97 0 -163 61.5t-66 153.5t66 153.5t163 61.5t164.5 -61.5t67.5 -153.5t-67.5 -153.5t-164.5 -61.5zM635 0h-399v686h-195v307h195v27q0 198 112.5 306t310.5 108h263v-287h-172q-53 0 -84 -33t-31 -94v-27h819v-993h-399v686h-420v-686z" />
    <glyph glyph-name="fi.ss01" horiz-adv-x="1566" 
d="M1255 1147q-97 0 -163 61.5t-66 153.5t66 153.5t163 61.5t164.5 -61.5t67.5 -153.5t-67.5 -153.5t-164.5 -61.5zM635 0h-399v686h-195v307h195v27q0 198 112.5 306t310.5 108h263v-287h-172q-53 0 -84 -33t-31 -94v-27h819v-993h-399v686h-420v-686z" />
    <glyph glyph-name="fl.ss01" horiz-adv-x="1710" 
d="M635 0h-399v686h-195v307h195v27q0 198 112.5 306t310.5 108h263v-287h-172q-53 0 -84 -33t-31 -94v-27h256v-307h-256v-686zM1659 0h-164q-193 0 -306.5 109t-113.5 333v992h400v-979q0 -127 102 -127h82v-328z" />
    <glyph glyph-name="zero.lf" horiz-adv-x="1482" 
d="M741 -20q-158 0 -284.5 53.5t-210.5 150.5t-129 233t-45 300t45 300t129 233t210.5 150.5t284.5 53.5q210 0 362.5 -92.5t230 -258t77.5 -386.5t-77.5 -386.5t-230 -258t-362.5 -92.5zM741 338q122 0 191 98.5t69 280.5t-69 280.5t-191 98.5t-191 -98.5t-69 -280.5
t69 -280.5t191 -98.5z" />
    <glyph glyph-name="one.lf" horiz-adv-x="907" 
d="M768 0h-410v1001h-20l-287 -157v385l393 205h324v-1434z" />
    <glyph glyph-name="two.lf" horiz-adv-x="1280" 
d="M1208 0h-1116v328l414 338q79 65 121 101.5t84.5 82.5t59.5 84.5t17 79.5q0 62 -43.5 97.5t-115.5 35.5q-74 0 -124.5 -39t-70.5 -113l-393 80q40 179 195 279t391 100q264 0 417.5 -117t153.5 -321q0 -84 -23.5 -153t-80 -138.5t-129 -132t-191.5 -150.5l-86 -63v-21
h520v-358z" />
    <glyph glyph-name="three.lf" horiz-adv-x="1310" 
d="M1167 1106l-297 -254q173 -28 271 -137.5t98 -276.5q0 -213 -153.5 -335.5t-434.5 -122.5q-249 0 -410.5 100t-199.5 285l395 79q21 -72 77 -107.5t138 -35.5q80 0 129 40.5t49 109.5q0 67 -53 107t-141 40h-232v236l269 231v20h-559v349h1054v-328z" />
    <glyph glyph-name="four.lf" horiz-adv-x="1331" 
d="M1126 0h-409v225h-666v359l635 850h440v-871h174v-338h-174v-225zM717 946l-283 -383h283v383z" />
    <glyph glyph-name="five.lf" horiz-adv-x="1337" 
d="M678 -20q-240 0 -409 99t-208 279l410 84q22 -63 79 -94t128 -31q84 0 136 42.5t52 115.5q0 74 -51.5 117t-134.5 43q-124 0 -197 -86l-354 65l55 820h959v-349h-613l-16 -202h23q115 59 251 59q219 0 353.5 -125t134.5 -342q0 -229 -160.5 -362t-437.5 -133z" />
    <glyph glyph-name="six.lf" horiz-adv-x="1331" 
d="M1073 1413l-332 -420q233 0 386 -135t153 -352q0 -235 -167.5 -380.5t-446.5 -145.5q-269 0 -442 148.5t-173 377.5q0 89 23.5 167.5t61 143t106.5 158.5l338 459h493v-21zM666 317q89 0 146.5 51t57.5 138t-57.5 138.5t-146.5 51.5q-87 0 -146 -53t-59 -137
q0 -87 57.5 -138t147.5 -51z" />
    <glyph glyph-name="seven.lf" horiz-adv-x="1198" 
d="M627 0h-465l502 1034v21h-613v379h1096v-359z" />
    <glyph glyph-name="eight.lf" horiz-adv-x="1331" 
d="M666 -20q-262 0 -428 119.5t-166 316.5q0 110 66 200.5t175 135.5q-91 43 -145.5 124.5t-54.5 176.5q0 184 152 292.5t401 108.5t401 -108.5t152 -292.5q0 -96 -55.5 -177t-147.5 -124q110 -43 177 -135t67 -201q0 -197 -166 -316.5t-428 -119.5zM666 883q61 0 105 33.5
t44 93.5t-44 93.5t-105 33.5t-105.5 -33.5t-44.5 -93.5t44.5 -93.5t105.5 -33.5zM666 297q75 0 129.5 39t54.5 110t-54.5 110.5t-129.5 39.5t-130 -39.5t-55 -110.5t55 -110t130 -39z" />
    <glyph glyph-name="nine.lf" horiz-adv-x="1331" 
d="M666 1454q269 0 441.5 -148.5t172.5 -377.5q0 -130 -43.5 -229.5t-146.5 -239.5l-338 -459h-494v20l332 420q-233 0 -386 135.5t-153 352.5q0 235 168 380.5t447 145.5zM461 928q0 -87 58 -139t147 -52q87 0 145.5 53.5t58.5 137.5q0 87 -57 137.5t-147 50.5
q-89 0 -147 -50.5t-58 -137.5z" />
    <glyph glyph-name="zero.tf" horiz-adv-x="1290" 
d="M645 -20q-278 0 -436 199.5t-158 537.5t158.5 537.5t435.5 199.5t435.5 -199.5t158.5 -537.5t-158 -537.5t-436 -199.5zM645 328q89 0 136.5 99.5t47.5 289.5t-47.5 289.5t-136.5 99.5t-136.5 -99.5t-47.5 -289.5t47.5 -289.5t136.5 -99.5z" />
    <glyph glyph-name="one.tf" horiz-adv-x="1290" 
d="M1157 0h-1024v348h318v653h-21l-297 -163v385l404 211h323v-1086h297v-348z" />
    <glyph glyph-name="two.tf" horiz-adv-x="1290" 
d="M1208 0h-1089v328l399 338q75 63 112 96.5t81 81t62 88t18 82.5q0 62 -41 97.5t-107 35.5q-142 0 -180 -152l-391 80q38 179 188.5 279t380.5 100q257 0 408 -117.5t151 -320.5q0 -83 -22.5 -152t-78 -139t-124 -132t-184.5 -153l-78 -61v-21h495v-358z" />
    <glyph glyph-name="three.tf" horiz-adv-x="1290" 
d="M1130 1106l-258 -256q154 -28 240 -137t86 -275q0 -213 -145.5 -335.5t-407.5 -122.5q-233 0 -382 100t-181 285l389 79q34 -143 174 -143q64 0 103.5 41t39.5 109q0 67 -43.5 107t-113.5 40h-213v236l223 231v20h-491v349h980v-328z" />
    <glyph glyph-name="four.tf" horiz-adv-x="1290" 
d="M1079 0h-409v225h-619v359l588 850h440v-871h160v-338h-160v-225zM670 946l-269 -383h269v383z" />
    <glyph glyph-name="five.tf" horiz-adv-x="1290" 
d="M659 -20q-235 0 -398.5 99.5t-199.5 278.5l408 84q20 -63 73 -94t117 -31q76 0 123 42.5t47 115.5q0 74 -47 117t-123 43q-53 0 -100.5 -22.5t-79.5 -63.5l-352 65l53 820h930v-349h-586l-14 -198h20q110 55 244 55q208 0 336.5 -125.5t128.5 -341.5q0 -229 -155 -362
t-425 -133z" />
    <glyph glyph-name="six.tf" horiz-adv-x="1290" 
d="M1051 1413l-316 -420q217 -3 360.5 -137.5t143.5 -349.5q0 -235 -160.5 -380.5t-427.5 -145.5q-259 0 -424.5 148.5t-165.5 377.5q0 128 42.5 228t140.5 241l317 459h490v-21zM651 317q76 0 127 51t51 138t-51 138.5t-127 51.5t-128 -53.5t-52 -136.5q0 -87 51.5 -138
t128.5 -51z" />
    <glyph glyph-name="seven.tf" horiz-adv-x="1290" 
d="M668 0h-465l502 1034v21h-613v379h1096v-359z" />
    <glyph glyph-name="eight.tf" horiz-adv-x="1290" 
d="M645 -20q-262 0 -428 119.5t-166 316.5q0 109 66 200t176 136q-91 43 -146 124.5t-55 176.5q0 184 152 292.5t401 108.5t401 -108.5t152 -292.5q0 -96 -55.5 -177t-147.5 -124q110 -43 177 -135t67 -201q0 -197 -166 -316.5t-428 -119.5zM645 883q61 0 105.5 33.5
t44.5 93.5t-44.5 93.5t-105.5 33.5t-105 -33.5t-44 -93.5t44 -93.5t105 -33.5zM645 297q75 0 129.5 39t54.5 110t-54.5 110.5t-129.5 39.5t-129.5 -39.5t-54.5 -110.5t54.5 -110t129.5 -39z" />
    <glyph glyph-name="nine.tf" horiz-adv-x="1290" 
d="M639 1454q259 0 424.5 -148.5t165.5 -377.5q0 -129 -42 -229t-140 -240l-318 -459h-489v20l315 420q-217 3 -360.5 138t-143.5 350q0 235 160.5 380.5t427.5 145.5zM461 928q0 -87 51 -139t127 -52t128 53.5t52 137.5q0 87 -51 137.5t-129 50.5q-76 0 -127 -50.5
t-51 -137.5z" />
    <glyph glyph-name="zero.dnom" horiz-adv-x="802" 
d="M401 -10q-166 0 -258 100.5t-92 267.5q0 168 92 268.5t258 100.5q167 0 259 -100.5t92 -268.5t-92 -268t-259 -100zM401 199q54 0 84.5 42t30.5 117t-30.5 117.5t-84.5 42.5t-84 -42.5t-30 -117.5q0 -77 29.5 -118t84.5 -41z" />
    <glyph glyph-name="one.dnom" horiz-adv-x="507" 
d="M426 0h-236v457h-10l-139 -74v233l203 101h182v-717z" />
    <glyph glyph-name="two.dnom" horiz-adv-x="675" 
d="M635 0h-578v186l207 156q135 100 135 158q0 22 -16.5 35.5t-42.5 13.5q-62 0 -84 -62l-225 48q20 93 101.5 142.5t203.5 49.5q140 0 219.5 -59.5t79.5 -165.5q0 -79 -48 -137t-147 -125l-32 -23v-12h227v-205z" />
    <glyph glyph-name="three.dnom" horiz-adv-x="716" 
d="M629 528l-150 -100q88 -12 137.5 -67t49.5 -140q0 -108 -79 -169.5t-227 -61.5q-132 0 -217 52t-102 153l233 45q13 -66 86 -66q32 0 51 15t19 40q0 27 -20.5 43.5t-57.5 16.5h-125v121l133 90v12h-288v205h557v-189z" />
    <glyph glyph-name="four.dnom" horiz-adv-x="712" 
d="M590 0h-236v113h-323v198l305 406h254v-420h82v-184h-82v-113zM354 457l-123 -160h123v160z" />
    <glyph glyph-name="five.dnom" horiz-adv-x="714" 
d="M367 -10q-127 0 -216.5 50.5t-109.5 143.5l238 47q20 -57 88 -57q32 0 51.5 17.5t19.5 46.5t-18.5 46t-52.5 17q-43 0 -74 -31l-209 39l29 408h489v-195h-291l-6 -69h14q52 18 105 18q113 0 181.5 -63.5t68.5 -169.5q0 -123 -79.5 -185.5t-227.5 -62.5z" />
    <glyph glyph-name="six.dnom" horiz-adv-x="735" 
d="M602 705l-162 -203q118 -6 186 -72t68 -172q0 -121 -88 -194.5t-239 -73.5q-145 0 -235.5 74t-90.5 194q0 70 23.5 120.5t80.5 129.5l152 209h305v-12zM369 180q41 0 65.5 22t24.5 56t-25 57t-65 23q-41 0 -67 -23t-26 -57t26 -56t67 -22z" />
    <glyph glyph-name="seven.dnom" horiz-adv-x="651" 
d="M360 0h-274l238 479v13h-283v225h569v-213z" />
    <glyph glyph-name="eight.dnom" horiz-adv-x="712" 
d="M356 -10q-140 0 -227.5 60.5t-87.5 160.5q0 53 30.5 97.5t82.5 68.5q-42 22 -67.5 61.5t-25.5 83.5q0 95 81 150t214 55t214 -55t81 -150q0 -43 -24.5 -82.5t-67.5 -62.5q51 -24 82 -68.5t31 -97.5q0 -100 -88 -160.5t-228 -60.5zM356 438q31 0 49.5 17t18.5 43
t-18.5 42.5t-49.5 16.5t-49 -16.5t-18 -42.5t18 -43t49 -17zM356 160q35 0 57.5 18.5t22.5 50.5t-22 51t-58 19t-58 -19t-22 -51t22.5 -50.5t57.5 -18.5z" />
    <glyph glyph-name="nine.dnom" horiz-adv-x="735" 
d="M369 727q145 0 235 -74t90 -194q0 -70 -23.5 -120.5t-80.5 -129.5l-152 -209h-305v12l162 203q-118 6 -186 72t-68 172q0 121 88.5 194.5t239.5 73.5zM367 537q-41 0 -66 -22t-25 -56t25 -57t66 -23t66.5 23t25.5 57t-25.5 56t-66.5 22z" />
    <glyph glyph-name="zero.numr" horiz-adv-x="802" 
d="M401 707q-166 0 -258 100.5t-92 267.5q0 168 92 268.5t258 100.5q167 0 259 -100.5t92 -268.5t-92 -268t-259 -100zM401 915q54 0 84.5 42.5t30.5 117.5t-30.5 117.5t-84.5 42.5t-84 -42.5t-30 -117.5q0 -77 29.5 -118.5t84.5 -41.5z" />
    <glyph glyph-name="one.numr" horiz-adv-x="507" 
d="M426 717h-236v457h-10l-139 -74v233l203 101h182v-717z" />
    <glyph glyph-name="two.numr" horiz-adv-x="675" 
d="M635 717h-578v186l207 156q135 100 135 158q0 22 -16.5 35.5t-42.5 13.5q-62 0 -84 -62l-225 47q20 93 102 143t203 50q140 0 219.5 -59.5t79.5 -165.5q0 -80 -48 -138t-147 -125l-32 -22v-12h227v-205z" />
    <glyph glyph-name="three.numr" horiz-adv-x="716" 
d="M629 1245l-150 -100q88 -12 137.5 -67t49.5 -140q0 -108 -79 -169.5t-227 -61.5q-132 0 -217 51.5t-102 152.5l233 45q13 -65 86 -65q32 0 51 15t19 40q0 27 -20.5 43.5t-57.5 16.5h-125v120l133 91v12h-288v205h557v-189z" />
    <glyph glyph-name="four.numr" horiz-adv-x="712" 
d="M590 717h-236v112h-323v199l305 406h254v-420h82v-185h-82v-112zM354 1174l-123 -160h123v160z" />
    <glyph glyph-name="five.numr" horiz-adv-x="714" 
d="M367 707q-127 0 -216.5 50.5t-109.5 143.5l238 47q20 -57 88 -57q32 0 51.5 17t19.5 46q0 30 -19 47t-52 17q-43 0 -74 -31l-209 39l29 408h489v-195h-291l-6 -70h14q55 19 105 19q113 0 181.5 -64t68.5 -170q0 -123 -79.5 -185t-227.5 -62z" />
    <glyph glyph-name="six.numr" horiz-adv-x="735" 
d="M602 1421l-162 -202q118 -6 186 -72t68 -172q0 -121 -88 -194.5t-239 -73.5q-145 0 -235.5 74t-90.5 194q0 70 23.5 120.5t80.5 129.5l152 209h305v-13zM369 897q41 0 65.5 22t24.5 56t-25 57t-65 23q-41 0 -67 -23t-26 -57t26 -56t67 -22z" />
    <glyph glyph-name="seven.numr" horiz-adv-x="651" 
d="M360 717h-274l238 479v12h-283v226h569v-213z" />
    <glyph glyph-name="eight.numr" horiz-adv-x="712" 
d="M356 707q-140 0 -227.5 60.5t-87.5 160.5q0 53 30.5 97.5t82.5 68.5q-42 22 -67.5 61.5t-25.5 83.5q0 95 81 150t214 55t214 -55t81 -150q0 -43 -24.5 -82.5t-67.5 -62.5q51 -24 82 -68.5t31 -97.5q0 -100 -88 -160.5t-228 -60.5zM356 1155q31 0 49.5 16.5t18.5 42.5
t-18.5 43t-49.5 17t-49 -17t-18 -43t18 -42.5t49 -16.5zM356 877q35 0 57.5 18.5t22.5 50.5t-22 51t-58 19t-58 -19t-22 -51t22.5 -50.5t57.5 -18.5z" />
    <glyph glyph-name="nine.numr" horiz-adv-x="735" 
d="M369 1444q145 0 235 -74t90 -194q0 -70 -23.5 -120.5t-80.5 -129.5l-152 -209h-305v12l162 203q-118 6 -186 72t-68 172q0 121 88.5 194.5t239.5 73.5zM367 1253q-41 0 -66 -21.5t-25 -55.5t25 -57t66 -23t66.5 23t25.5 57t-25.5 55.5t-66.5 21.5z" />
    <glyph glyph-name="exclamdown.case" horiz-adv-x="679" 
d="M342 1454q91 0 153 -58t62 -149q0 -88 -62.5 -145.5t-152.5 -57.5t-152.5 57.5t-62.5 145.5q0 91 62 149t153 58zM123 0l47 911h338l47 -911h-432z" />
    <glyph glyph-name="questiondown.case" horiz-adv-x="1230" 
d="M588 1454q91 0 153 -58t62 -149q0 -88 -62.5 -145.5t-152.5 -57.5t-152.5 57.5t-62.5 145.5q0 91 62 149t153 58zM420 911h338v-20q0 -65 -16.5 -120t-42.5 -93.5t-57.5 -71t-63.5 -58t-58 -49t-42.5 -50t-16.5 -54.5q0 -57 40.5 -88t106.5 -31q78 0 139 43.5t82 118.5
l361 -71q-36 -183 -193.5 -285t-388.5 -102q-257 0 -407 101t-150 284q0 60 20.5 112.5t53 91t71.5 73t78.5 64t72 57.5t53 61t20.5 67v20z" />
    <glyph glyph-name="periodcentered.case" horiz-adv-x="552" 
d="M276 512q-91 0 -153 58t-62 149q0 88 62.5 145.5t152.5 57.5q91 0 153.5 -57.5t62.5 -145.5q0 -91 -62.5 -149t-153.5 -58z" />
    <glyph glyph-name="bullet.case" horiz-adv-x="614" 
d="M307 481q-103 0 -174.5 66.5t-71.5 169.5t71.5 169t174.5 66t174.5 -66t71.5 -169t-71.5 -169.5t-174.5 -66.5z" />
    <glyph glyph-name="period.tf" horiz-adv-x="1290" 
d="M645 -20q-91 0 -153 57.5t-62 148.5q0 88 62.5 145.5t152.5 57.5t152.5 -57.5t62.5 -145.5q0 -91 -62 -148.5t-153 -57.5z" />
    <glyph glyph-name="comma.tf" horiz-adv-x="1290" 
d="M907 248l-293 -535l-229 74l168 582z" />
    <glyph glyph-name="colon.tf" horiz-adv-x="1290" 
d="M645 655q-91 0 -153 58t-62 149q0 88 62.5 145.5t152.5 57.5t152.5 -57.5t62.5 -145.5q0 -91 -62 -149t-153 -58zM645 -20q-91 0 -153 57.5t-62 148.5q0 88 62.5 145.5t152.5 57.5t152.5 -57.5t62.5 -145.5q0 -91 -62 -148.5t-153 -57.5z" />
    <glyph glyph-name="semicolon.tf" horiz-adv-x="1290" 
d="M668 655q-91 0 -153 58t-62 149q0 88 62.5 145.5t152.5 57.5t152.5 -57.5t62.5 -145.5q0 -91 -62 -149t-153 -58zM907 248l-293 -535l-229 74l168 582z" />
    <glyph glyph-name="parenleft.case" horiz-adv-x="747" 
d="M717 -113l-277 -153q-399 417 -399 983q0 565 399 983l277 -154q-287 -396 -287 -829q0 -434 287 -830z" />
    <glyph glyph-name="parenright.case" horiz-adv-x="747" 
d="M307 -266l-276 153q286 394 286 830q0 435 -286 829l276 154q400 -419 400 -983q0 -565 -400 -983z" />
    <glyph glyph-name="braceleft.case" horiz-adv-x="849" 
d="M799 -256h-191q-197 0 -295 108.5t-98 297.5v249q0 80 -41 122t-113 42h-30v307h30q72 0 113 42t41 122v250q0 189 98 297.5t295 108.5h191v-308h-45q-74 0 -112 -40t-38 -134v-254q0 -91 -32.5 -146.5t-108.5 -80.5v-20q75 -24 108 -80.5t33 -147.5v-254q0 -94 38 -134
t112 -40h45v-307z" />
    <glyph glyph-name="braceright.case" horiz-adv-x="849" 
d="M242 -256h-191v307h45q74 0 112 40t38 134v254q0 91 33 147.5t108 80.5v20q-76 25 -108.5 80.5t-32.5 146.5v254q0 94 -38 134t-112 40h-45v308h191q197 0 295 -108.5t98 -297.5v-250q0 -80 40.5 -122t112.5 -42h31v-307h-31q-72 0 -112.5 -42t-40.5 -122v-249
q0 -189 -98 -297.5t-295 -108.5z" />
    <glyph glyph-name="bracketleft.case" horiz-adv-x="757" 
d="M707 -256h-584v1946h584v-308h-195v-1331h195v-307z" />
    <glyph glyph-name="bracketright.case" horiz-adv-x="757" 
d="M635 1690v-1946h-584v307h195v1331h-195v308h584z" />
    <glyph glyph-name="hyphen.case" horiz-adv-x="829" 
d="M778 573h-727v287h727v-287z" />
    <glyph glyph-name="endash.case" 
d="M993 573h-942v287h942v-287z" />
    <glyph glyph-name="emdash.case" horiz-adv-x="1515" 
d="M1464 573h-1413v287h1413v-287z" />
    <glyph glyph-name="guillemotleft.case" horiz-adv-x="1409" 
d="M788 317h-391l-366 400l366 399h391l-374 -399zM1358 317h-391l-367 400l367 399h391l-375 -399z" />
    <glyph glyph-name="guillemotright.case" horiz-adv-x="1409" 
d="M809 717l-367 -400h-391l375 400l-375 399h391zM1378 717l-366 -400h-391l374 400l-374 399h391z" />
    <glyph glyph-name="guilsinglleft.case" horiz-adv-x="839" 
d="M788 317h-391l-366 400l366 399h391l-374 -399z" />
    <glyph glyph-name="guilsinglright.case" horiz-adv-x="839" 
d="M809 717l-367 -400h-391l375 400l-375 399h391z" />
    <glyph glyph-name="cent.tf" horiz-adv-x="1290" 
d="M850 -225h-389v231q-175 51 -267 188.5t-92 327.5t92 327.5t267 188.5v232h389v-230q259 -72 328 -346l-381 -78q-12 65 -49.5 100.5t-90.5 35.5q-71 0 -113 -62.5t-42 -167.5t42 -167t113 -62q57 0 96 34.5t52 100.5l383 -78q-78 -275 -338 -346v-229z" />
    <glyph glyph-name="currency.tf" horiz-adv-x="1290" 
d="M424 307l-123 -123l-188 189l123 123q-56 106 -56 221t56 221l-123 123l188 188l123 -123q106 56 221 56t221 -56l123 123l189 -188l-123 -123q55 -104 55 -221t-55 -221l123 -123l-189 -189l-123 123q-104 -55 -221 -55t-221 55zM645 504q87 0 148 62.5t61 150.5
t-61 150.5t-148 62.5t-148 -62.5t-61 -150.5t61 -150.5t148 -62.5z" />
    <glyph glyph-name="dollar.tf" horiz-adv-x="1290" 
d="M1245 395q0 -152 -103 -259.5t-298 -141.5v-219h-389v227q-159 37 -267.5 129t-142.5 238l387 77q56 -165 234 -165q78 0 121.5 32.5t43.5 89.5q0 38 -26 65.5t-69.5 44t-100 30.5t-119.5 30.5t-125.5 37t-119 56t-100 82.5t-69.5 121.5t-26 169.5q0 147 99.5 254.5
t279.5 143.5v221h389v-229q142 -34 236 -121t130 -224l-393 -77q-39 145 -186 145q-60 0 -99.5 -32t-39.5 -81q0 -38 26 -65.5t69.5 -44.5t100 -31t119 -30t124.5 -36.5t118.5 -56.5t100 -84.5t69.5 -124.5t26 -172z" />
    <glyph glyph-name="Euro.tf" horiz-adv-x="1290" 
d="M707 -20q-202 0 -333.5 140t-172.5 382h-119v164h102v51v51h-102v164h119q41 242 172.5 382t333.5 140q209 0 332.5 -118.5t160.5 -350.5l-317 -76q-13 123 -60.5 190.5t-115.5 67.5q-64 0 -109.5 -61t-67.5 -174h177v-164h-195v-51v-51h195v-164h-177
q22 -113 67.5 -174.5t109.5 -61.5q70 0 119.5 67t62.5 191l319 -73q-75 -471 -501 -471z" />
    <glyph glyph-name="florin.tf" horiz-adv-x="1290" 
d="M358 -410h-245v338h94q131 0 149 115l105 662h-205v225h240l18 114q60 390 424 390h240v-338h-111q-131 0 -149 -115l-9 -51h228v-225h-263l-114 -728q-32 -208 -132.5 -297.5t-269.5 -89.5z" />
    <glyph glyph-name="sterling.tf" horiz-adv-x="1290" 
d="M1042 395l218 -215q-88 -110 -160 -155t-174 -45q-72 0 -188 35.5t-189 35.5q-133 0 -352 -82l-166 275q124 93 171 170.5t50 175.5h-211v194h158q-24 51 -34.5 75t-23 73t-12.5 94q0 201 143 314.5t404 113.5q216 0 361 -87t186 -277l-371 -76q-26 143 -162 143
q-69 0 -110 -39.5t-41 -111.5q0 -37 12.5 -71t40.5 -82.5t37 -68.5h264v-194h-240q-13 -50 -56.5 -102.5t-131.5 -127.5l12 -24q97 53 174 53q54 0 135 -36t129 -36q78 0 127 78z" />
    <glyph glyph-name="yen.tf" horiz-adv-x="1290" 
d="M842 0h-398v174h-282v195h282v123h-282v194h203l-345 748h451l166 -516h20l170 516h443l-346 -748h200v-194h-282v-123h282v-195h-282v-174z" />
    <glyph glyph-name="plus.case" 
d="M676 262h-307v297h-308v318h308v297h307v-297h307v-318h-307v-297z" />
    <glyph glyph-name="minus.case" 
d="M983 559h-922v318h922v-318z" />
    <glyph glyph-name="multiply.case" 
d="M520 510l-280 -281l-209 211l278 277l-278 278l209 211l280 -280l283 280l211 -211l-283 -278l281 -277l-211 -211z" />
    <glyph glyph-name="divide.case" 
d="M522 938q-82 0 -138 53t-56 131t56 131.5t138 53.5t138.5 -53.5t56.5 -131.5q0 -77 -57.5 -130.5t-137.5 -53.5zM983 580h-922v276h922v-276zM522 129q-82 0 -138 53t-56 131t56 131.5t138 53.5t138.5 -53.5t56.5 -131.5q0 -77 -57.5 -130.5t-137.5 -53.5z" />
    <glyph glyph-name="equal.case" 
d="M983 799h-922v276h922v-276zM983 358h-922v277h922v-277z" />
    <glyph glyph-name="notequal.case" 
d="M399 133h-233l92 225h-197v277h312l65 164h-377v276h492l92 225h234l-93 -225h197v-276h-311l-66 -164h377v-277h-491z" />
    <glyph glyph-name="greater.case" 
d="M983 537l-922 -301v327l621 154l-621 153v328l922 -301v-360z" />
    <glyph glyph-name="less.case" 
d="M983 563v-327l-922 301v360l922 301v-328l-621 -153z" />
    <glyph glyph-name="greaterequal.case" 
d="M983 690l-922 -239v327l603 103l-603 102v328l922 -240v-381zM983 102h-922v287h922v-287z" />
    <glyph glyph-name="lessequal.case" 
d="M983 778v-327l-922 239v381l922 240v-328l-602 -102zM983 102h-922v287h922v-287z" />
    <glyph glyph-name="plusminus.case" 
d="M670 532h-297v230h-312v297h312v241h297v-241h313v-297h-313v-230zM983 133h-922v307h922v-307z" />
    <glyph glyph-name="approxequal.case" 
d="M328 737h-267v144q0 139 65.5 212.5t180.5 73.5q61 0 129.5 -28t126 -56t92.5 -28q30 0 46 16.5t16 44.5v51h266v-143q0 -287 -246 -287q-53 0 -107.5 17.5t-91 39t-77.5 39t-72 17.5q-30 0 -45.5 -16.5t-15.5 -45.5v-51zM328 266h-267v144q0 139 65.5 212.5t180.5 73.5
q61 0 129.5 -28t126 -56t92.5 -28q30 0 46 16.5t16 44.5v51h266v-143q0 -287 -246 -287q-53 0 -107.5 17.5t-91 39t-77.5 39t-72 17.5q-30 0 -45.5 -16.5t-15.5 -45.5v-51z" />
    <glyph glyph-name="logicalnot.case" 
d="M983 451h-317v235h-605v297h922v-532z" />
    <glyph glyph-name="at.case" horiz-adv-x="1902" 
d="M1165 -152h-223q-244 0 -443 111t-313 308t-114 440q0 183 67 343t183 272.5t277 177.5t343 65q193 0 359 -61t282.5 -168t182 -257t65.5 -323q0 -204 -98.5 -325.5t-278.5 -121.5q-96 0 -169 37.5t-109 110.5h-23q-50 -80 -116.5 -114t-155.5 -34q-151 0 -243.5 108.5
t-92.5 289.5q0 182 91.5 290.5t244.5 108.5q148 0 233 -117h23l14 103h197v-406q0 -73 27.5 -112t78.5 -39q131 0 131 221q0 257 -179 420t-464 163q-173 0 -315.5 -80t-226 -225t-83.5 -327q0 -181 83 -326.5t225.5 -226t316.5 -80.5h223v-226zM946 535q64 0 99.5 44.5
t35.5 127.5q0 82 -36 128t-99 46q-64 0 -99.5 -46t-35.5 -128q0 -83 35 -127.5t100 -44.5z" />
    <glyph glyph-name="uni030C.alt" horiz-adv-x="0" 
d="M-172 1014h-205l19 420h297z" />
    <glyph glyph-name="uni0308.alt" horiz-adv-x="0" 
d="M-676 1157q-78 0 -130 53.5t-52 141.5q0 87 52 140.5t130 53.5t130 -53.5t52 -140.5q0 -88 -52 -141.5t-130 -53.5zM-244 1157q-80 0 -134 54t-54 141t54 140.5t134 53.5q77 0 130 -53.5t53 -140.5t-53 -141t-130 -54z" />
    <glyph glyph-name="uni0338.alt" horiz-adv-x="0" 
d="M-676 35l-96 -168l-158 76l103 178l30 31l428 745l9 37l139 244l160 -76l-121 -211l-39 -41l-445 -772z" />
    </font>
</defs>
</svg>
