<svg width="469" height="612" viewBox="0 0 469 612" fill="none" xmlns="http://www.w3.org/2000/svg">
<path d="M451.179 86.858C440.59 86.858 431.976 78.243 431.976 67.655V52.973C431.976 42.385 440.59 33.77 451.179 33.77C460.504 33.77 468.064 26.21 468.064 16.885C468.064 7.56 460.504 0 451.179 0H451.177H55.377C24.842 0 0 24.84 0 55.375V459.217C0 489.749 24.84 514.592 55.376 514.592H70.081V595.116C70.081 601.22 73.376 606.848 78.696 609.835C81.267 611.28 84.119 612 86.965 612C90.011 612 93.055 611.175 95.749 609.535L148.246 577.51L200.822 609.535C203.516 611.176 206.56 612 209.606 612C212.452 612 215.305 611.28 217.875 609.835C223.196 606.848 226.489 601.22 226.489 595.116V514.592H451.173C460.499 514.592 468.058 507.032 468.058 497.707V103.77C468.058 103.759 468.061 103.75 468.061 103.742C468.064 94.419 460.504 86.858 451.179 86.858ZM33.769 55.375C33.769 43.463 43.462 33.77 55.376 33.77H401.823C399.497 39.727 398.207 46.203 398.207 52.973V67.654C398.207 74.426 399.497 80.9 401.823 86.857H368.898H33.769V55.375ZM192.723 565.059L157.071 543.343C151.644 540.036 145.093 540.411 139.934 543.343C139.906 543.354 103.849 565.059 103.849 565.059V514.592H192.721V565.059H192.723ZM434.292 480.823H55.376C43.462 480.823 33.771 471.13 33.771 459.218V142.234V120.627H368.898H434.294V480.823H434.292Z" fill="#757575"/>
</svg>
