<svg width="23" height="20" viewBox="0 0 23 20" fill="none" xmlns="http://www.w3.org/2000/svg">
<path d="M4.02611 1.06744H18.7119C19.6107 1.06744 20.4727 1.44434 21.1083 2.11521C21.7438 2.78609 22.1009 3.69599 22.1009 4.64475V15.3767C22.1009 16.3254 21.7438 17.2353 21.1083 17.9062C20.4727 18.5771 19.6107 18.954 18.7119 18.954H4.02611C3.12728 18.954 2.26527 18.5771 1.62971 17.9062C0.994142 17.2353 0.637085 16.3254 0.637085 15.3767V4.64475C0.637085 3.69599 0.994142 2.78609 1.62971 2.11521C2.26527 1.44434 3.12728 1.06744 4.02611 1.06744ZM4.02611 2.25988C3.46127 2.25988 2.96421 2.46259 2.58013 2.82032L11.369 8.81827L20.1579 2.82032C19.7738 2.46259 19.2767 2.25988 18.7119 2.25988H4.02611ZM11.369 10.2611L1.91362 3.78619C1.82324 4.04853 1.76676 4.34664 1.76676 4.64475V15.3767C1.76676 16.0092 2.0048 16.6158 2.42851 17.063C2.85222 17.5103 3.42689 17.7615 4.02611 17.7615H18.7119C19.3111 17.7615 19.8858 17.5103 20.3095 17.063C20.7332 16.6158 20.9712 16.0092 20.9712 15.3767V4.64475C20.9712 4.34664 20.9147 4.04853 20.8244 3.78619L11.369 10.2611Z" fill="#757575" stroke="#757575" stroke-width="0.35773"/>
</svg>
