<svg width="23" height="22" viewBox="0 0 23 22" fill="none" xmlns="http://www.w3.org/2000/svg">
<path d="M2.70559 16.0714C2.74673 15.8709 2.71787 15.6624 2.62383 15.4806C1.925 14.1299 1.53141 12.5988 1.53141 10.9704C1.53141 9.02475 2.10837 7.12275 3.18934 5.50497C4.27031 3.88719 5.80673 2.62628 7.60431 1.8817C9.40189 1.13711 11.3799 0.942297 13.2882 1.32188C15.1965 1.70147 16.9494 2.63841 18.3252 4.01422C19.701 5.39003 20.638 7.14292 21.0175 9.05122C21.3971 10.9595 21.2023 12.9375 20.4577 14.7351C19.7131 16.5327 18.4522 18.0691 16.8345 19.1501C15.2167 20.2311 13.3147 20.808 11.369 20.808C9.74206 20.808 8.20838 20.4133 6.85853 19.7155C6.67683 19.6215 6.46841 19.5927 6.26803 19.6338L1.78577 20.5537L2.70559 16.0714Z" stroke="#757575" stroke-width="1.78865" stroke-linecap="round" stroke-linejoin="round"/>
</svg>
