<svg width="23" height="22" viewBox="0 0 23 22" fill="none" xmlns="http://www.w3.org/2000/svg">
<path d="M21.9792 20.5624C20.4091 17.7396 17.9896 15.7156 15.1659 14.7561C16.5626 13.8914 17.6478 12.5738 18.2547 11.0058C18.8617 9.43766 18.9569 7.70572 18.5257 6.07592C18.0945 4.44612 17.1608 3.00856 15.8679 1.98402C14.575 0.959479 12.9945 0.404602 11.369 0.404602C9.74351 0.404602 8.16297 0.959479 6.87009 1.98402C5.57721 3.00856 4.64348 4.44612 4.21229 6.07592C3.7811 7.70572 3.8763 9.43766 4.48326 11.0058C5.09023 12.5738 6.17539 13.8914 7.57212 14.7561C4.74843 15.7145 2.32886 17.7386 0.758771 20.5624C0.701193 20.66 0.663002 20.7686 0.646451 20.8819C0.6299 20.9951 0.635325 21.1106 0.662405 21.2216C0.689485 21.3327 0.737672 21.4369 0.804123 21.5282C0.870574 21.6196 0.953942 21.6961 1.04931 21.7534C1.14468 21.8107 1.25011 21.8476 1.35939 21.8618C1.46867 21.876 1.57959 21.8673 1.68559 21.8362C1.79159 21.8052 1.89054 21.7523 1.97658 21.6808C2.06263 21.6094 2.13404 21.5207 2.18659 21.42C4.12885 17.9294 7.56181 15.8453 11.369 15.8453C15.1762 15.8453 18.6091 17.9294 20.5514 21.42C20.6039 21.5207 20.6754 21.6094 20.7614 21.6808C20.8475 21.7523 20.9464 21.8052 21.0524 21.8362C21.1584 21.8673 21.2693 21.876 21.3786 21.8618C21.4879 21.8476 21.5933 21.8107 21.6887 21.7534C21.784 21.6961 21.8674 21.6196 21.9339 21.5282C22.0003 21.4369 22.0485 21.3327 22.0756 21.2216C22.1027 21.1106 22.1081 20.9951 22.0915 20.8819C22.075 20.7686 22.0368 20.66 21.9792 20.5624ZM5.59584 8.1264C5.59584 6.93901 5.93443 5.77828 6.5688 4.79099C7.20316 3.80371 8.1048 3.03422 9.1597 2.57982C10.2146 2.12542 11.3754 2.00653 12.4953 2.23818C13.6152 2.46983 14.6438 3.04162 15.4512 3.88123C16.2586 4.72085 16.8085 5.79058 17.0312 6.95516C17.254 8.11974 17.1396 9.32686 16.7027 10.4239C16.2657 11.5209 15.5258 12.4585 14.5764 13.1182C13.627 13.7779 12.5108 14.13 11.369 14.13C9.83836 14.1283 8.37089 13.4952 7.28857 12.3697C6.20625 11.2442 5.59748 9.71813 5.59584 8.1264Z" fill="#757575"/>
</svg>
