<svg width="20" height="19" viewBox="0 0 20 19" fill="none" xmlns="http://www.w3.org/2000/svg">
<path d="M18.1416 12.6011L13.8304 10.6691C13.6351 10.5854 13.422 10.5518 13.2104 10.5712C12.9987 10.5906 12.7953 10.6626 12.6185 10.7804C12.6005 10.792 12.5835 10.8048 12.5674 10.8188L10.3142 12.7352C10.2908 12.748 10.2648 12.7551 10.2381 12.7561C10.2115 12.757 10.1851 12.7518 10.1608 12.7407C8.71253 12.0417 7.2122 10.5505 6.51041 9.12222C6.49872 9.09836 6.49265 9.07214 6.49265 9.04556C6.49265 9.01899 6.49872 8.99277 6.51041 8.96891L8.43327 6.68738C8.44707 6.6705 8.45987 6.65282 8.4716 6.63445C8.58786 6.45695 8.65808 6.25329 8.67592 6.04186C8.69377 5.83043 8.65868 5.61789 8.57381 5.42341L6.65551 1.11954C6.54657 0.865481 6.35817 0.653603 6.11859 0.51571C5.879 0.377817 5.60116 0.321347 5.32675 0.354776C4.13418 0.511559 3.0395 1.09722 2.24727 2.00231C1.45504 2.9074 1.01948 4.07 1.02198 5.27283C1.02198 12.4186 6.8353 18.2319 13.981 18.2319C15.1838 18.2342 16.3463 17.7986 17.2513 17.0064C18.1564 16.2142 18.7421 15.1196 18.8991 13.9271C18.9324 13.654 18.8767 13.3774 18.7402 13.1385C18.6038 12.8996 18.3938 12.7111 18.1416 12.6011ZM13.981 17.1368C7.43944 17.1368 2.11711 11.8144 2.11711 5.27283C2.11406 4.33643 2.45204 3.43095 3.06791 2.72556C3.68377 2.02018 4.53539 1.56315 5.46365 1.43987H5.48464C5.52141 1.44056 5.55712 1.45234 5.58709 1.47367C5.61705 1.49501 5.63987 1.52489 5.65256 1.55942L7.57816 5.85873C7.58914 5.88263 7.59483 5.90863 7.59483 5.93493C7.59483 5.96124 7.58914 5.98723 7.57816 6.01114L5.65164 8.29814C5.63727 8.31446 5.62415 8.33185 5.6124 8.35016C5.49185 8.53419 5.42086 8.74623 5.40631 8.96576C5.39176 9.18528 5.43415 9.40484 5.52935 9.60317C6.33884 11.2605 8.00891 12.9178 9.68446 13.7273C9.88395 13.8219 10.1046 13.8633 10.3248 13.8473C10.5451 13.8313 10.7574 13.7585 10.9411 13.636C10.9585 13.6241 10.9758 13.6114 10.9922 13.5977L13.2445 11.6812C13.2668 11.6692 13.2914 11.6622 13.3166 11.6607C13.3418 11.6591 13.367 11.663 13.3906 11.6721L17.7026 13.6041C17.7379 13.6191 17.7675 13.6447 17.7873 13.6775C17.8071 13.7103 17.8161 13.7484 17.8131 13.7866C17.6904 14.7153 17.2338 15.5675 16.5286 16.1841C15.8234 16.8006 14.9178 17.1393 13.981 17.1368Z" fill="#757575" stroke="#757575" stroke-width="0.35773"/>
</svg>
